G04 #@! TF.FileFunction,Legend,Top*
%FSLAX46Y46*%
G04 Gerber Fmt 4.6, Leading zero omitted, Abs format (unit mm)*
G04 Created by KiCad (PCBNEW 0.201412191901+5326~19~ubuntu14.04.1-product) date Mon 22 Dec 2014 04:55:03 PM PST*
%MOMM*%
G01*
G04 APERTURE LIST*
%ADD10C,0.100000*%
%ADD11C,0.127000*%
%ADD12C,0.150000*%
%ADD13C,0.076200*%
G04 APERTURE END LIST*
D10*
D11*
X162306000Y-100838000D02*
X160274000Y-100838000D01*
X160274000Y-98298000D02*
X162306000Y-98298000D01*
X160020000Y-100584000D02*
X160020000Y-98552000D01*
X160782000Y-100076000D02*
X160401000Y-100457000D01*
X161798000Y-100076000D02*
X162179000Y-100457000D01*
X161798000Y-99060000D02*
X162179000Y-98679000D01*
X160782000Y-99060000D02*
X160401000Y-98679000D01*
X160401000Y-98679000D02*
X162179000Y-98679000D01*
X162179000Y-98679000D02*
X162179000Y-100457000D01*
X162179000Y-100457000D02*
X160401000Y-100457000D01*
X160401000Y-100457000D02*
X160401000Y-98679000D01*
X161798000Y-99060000D02*
X161798000Y-100076000D01*
X161798000Y-100076000D02*
X160782000Y-100076000D01*
X160782000Y-100076000D02*
X160782000Y-99060000D01*
X160782000Y-99060000D02*
X161798000Y-99060000D01*
X162306000Y-98298000D02*
X162560000Y-98552000D01*
X162560000Y-100584000D02*
X162306000Y-100838000D01*
X160274000Y-100838000D02*
X160020000Y-100584000D01*
X160020000Y-98552000D02*
X160274000Y-98298000D01*
X175260000Y-100584000D02*
X175260000Y-98552000D01*
X175006000Y-100838000D02*
X172974000Y-100838000D01*
X172974000Y-98298000D02*
X175006000Y-98298000D01*
X173482000Y-100076000D02*
X173101000Y-100457000D01*
X174498000Y-100076000D02*
X174879000Y-100457000D01*
X174498000Y-99060000D02*
X174879000Y-98679000D01*
X173482000Y-99060000D02*
X173101000Y-98679000D01*
X173101000Y-98679000D02*
X174879000Y-98679000D01*
X174879000Y-98679000D02*
X174879000Y-100457000D01*
X174879000Y-100457000D02*
X173101000Y-100457000D01*
X173101000Y-100457000D02*
X173101000Y-98679000D01*
X174498000Y-99060000D02*
X174498000Y-100076000D01*
X174498000Y-100076000D02*
X173482000Y-100076000D01*
X173482000Y-100076000D02*
X173482000Y-99060000D01*
X173482000Y-99060000D02*
X174498000Y-99060000D01*
X175006000Y-98298000D02*
X175260000Y-98552000D01*
X175260000Y-100584000D02*
X175006000Y-100838000D01*
X172974000Y-100838000D02*
X172720000Y-100584000D01*
X172720000Y-98552000D02*
X172974000Y-98298000D01*
X164846000Y-100838000D02*
X162814000Y-100838000D01*
X162814000Y-98298000D02*
X164846000Y-98298000D01*
X163322000Y-100076000D02*
X162941000Y-100457000D01*
X164338000Y-100076000D02*
X164719000Y-100457000D01*
X164338000Y-99060000D02*
X164719000Y-98679000D01*
X163322000Y-99060000D02*
X162941000Y-98679000D01*
X162941000Y-98679000D02*
X164719000Y-98679000D01*
X164719000Y-98679000D02*
X164719000Y-100457000D01*
X164719000Y-100457000D02*
X162941000Y-100457000D01*
X162941000Y-100457000D02*
X162941000Y-98679000D01*
X164338000Y-99060000D02*
X164338000Y-100076000D01*
X164338000Y-100076000D02*
X163322000Y-100076000D01*
X163322000Y-100076000D02*
X163322000Y-99060000D01*
X163322000Y-99060000D02*
X164338000Y-99060000D01*
X164846000Y-98298000D02*
X165100000Y-98552000D01*
X165100000Y-100584000D02*
X164846000Y-100838000D01*
X162814000Y-100838000D02*
X162560000Y-100584000D01*
X162560000Y-98552000D02*
X162814000Y-98298000D01*
X172466000Y-100838000D02*
X170434000Y-100838000D01*
X170434000Y-98298000D02*
X172466000Y-98298000D01*
X170942000Y-100076000D02*
X170561000Y-100457000D01*
X171958000Y-100076000D02*
X172339000Y-100457000D01*
X171958000Y-99060000D02*
X172339000Y-98679000D01*
X170942000Y-99060000D02*
X170561000Y-98679000D01*
X170561000Y-98679000D02*
X172339000Y-98679000D01*
X172339000Y-98679000D02*
X172339000Y-100457000D01*
X172339000Y-100457000D02*
X170561000Y-100457000D01*
X170561000Y-100457000D02*
X170561000Y-98679000D01*
X171958000Y-99060000D02*
X171958000Y-100076000D01*
X171958000Y-100076000D02*
X170942000Y-100076000D01*
X170942000Y-100076000D02*
X170942000Y-99060000D01*
X170942000Y-99060000D02*
X171958000Y-99060000D01*
X172466000Y-98298000D02*
X172720000Y-98552000D01*
X172720000Y-100584000D02*
X172466000Y-100838000D01*
X170434000Y-100838000D02*
X170180000Y-100584000D01*
X170180000Y-98552000D02*
X170434000Y-98298000D01*
X169926000Y-100838000D02*
X167894000Y-100838000D01*
X167894000Y-98298000D02*
X169926000Y-98298000D01*
X168402000Y-100076000D02*
X168021000Y-100457000D01*
X169418000Y-100076000D02*
X169799000Y-100457000D01*
X169418000Y-99060000D02*
X169799000Y-98679000D01*
X168402000Y-99060000D02*
X168021000Y-98679000D01*
X168021000Y-98679000D02*
X169799000Y-98679000D01*
X169799000Y-98679000D02*
X169799000Y-100457000D01*
X169799000Y-100457000D02*
X168021000Y-100457000D01*
X168021000Y-100457000D02*
X168021000Y-98679000D01*
X169418000Y-99060000D02*
X169418000Y-100076000D01*
X169418000Y-100076000D02*
X168402000Y-100076000D01*
X168402000Y-100076000D02*
X168402000Y-99060000D01*
X168402000Y-99060000D02*
X169418000Y-99060000D01*
X169926000Y-98298000D02*
X170180000Y-98552000D01*
X170180000Y-100584000D02*
X169926000Y-100838000D01*
X167894000Y-100838000D02*
X167640000Y-100584000D01*
X167640000Y-98552000D02*
X167894000Y-98298000D01*
X167386000Y-100838000D02*
X165354000Y-100838000D01*
X165354000Y-98298000D02*
X167386000Y-98298000D01*
X165862000Y-100076000D02*
X165481000Y-100457000D01*
X166878000Y-100076000D02*
X167259000Y-100457000D01*
X166878000Y-99060000D02*
X167259000Y-98679000D01*
X165862000Y-99060000D02*
X165481000Y-98679000D01*
X165481000Y-98679000D02*
X167259000Y-98679000D01*
X167259000Y-98679000D02*
X167259000Y-100457000D01*
X167259000Y-100457000D02*
X165481000Y-100457000D01*
X165481000Y-100457000D02*
X165481000Y-98679000D01*
X166878000Y-99060000D02*
X166878000Y-100076000D01*
X166878000Y-100076000D02*
X165862000Y-100076000D01*
X165862000Y-100076000D02*
X165862000Y-99060000D01*
X165862000Y-99060000D02*
X166878000Y-99060000D01*
X167386000Y-98298000D02*
X167640000Y-98552000D01*
X167640000Y-100584000D02*
X167386000Y-100838000D01*
X165354000Y-100838000D02*
X165100000Y-100584000D01*
X165100000Y-98552000D02*
X165354000Y-98298000D01*
X161544000Y-96774000D02*
X161544000Y-97663000D01*
X157480000Y-96774000D02*
X157480000Y-97663000D01*
X154559000Y-96266000D02*
X154432000Y-96393000D01*
X154305000Y-96266000D02*
X154432000Y-96393000D01*
X154178000Y-96266000D02*
X154432000Y-96520000D01*
X154432000Y-96520000D02*
X154686000Y-96266000D01*
X154686000Y-96266000D02*
X154178000Y-96266000D01*
X168529000Y-90170000D02*
X150495000Y-90170000D01*
X150495000Y-90170000D02*
X150495000Y-96774000D01*
X150495000Y-96774000D02*
X168529000Y-96774000D01*
X168529000Y-96774000D02*
X168529000Y-90170000D01*
X169672000Y-89281000D02*
X149352000Y-89281000D01*
X149352000Y-89281000D02*
X149352000Y-97663000D01*
X149352000Y-97663000D02*
X169672000Y-97663000D01*
X169672000Y-97663000D02*
X169672000Y-89281000D01*
X163322000Y-91567000D02*
X163957000Y-90932000D01*
X163957000Y-90932000D02*
X165227000Y-90932000D01*
X165227000Y-90932000D02*
X165862000Y-91567000D01*
X165862000Y-91567000D02*
X165862000Y-95377000D01*
X165862000Y-95377000D02*
X165227000Y-96012000D01*
X165227000Y-96012000D02*
X163957000Y-96012000D01*
X163957000Y-96012000D02*
X163322000Y-95377000D01*
X160782000Y-91567000D02*
X161417000Y-90932000D01*
X161417000Y-90932000D02*
X162687000Y-90932000D01*
X162687000Y-90932000D02*
X163322000Y-91567000D01*
X163322000Y-91567000D02*
X163322000Y-95377000D01*
X163322000Y-95377000D02*
X162687000Y-96012000D01*
X162687000Y-96012000D02*
X161417000Y-96012000D01*
X161417000Y-96012000D02*
X160782000Y-95377000D01*
X158242000Y-91567000D02*
X158877000Y-90932000D01*
X158877000Y-90932000D02*
X160147000Y-90932000D01*
X160147000Y-90932000D02*
X160782000Y-91567000D01*
X160782000Y-91567000D02*
X160782000Y-95377000D01*
X160782000Y-95377000D02*
X160147000Y-96012000D01*
X160147000Y-96012000D02*
X158877000Y-96012000D01*
X158877000Y-96012000D02*
X158242000Y-95377000D01*
X155702000Y-91567000D02*
X156337000Y-90932000D01*
X156337000Y-90932000D02*
X157607000Y-90932000D01*
X157607000Y-90932000D02*
X158242000Y-91567000D01*
X158242000Y-91567000D02*
X158242000Y-95377000D01*
X158242000Y-95377000D02*
X157607000Y-96012000D01*
X157607000Y-96012000D02*
X156337000Y-96012000D01*
X156337000Y-96012000D02*
X155702000Y-95377000D01*
X153797000Y-96012000D02*
X153162000Y-95377000D01*
X153162000Y-95377000D02*
X153162000Y-91567000D01*
X153162000Y-91567000D02*
X153797000Y-90932000D01*
X153797000Y-90932000D02*
X155067000Y-90932000D01*
X155067000Y-90932000D02*
X155702000Y-91567000D01*
X155702000Y-91567000D02*
X155702000Y-95377000D01*
X155702000Y-95377000D02*
X155067000Y-96012000D01*
X155067000Y-96012000D02*
X153797000Y-96012000D01*
X186944000Y-96774000D02*
X186944000Y-97663000D01*
X182880000Y-96774000D02*
X182880000Y-97663000D01*
X179959000Y-96266000D02*
X179832000Y-96393000D01*
X179705000Y-96266000D02*
X179832000Y-96393000D01*
X179578000Y-96266000D02*
X179832000Y-96520000D01*
X179832000Y-96520000D02*
X180086000Y-96266000D01*
X180086000Y-96266000D02*
X179578000Y-96266000D01*
X193929000Y-90170000D02*
X175895000Y-90170000D01*
X175895000Y-90170000D02*
X175895000Y-96774000D01*
X175895000Y-96774000D02*
X193929000Y-96774000D01*
X193929000Y-96774000D02*
X193929000Y-90170000D01*
X195072000Y-89281000D02*
X174752000Y-89281000D01*
X174752000Y-89281000D02*
X174752000Y-97663000D01*
X174752000Y-97663000D02*
X195072000Y-97663000D01*
X195072000Y-97663000D02*
X195072000Y-89281000D01*
X188722000Y-91567000D02*
X189357000Y-90932000D01*
X189357000Y-90932000D02*
X190627000Y-90932000D01*
X190627000Y-90932000D02*
X191262000Y-91567000D01*
X191262000Y-91567000D02*
X191262000Y-95377000D01*
X191262000Y-95377000D02*
X190627000Y-96012000D01*
X190627000Y-96012000D02*
X189357000Y-96012000D01*
X189357000Y-96012000D02*
X188722000Y-95377000D01*
X186182000Y-91567000D02*
X186817000Y-90932000D01*
X186817000Y-90932000D02*
X188087000Y-90932000D01*
X188087000Y-90932000D02*
X188722000Y-91567000D01*
X188722000Y-91567000D02*
X188722000Y-95377000D01*
X188722000Y-95377000D02*
X188087000Y-96012000D01*
X188087000Y-96012000D02*
X186817000Y-96012000D01*
X186817000Y-96012000D02*
X186182000Y-95377000D01*
X183642000Y-91567000D02*
X184277000Y-90932000D01*
X184277000Y-90932000D02*
X185547000Y-90932000D01*
X185547000Y-90932000D02*
X186182000Y-91567000D01*
X186182000Y-91567000D02*
X186182000Y-95377000D01*
X186182000Y-95377000D02*
X185547000Y-96012000D01*
X185547000Y-96012000D02*
X184277000Y-96012000D01*
X184277000Y-96012000D02*
X183642000Y-95377000D01*
X181102000Y-91567000D02*
X181737000Y-90932000D01*
X181737000Y-90932000D02*
X183007000Y-90932000D01*
X183007000Y-90932000D02*
X183642000Y-91567000D01*
X183642000Y-91567000D02*
X183642000Y-95377000D01*
X183642000Y-95377000D02*
X183007000Y-96012000D01*
X183007000Y-96012000D02*
X181737000Y-96012000D01*
X181737000Y-96012000D02*
X181102000Y-95377000D01*
X179197000Y-96012000D02*
X178562000Y-95377000D01*
X178562000Y-95377000D02*
X178562000Y-91567000D01*
X178562000Y-91567000D02*
X179197000Y-90932000D01*
X179197000Y-90932000D02*
X180467000Y-90932000D01*
X180467000Y-90932000D02*
X181102000Y-91567000D01*
X181102000Y-91567000D02*
X181102000Y-95377000D01*
X181102000Y-95377000D02*
X180467000Y-96012000D01*
X180467000Y-96012000D02*
X179197000Y-96012000D01*
D12*
X153162000Y-100330000D02*
X150622000Y-100330000D01*
X154581903Y-100330000D02*
G75*
G03X154581903Y-100330000I-1419903J0D01*
G01*
X156210000Y-100330000D02*
X158750000Y-100330000D01*
X157629903Y-100330000D02*
G75*
G03X157629903Y-100330000I-1419903J0D01*
G01*
X180086000Y-99568000D02*
X177546000Y-99568000D01*
X181505903Y-99568000D02*
G75*
G03X181505903Y-99568000I-1419903J0D01*
G01*
X150001100Y-104003600D02*
G75*
G03X150001100Y-104003600I-500000J0D01*
G01*
X150001100Y-88003600D02*
G75*
G03X150001100Y-88003600I-500000J0D01*
G01*
X196001100Y-104003600D02*
G75*
G03X196001100Y-104003600I-500000J0D01*
G01*
X196001100Y-88003600D02*
G75*
G03X196001100Y-88003600I-500000J0D01*
G01*
X148501100Y-87003600D02*
X196501100Y-87003600D01*
X196501100Y-87003600D02*
X196501100Y-105003600D01*
X196501100Y-105003600D02*
X148501100Y-105003600D01*
X148501100Y-105003600D02*
X148501100Y-87003600D01*
D13*
X161602058Y-102475695D02*
X161602058Y-101662895D01*
X161602058Y-102049943D02*
X162066515Y-102049943D01*
X162066515Y-102475695D02*
X162066515Y-101662895D01*
X162453563Y-102475695D02*
X162453563Y-101662895D01*
X162647087Y-101662895D01*
X162763201Y-101701600D01*
X162840610Y-101779010D01*
X162879315Y-101856419D01*
X162918020Y-102011238D01*
X162918020Y-102127352D01*
X162879315Y-102282171D01*
X162840610Y-102359581D01*
X162763201Y-102436990D01*
X162647087Y-102475695D01*
X162453563Y-102475695D01*
X163730820Y-102475695D02*
X163459887Y-102088648D01*
X163266363Y-102475695D02*
X163266363Y-101662895D01*
X163576001Y-101662895D01*
X163653410Y-101701600D01*
X163692115Y-101740305D01*
X163730820Y-101817714D01*
X163730820Y-101933829D01*
X163692115Y-102011238D01*
X163653410Y-102049943D01*
X163576001Y-102088648D01*
X163266363Y-102088648D01*
X163885639Y-102553105D02*
X164504915Y-102553105D01*
X164969372Y-102049943D02*
X165085486Y-102088648D01*
X165124191Y-102127352D01*
X165162896Y-102204762D01*
X165162896Y-102320876D01*
X165124191Y-102398286D01*
X165085486Y-102436990D01*
X165008077Y-102475695D01*
X164698439Y-102475695D01*
X164698439Y-101662895D01*
X164969372Y-101662895D01*
X165046782Y-101701600D01*
X165085486Y-101740305D01*
X165124191Y-101817714D01*
X165124191Y-101895124D01*
X165085486Y-101972533D01*
X165046782Y-102011238D01*
X164969372Y-102049943D01*
X164698439Y-102049943D01*
X165511239Y-101662895D02*
X165511239Y-102320876D01*
X165549944Y-102398286D01*
X165588648Y-102436990D01*
X165666058Y-102475695D01*
X165820877Y-102475695D01*
X165898286Y-102436990D01*
X165936991Y-102398286D01*
X165975696Y-102320876D01*
X165975696Y-101662895D01*
X166246630Y-101662895D02*
X166711087Y-101662895D01*
X166478858Y-102475695D02*
X166478858Y-101662895D01*
X166865906Y-101662895D02*
X167330363Y-101662895D01*
X167098134Y-102475695D02*
X167098134Y-101662895D01*
X167756115Y-101662895D02*
X167910934Y-101662895D01*
X167988343Y-101701600D01*
X168065753Y-101779010D01*
X168104458Y-101933829D01*
X168104458Y-102204762D01*
X168065753Y-102359581D01*
X167988343Y-102436990D01*
X167910934Y-102475695D01*
X167756115Y-102475695D01*
X167678705Y-102436990D01*
X167601296Y-102359581D01*
X167562591Y-102204762D01*
X167562591Y-101933829D01*
X167601296Y-101779010D01*
X167678705Y-101701600D01*
X167756115Y-101662895D01*
X168452801Y-102475695D02*
X168452801Y-101662895D01*
X168917258Y-102475695D01*
X168917258Y-101662895D01*
X169265601Y-102436990D02*
X169381715Y-102475695D01*
X169575239Y-102475695D01*
X169652649Y-102436990D01*
X169691353Y-102398286D01*
X169730058Y-102320876D01*
X169730058Y-102243467D01*
X169691353Y-102166057D01*
X169652649Y-102127352D01*
X169575239Y-102088648D01*
X169420420Y-102049943D01*
X169343011Y-102011238D01*
X169304306Y-101972533D01*
X169265601Y-101895124D01*
X169265601Y-101817714D01*
X169304306Y-101740305D01*
X169343011Y-101701600D01*
X169420420Y-101662895D01*
X169613944Y-101662895D01*
X169730058Y-101701600D01*
X169884877Y-102553105D02*
X170504153Y-102553105D01*
X170697677Y-102475695D02*
X170697677Y-101662895D01*
X170968610Y-102243467D01*
X171239543Y-101662895D01*
X171239543Y-102475695D01*
X172091048Y-102398286D02*
X172052343Y-102436990D01*
X171936229Y-102475695D01*
X171858819Y-102475695D01*
X171742705Y-102436990D01*
X171665296Y-102359581D01*
X171626591Y-102282171D01*
X171587886Y-102127352D01*
X171587886Y-102011238D01*
X171626591Y-101856419D01*
X171665296Y-101779010D01*
X171742705Y-101701600D01*
X171858819Y-101662895D01*
X171936229Y-101662895D01*
X172052343Y-101701600D01*
X172091048Y-101740305D01*
X172439391Y-101662895D02*
X172439391Y-102320876D01*
X172478096Y-102398286D01*
X172516800Y-102436990D01*
X172594210Y-102475695D01*
X172749029Y-102475695D01*
X172826438Y-102436990D01*
X172865143Y-102398286D01*
X172903848Y-102320876D01*
X172903848Y-101662895D01*
X173716648Y-102475695D02*
X173252191Y-102475695D01*
X173484420Y-102475695D02*
X173484420Y-101662895D01*
X173407010Y-101779010D01*
X173329601Y-101856419D01*
X173252191Y-101895124D01*
X162724496Y-97395695D02*
X162724496Y-96582895D01*
X162995429Y-97163467D01*
X163266362Y-96582895D01*
X163266362Y-97395695D01*
X163808229Y-96582895D02*
X163963048Y-96582895D01*
X164040457Y-96621600D01*
X164117867Y-96699010D01*
X164156572Y-96853829D01*
X164156572Y-97124762D01*
X164117867Y-97279581D01*
X164040457Y-97356990D01*
X163963048Y-97395695D01*
X163808229Y-97395695D01*
X163730819Y-97356990D01*
X163653410Y-97279581D01*
X163614705Y-97124762D01*
X163614705Y-96853829D01*
X163653410Y-96699010D01*
X163730819Y-96621600D01*
X163808229Y-96582895D01*
X164969372Y-97395695D02*
X164698439Y-97008648D01*
X164504915Y-97395695D02*
X164504915Y-96582895D01*
X164814553Y-96582895D01*
X164891962Y-96621600D01*
X164930667Y-96660305D01*
X164969372Y-96737714D01*
X164969372Y-96853829D01*
X164930667Y-96931238D01*
X164891962Y-96969943D01*
X164814553Y-97008648D01*
X164504915Y-97008648D01*
X165472534Y-96582895D02*
X165627353Y-96582895D01*
X165704762Y-96621600D01*
X165782172Y-96699010D01*
X165820877Y-96853829D01*
X165820877Y-97124762D01*
X165782172Y-97279581D01*
X165704762Y-97356990D01*
X165627353Y-97395695D01*
X165472534Y-97395695D01*
X165395124Y-97356990D01*
X165317715Y-97279581D01*
X165279010Y-97124762D01*
X165279010Y-96853829D01*
X165317715Y-96699010D01*
X165395124Y-96621600D01*
X165472534Y-96582895D01*
X166130515Y-97356990D02*
X166246629Y-97395695D01*
X166440153Y-97395695D01*
X166517563Y-97356990D01*
X166556267Y-97318286D01*
X166594972Y-97240876D01*
X166594972Y-97163467D01*
X166556267Y-97086057D01*
X166517563Y-97047352D01*
X166440153Y-97008648D01*
X166285334Y-96969943D01*
X166207925Y-96931238D01*
X166169220Y-96892533D01*
X166130515Y-96815124D01*
X166130515Y-96737714D01*
X166169220Y-96660305D01*
X166207925Y-96621600D01*
X166285334Y-96582895D01*
X166478858Y-96582895D01*
X166594972Y-96621600D01*
X166749791Y-97473105D02*
X167369067Y-97473105D01*
X167833524Y-96969943D02*
X167949638Y-97008648D01*
X167988343Y-97047352D01*
X168027048Y-97124762D01*
X168027048Y-97240876D01*
X167988343Y-97318286D01*
X167949638Y-97356990D01*
X167872229Y-97395695D01*
X167562591Y-97395695D01*
X167562591Y-96582895D01*
X167833524Y-96582895D01*
X167910934Y-96621600D01*
X167949638Y-96660305D01*
X167988343Y-96737714D01*
X167988343Y-96815124D01*
X167949638Y-96892533D01*
X167910934Y-96931238D01*
X167833524Y-96969943D01*
X167562591Y-96969943D01*
X168375391Y-96582895D02*
X168375391Y-97240876D01*
X168414096Y-97318286D01*
X168452800Y-97356990D01*
X168530210Y-97395695D01*
X168685029Y-97395695D01*
X168762438Y-97356990D01*
X168801143Y-97318286D01*
X168839848Y-97240876D01*
X168839848Y-96582895D01*
X169110782Y-96582895D02*
X169575239Y-96582895D01*
X169343010Y-97395695D02*
X169343010Y-96582895D01*
X169730058Y-96582895D02*
X170194515Y-96582895D01*
X169962286Y-97395695D02*
X169962286Y-96582895D01*
X170620267Y-96582895D02*
X170775086Y-96582895D01*
X170852495Y-96621600D01*
X170929905Y-96699010D01*
X170968610Y-96853829D01*
X170968610Y-97124762D01*
X170929905Y-97279581D01*
X170852495Y-97356990D01*
X170775086Y-97395695D01*
X170620267Y-97395695D01*
X170542857Y-97356990D01*
X170465448Y-97279581D01*
X170426743Y-97124762D01*
X170426743Y-96853829D01*
X170465448Y-96699010D01*
X170542857Y-96621600D01*
X170620267Y-96582895D01*
X171316953Y-97395695D02*
X171316953Y-96582895D01*
X171781410Y-97395695D01*
X171781410Y-96582895D01*
X172129753Y-97356990D02*
X172245867Y-97395695D01*
X172439391Y-97395695D01*
X172516801Y-97356990D01*
X172555505Y-97318286D01*
X172594210Y-97240876D01*
X172594210Y-97163467D01*
X172555505Y-97086057D01*
X172516801Y-97047352D01*
X172439391Y-97008648D01*
X172284572Y-96969943D01*
X172207163Y-96931238D01*
X172168458Y-96892533D01*
X172129753Y-96815124D01*
X172129753Y-96737714D01*
X172168458Y-96660305D01*
X172207163Y-96621600D01*
X172284572Y-96582895D01*
X172478096Y-96582895D01*
X172594210Y-96621600D01*
X156241448Y-98919695D02*
X156241448Y-98106895D01*
X156241448Y-98493943D02*
X156705905Y-98493943D01*
X156705905Y-98919695D02*
X156705905Y-98106895D01*
X157092953Y-98919695D02*
X157092953Y-98106895D01*
X157286477Y-98106895D01*
X157402591Y-98145600D01*
X157480000Y-98223010D01*
X157518705Y-98300419D01*
X157557410Y-98455238D01*
X157557410Y-98571352D01*
X157518705Y-98726171D01*
X157480000Y-98803581D01*
X157402591Y-98880990D01*
X157286477Y-98919695D01*
X157092953Y-98919695D01*
X158370210Y-98919695D02*
X158099277Y-98532648D01*
X157905753Y-98919695D02*
X157905753Y-98106895D01*
X158215391Y-98106895D01*
X158292800Y-98145600D01*
X158331505Y-98184305D01*
X158370210Y-98261714D01*
X158370210Y-98377829D01*
X158331505Y-98455238D01*
X158292800Y-98493943D01*
X158215391Y-98532648D01*
X157905753Y-98532648D01*
X158525029Y-98997105D02*
X159144305Y-98997105D01*
X159492648Y-98106895D02*
X159647467Y-98106895D01*
X159724876Y-98145600D01*
X159802286Y-98223010D01*
X159840991Y-98377829D01*
X159840991Y-98648762D01*
X159802286Y-98803581D01*
X159724876Y-98880990D01*
X159647467Y-98919695D01*
X159492648Y-98919695D01*
X159415238Y-98880990D01*
X159337829Y-98803581D01*
X159299124Y-98648762D01*
X159299124Y-98377829D01*
X159337829Y-98223010D01*
X159415238Y-98145600D01*
X159492648Y-98106895D01*
X160576381Y-98919695D02*
X160189334Y-98919695D01*
X160189334Y-98106895D01*
X160847315Y-98493943D02*
X161118248Y-98493943D01*
X161234362Y-98919695D02*
X160847315Y-98919695D01*
X160847315Y-98106895D01*
X161234362Y-98106895D01*
X161582705Y-98919695D02*
X161582705Y-98106895D01*
X161776229Y-98106895D01*
X161892343Y-98145600D01*
X161969752Y-98223010D01*
X162008457Y-98300419D01*
X162047162Y-98455238D01*
X162047162Y-98571352D01*
X162008457Y-98726171D01*
X161969752Y-98803581D01*
X161892343Y-98880990D01*
X161776229Y-98919695D01*
X161582705Y-98919695D01*
X162821257Y-98919695D02*
X162356800Y-98919695D01*
X162589029Y-98919695D02*
X162589029Y-98106895D01*
X162511619Y-98223010D01*
X162434210Y-98300419D01*
X162356800Y-98339124D01*
X154209448Y-88759695D02*
X154209448Y-87946895D01*
X154480381Y-88527467D01*
X154751314Y-87946895D01*
X154751314Y-88759695D01*
X155293181Y-87946895D02*
X155448000Y-87946895D01*
X155525409Y-87985600D01*
X155602819Y-88063010D01*
X155641524Y-88217829D01*
X155641524Y-88488762D01*
X155602819Y-88643581D01*
X155525409Y-88720990D01*
X155448000Y-88759695D01*
X155293181Y-88759695D01*
X155215771Y-88720990D01*
X155138362Y-88643581D01*
X155099657Y-88488762D01*
X155099657Y-88217829D01*
X155138362Y-88063010D01*
X155215771Y-87985600D01*
X155293181Y-87946895D01*
X156454324Y-88759695D02*
X156183391Y-88372648D01*
X155989867Y-88759695D02*
X155989867Y-87946895D01*
X156299505Y-87946895D01*
X156376914Y-87985600D01*
X156415619Y-88024305D01*
X156454324Y-88101714D01*
X156454324Y-88217829D01*
X156415619Y-88295238D01*
X156376914Y-88333943D01*
X156299505Y-88372648D01*
X155989867Y-88372648D01*
X156957486Y-87946895D02*
X157112305Y-87946895D01*
X157189714Y-87985600D01*
X157267124Y-88063010D01*
X157305829Y-88217829D01*
X157305829Y-88488762D01*
X157267124Y-88643581D01*
X157189714Y-88720990D01*
X157112305Y-88759695D01*
X156957486Y-88759695D01*
X156880076Y-88720990D01*
X156802667Y-88643581D01*
X156763962Y-88488762D01*
X156763962Y-88217829D01*
X156802667Y-88063010D01*
X156880076Y-87985600D01*
X156957486Y-87946895D01*
X157615467Y-88720990D02*
X157731581Y-88759695D01*
X157925105Y-88759695D01*
X158002515Y-88720990D01*
X158041219Y-88682286D01*
X158079924Y-88604876D01*
X158079924Y-88527467D01*
X158041219Y-88450057D01*
X158002515Y-88411352D01*
X157925105Y-88372648D01*
X157770286Y-88333943D01*
X157692877Y-88295238D01*
X157654172Y-88256533D01*
X157615467Y-88179124D01*
X157615467Y-88101714D01*
X157654172Y-88024305D01*
X157692877Y-87985600D01*
X157770286Y-87946895D01*
X157963810Y-87946895D01*
X158079924Y-87985600D01*
X158234743Y-88837105D02*
X158854019Y-88837105D01*
X159202362Y-87946895D02*
X159357181Y-87946895D01*
X159434590Y-87985600D01*
X159512000Y-88063010D01*
X159550705Y-88217829D01*
X159550705Y-88488762D01*
X159512000Y-88643581D01*
X159434590Y-88720990D01*
X159357181Y-88759695D01*
X159202362Y-88759695D01*
X159124952Y-88720990D01*
X159047543Y-88643581D01*
X159008838Y-88488762D01*
X159008838Y-88217829D01*
X159047543Y-88063010D01*
X159124952Y-87985600D01*
X159202362Y-87946895D01*
X160286095Y-88759695D02*
X159899048Y-88759695D01*
X159899048Y-87946895D01*
X160557029Y-88333943D02*
X160827962Y-88333943D01*
X160944076Y-88759695D02*
X160557029Y-88759695D01*
X160557029Y-87946895D01*
X160944076Y-87946895D01*
X161292419Y-88759695D02*
X161292419Y-87946895D01*
X161485943Y-87946895D01*
X161602057Y-87985600D01*
X161679466Y-88063010D01*
X161718171Y-88140419D01*
X161756876Y-88295238D01*
X161756876Y-88411352D01*
X161718171Y-88566171D01*
X161679466Y-88643581D01*
X161602057Y-88720990D01*
X161485943Y-88759695D01*
X161292419Y-88759695D01*
X161911695Y-88837105D02*
X162530971Y-88837105D01*
X162724495Y-88759695D02*
X162724495Y-87946895D01*
X162724495Y-88333943D02*
X163188952Y-88333943D01*
X163188952Y-88759695D02*
X163188952Y-87946895D01*
X163576000Y-88759695D02*
X163576000Y-87946895D01*
X163769524Y-87946895D01*
X163885638Y-87985600D01*
X163963047Y-88063010D01*
X164001752Y-88140419D01*
X164040457Y-88295238D01*
X164040457Y-88411352D01*
X164001752Y-88566171D01*
X163963047Y-88643581D01*
X163885638Y-88720990D01*
X163769524Y-88759695D01*
X163576000Y-88759695D01*
X164853257Y-88759695D02*
X164582324Y-88372648D01*
X164388800Y-88759695D02*
X164388800Y-87946895D01*
X164698438Y-87946895D01*
X164775847Y-87985600D01*
X164814552Y-88024305D01*
X164853257Y-88101714D01*
X164853257Y-88217829D01*
X164814552Y-88295238D01*
X164775847Y-88333943D01*
X164698438Y-88372648D01*
X164388800Y-88372648D01*
X181641448Y-98919695D02*
X181641448Y-98106895D01*
X181641448Y-98493943D02*
X182105905Y-98493943D01*
X182105905Y-98919695D02*
X182105905Y-98106895D01*
X182492953Y-98919695D02*
X182492953Y-98106895D01*
X182686477Y-98106895D01*
X182802591Y-98145600D01*
X182880000Y-98223010D01*
X182918705Y-98300419D01*
X182957410Y-98455238D01*
X182957410Y-98571352D01*
X182918705Y-98726171D01*
X182880000Y-98803581D01*
X182802591Y-98880990D01*
X182686477Y-98919695D01*
X182492953Y-98919695D01*
X183770210Y-98919695D02*
X183499277Y-98532648D01*
X183305753Y-98919695D02*
X183305753Y-98106895D01*
X183615391Y-98106895D01*
X183692800Y-98145600D01*
X183731505Y-98184305D01*
X183770210Y-98261714D01*
X183770210Y-98377829D01*
X183731505Y-98455238D01*
X183692800Y-98493943D01*
X183615391Y-98532648D01*
X183305753Y-98532648D01*
X183925029Y-98997105D02*
X184544305Y-98997105D01*
X184892648Y-98106895D02*
X185047467Y-98106895D01*
X185124876Y-98145600D01*
X185202286Y-98223010D01*
X185240991Y-98377829D01*
X185240991Y-98648762D01*
X185202286Y-98803581D01*
X185124876Y-98880990D01*
X185047467Y-98919695D01*
X184892648Y-98919695D01*
X184815238Y-98880990D01*
X184737829Y-98803581D01*
X184699124Y-98648762D01*
X184699124Y-98377829D01*
X184737829Y-98223010D01*
X184815238Y-98145600D01*
X184892648Y-98106895D01*
X185976381Y-98919695D02*
X185589334Y-98919695D01*
X185589334Y-98106895D01*
X186247315Y-98493943D02*
X186518248Y-98493943D01*
X186634362Y-98919695D02*
X186247315Y-98919695D01*
X186247315Y-98106895D01*
X186634362Y-98106895D01*
X186982705Y-98919695D02*
X186982705Y-98106895D01*
X187176229Y-98106895D01*
X187292343Y-98145600D01*
X187369752Y-98223010D01*
X187408457Y-98300419D01*
X187447162Y-98455238D01*
X187447162Y-98571352D01*
X187408457Y-98726171D01*
X187369752Y-98803581D01*
X187292343Y-98880990D01*
X187176229Y-98919695D01*
X186982705Y-98919695D01*
X187756800Y-98184305D02*
X187795505Y-98145600D01*
X187872914Y-98106895D01*
X188066438Y-98106895D01*
X188143848Y-98145600D01*
X188182552Y-98184305D01*
X188221257Y-98261714D01*
X188221257Y-98339124D01*
X188182552Y-98455238D01*
X187718095Y-98919695D01*
X188221257Y-98919695D01*
X179609448Y-88759695D02*
X179609448Y-87946895D01*
X179880381Y-88527467D01*
X180151314Y-87946895D01*
X180151314Y-88759695D01*
X180693181Y-87946895D02*
X180848000Y-87946895D01*
X180925409Y-87985600D01*
X181002819Y-88063010D01*
X181041524Y-88217829D01*
X181041524Y-88488762D01*
X181002819Y-88643581D01*
X180925409Y-88720990D01*
X180848000Y-88759695D01*
X180693181Y-88759695D01*
X180615771Y-88720990D01*
X180538362Y-88643581D01*
X180499657Y-88488762D01*
X180499657Y-88217829D01*
X180538362Y-88063010D01*
X180615771Y-87985600D01*
X180693181Y-87946895D01*
X181854324Y-88759695D02*
X181583391Y-88372648D01*
X181389867Y-88759695D02*
X181389867Y-87946895D01*
X181699505Y-87946895D01*
X181776914Y-87985600D01*
X181815619Y-88024305D01*
X181854324Y-88101714D01*
X181854324Y-88217829D01*
X181815619Y-88295238D01*
X181776914Y-88333943D01*
X181699505Y-88372648D01*
X181389867Y-88372648D01*
X182357486Y-87946895D02*
X182512305Y-87946895D01*
X182589714Y-87985600D01*
X182667124Y-88063010D01*
X182705829Y-88217829D01*
X182705829Y-88488762D01*
X182667124Y-88643581D01*
X182589714Y-88720990D01*
X182512305Y-88759695D01*
X182357486Y-88759695D01*
X182280076Y-88720990D01*
X182202667Y-88643581D01*
X182163962Y-88488762D01*
X182163962Y-88217829D01*
X182202667Y-88063010D01*
X182280076Y-87985600D01*
X182357486Y-87946895D01*
X183015467Y-88720990D02*
X183131581Y-88759695D01*
X183325105Y-88759695D01*
X183402515Y-88720990D01*
X183441219Y-88682286D01*
X183479924Y-88604876D01*
X183479924Y-88527467D01*
X183441219Y-88450057D01*
X183402515Y-88411352D01*
X183325105Y-88372648D01*
X183170286Y-88333943D01*
X183092877Y-88295238D01*
X183054172Y-88256533D01*
X183015467Y-88179124D01*
X183015467Y-88101714D01*
X183054172Y-88024305D01*
X183092877Y-87985600D01*
X183170286Y-87946895D01*
X183363810Y-87946895D01*
X183479924Y-87985600D01*
X183634743Y-88837105D02*
X184254019Y-88837105D01*
X184602362Y-87946895D02*
X184757181Y-87946895D01*
X184834590Y-87985600D01*
X184912000Y-88063010D01*
X184950705Y-88217829D01*
X184950705Y-88488762D01*
X184912000Y-88643581D01*
X184834590Y-88720990D01*
X184757181Y-88759695D01*
X184602362Y-88759695D01*
X184524952Y-88720990D01*
X184447543Y-88643581D01*
X184408838Y-88488762D01*
X184408838Y-88217829D01*
X184447543Y-88063010D01*
X184524952Y-87985600D01*
X184602362Y-87946895D01*
X185686095Y-88759695D02*
X185299048Y-88759695D01*
X185299048Y-87946895D01*
X185957029Y-88333943D02*
X186227962Y-88333943D01*
X186344076Y-88759695D02*
X185957029Y-88759695D01*
X185957029Y-87946895D01*
X186344076Y-87946895D01*
X186692419Y-88759695D02*
X186692419Y-87946895D01*
X186885943Y-87946895D01*
X187002057Y-87985600D01*
X187079466Y-88063010D01*
X187118171Y-88140419D01*
X187156876Y-88295238D01*
X187156876Y-88411352D01*
X187118171Y-88566171D01*
X187079466Y-88643581D01*
X187002057Y-88720990D01*
X186885943Y-88759695D01*
X186692419Y-88759695D01*
X187311695Y-88837105D02*
X187930971Y-88837105D01*
X188124495Y-88759695D02*
X188124495Y-87946895D01*
X188124495Y-88333943D02*
X188588952Y-88333943D01*
X188588952Y-88759695D02*
X188588952Y-87946895D01*
X188976000Y-88759695D02*
X188976000Y-87946895D01*
X189169524Y-87946895D01*
X189285638Y-87985600D01*
X189363047Y-88063010D01*
X189401752Y-88140419D01*
X189440457Y-88295238D01*
X189440457Y-88411352D01*
X189401752Y-88566171D01*
X189363047Y-88643581D01*
X189285638Y-88720990D01*
X189169524Y-88759695D01*
X188976000Y-88759695D01*
X190253257Y-88759695D02*
X189982324Y-88372648D01*
X189788800Y-88759695D02*
X189788800Y-87946895D01*
X190098438Y-87946895D01*
X190175847Y-87985600D01*
X190214552Y-88024305D01*
X190253257Y-88101714D01*
X190253257Y-88217829D01*
X190214552Y-88295238D01*
X190175847Y-88333943D01*
X190098438Y-88372648D01*
X189788800Y-88372648D01*
D12*
X152741334Y-98242381D02*
X152408000Y-97766190D01*
X152169905Y-98242381D02*
X152169905Y-97242381D01*
X152550858Y-97242381D01*
X152646096Y-97290000D01*
X152693715Y-97337619D01*
X152741334Y-97432857D01*
X152741334Y-97575714D01*
X152693715Y-97670952D01*
X152646096Y-97718571D01*
X152550858Y-97766190D01*
X152169905Y-97766190D01*
X153693715Y-98242381D02*
X153122286Y-98242381D01*
X153408000Y-98242381D02*
X153408000Y-97242381D01*
X153312762Y-97385238D01*
X153217524Y-97480476D01*
X153122286Y-97528095D01*
X156297334Y-103322381D02*
X155964000Y-102846190D01*
X155725905Y-103322381D02*
X155725905Y-102322381D01*
X156106858Y-102322381D01*
X156202096Y-102370000D01*
X156249715Y-102417619D01*
X156297334Y-102512857D01*
X156297334Y-102655714D01*
X156249715Y-102750952D01*
X156202096Y-102798571D01*
X156106858Y-102846190D01*
X155725905Y-102846190D01*
X156678286Y-102417619D02*
X156725905Y-102370000D01*
X156821143Y-102322381D01*
X157059239Y-102322381D01*
X157154477Y-102370000D01*
X157202096Y-102417619D01*
X157249715Y-102512857D01*
X157249715Y-102608095D01*
X157202096Y-102750952D01*
X156630667Y-103322381D01*
X157249715Y-103322381D01*
X179665334Y-97480381D02*
X179332000Y-97004190D01*
X179093905Y-97480381D02*
X179093905Y-96480381D01*
X179474858Y-96480381D01*
X179570096Y-96528000D01*
X179617715Y-96575619D01*
X179665334Y-96670857D01*
X179665334Y-96813714D01*
X179617715Y-96908952D01*
X179570096Y-96956571D01*
X179474858Y-97004190D01*
X179093905Y-97004190D01*
X179998667Y-96480381D02*
X180617715Y-96480381D01*
X180284381Y-96861333D01*
X180427239Y-96861333D01*
X180522477Y-96908952D01*
X180570096Y-96956571D01*
X180617715Y-97051810D01*
X180617715Y-97289905D01*
X180570096Y-97385143D01*
X180522477Y-97432762D01*
X180427239Y-97480381D01*
X180141524Y-97480381D01*
X180046286Y-97432762D01*
X179998667Y-97385143D01*
M02*
