M48
;DRILL file {kicad 0.201412191901+5326~19~ubuntu14.04.1-product} date Mon 22 Dec 2014 04:55:39 PM PST
;FORMAT={2:4/ absolute / inch / keep zeros}
FMAT,2
INCH,TZ
T1C0.025
T2C0.031
T3C0.032
T4C0.040
%
G90
G05
M72
T1
X068000Y-036300
X068500Y-037800
T2
X059843Y-034647
X059843Y-040946
X060843Y-034647
X060843Y-040946
X061843Y-034647
X061843Y-040946
X062843Y-034647
X062843Y-040946
X063843Y-034647
X063843Y-040946
X064843Y-034647
X064843Y-040946
X065843Y-034647
X065843Y-040946
X066843Y-034647
X066843Y-040946
X067843Y-034647
X067843Y-040946
X068843Y-034647
X068843Y-040946
X069843Y-034647
X069843Y-040946
X070843Y-034647
X070843Y-040946
X071843Y-034647
X071843Y-040946
X072843Y-034647
X072843Y-040946
X073843Y-034647
X073843Y-040946
X074843Y-034647
X074843Y-040946
X075843Y-034647
X075843Y-040946
T3
X059300Y-039500
X060300Y-039500
X061500Y-039500
X062500Y-039500
X069900Y-039200
X070900Y-039200
T4
X060800Y-036300
X060800Y-037300
X061800Y-036300
X061800Y-037300
X062800Y-036300
X062800Y-037300
X063500Y-039200
X063800Y-036300
X063800Y-037300
X064500Y-039200
X064800Y-036300
X064800Y-037300
X065500Y-039200
X066500Y-039200
X067500Y-039200
X068500Y-039200
X070800Y-036300
X070800Y-037300
X071800Y-036300
X071800Y-037300
X072800Y-036300
X072800Y-037300
X073800Y-036300
X073800Y-037300
X074800Y-036300
X074800Y-037300
T0
M30
