G04 #@! TF.FileFunction,Copper,L1,Top,Signal*
%FSLAX46Y46*%
G04 Gerber Fmt 4.6, Leading zero omitted, Abs format (unit mm)*
G04 Created by KiCad (PCBNEW 0.201412191901+5326~19~ubuntu14.04.1-product) date Mon 22 Dec 2014 04:55:03 PM PST*
%MOMM*%
G01*
G04 APERTURE LIST*
%ADD10C,0.100000*%
%ADD11R,1.676400X1.676400*%
%ADD12C,1.676400*%
%ADD13C,1.397000*%
%ADD14C,1.200000*%
%ADD15C,0.889000*%
%ADD16C,0.254000*%
G04 APERTURE END LIST*
D10*
D11*
X161290000Y-99568000D03*
D12*
X163830000Y-99568000D03*
X166370000Y-99568000D03*
X168910000Y-99568000D03*
X171450000Y-99568000D03*
X173990000Y-99568000D03*
X154432000Y-94742000D03*
X154432000Y-92202000D03*
X156972000Y-94742000D03*
X156972000Y-92202000D03*
X159512000Y-94742000D03*
X159512000Y-92202000D03*
X162052000Y-94742000D03*
X162052000Y-92202000D03*
X164592000Y-94742000D03*
X164592000Y-92202000D03*
X179832000Y-94742000D03*
X179832000Y-92202000D03*
X182372000Y-94742000D03*
X182372000Y-92202000D03*
X184912000Y-94742000D03*
X184912000Y-92202000D03*
X187452000Y-94742000D03*
X187452000Y-92202000D03*
X189992000Y-94742000D03*
X189992000Y-92202000D03*
D13*
X153162000Y-100330000D03*
X150622000Y-100330000D03*
X156210000Y-100330000D03*
X158750000Y-100330000D03*
X180086000Y-99568000D03*
X177546000Y-99568000D03*
D14*
X152001100Y-88003600D03*
X154541100Y-88003600D03*
X157081100Y-88003600D03*
X159621100Y-88003600D03*
X162161100Y-88003600D03*
X164701100Y-88003600D03*
X167241100Y-88003600D03*
X169781100Y-88003600D03*
X172321100Y-88003600D03*
X174861100Y-88003600D03*
X177401100Y-88003600D03*
X179941100Y-88003600D03*
X182481100Y-88003600D03*
X185021100Y-88003600D03*
X187561100Y-88003600D03*
X190101100Y-88003600D03*
X192641100Y-88003600D03*
X152001100Y-104003600D03*
X154541100Y-104003600D03*
X157081100Y-104003600D03*
X159621100Y-104003600D03*
X162161100Y-104003600D03*
X164701100Y-104003600D03*
X167241100Y-104003600D03*
X169781100Y-104003600D03*
X172321100Y-104003600D03*
X174861100Y-104003600D03*
X177401100Y-104003600D03*
X179941100Y-104003600D03*
X182481100Y-104003600D03*
X185021100Y-104003600D03*
X187561100Y-104003600D03*
X190101100Y-104003600D03*
X192641100Y-104003600D03*
D15*
X173990000Y-96012000D03*
X172720000Y-92202000D03*
D16*
X167241100Y-101709100D02*
X167132000Y-101600000D01*
X167132000Y-101600000D02*
X163322000Y-101600000D01*
X163322000Y-101600000D02*
X161290000Y-99568000D01*
X167241100Y-104003600D02*
X167241100Y-101709100D01*
X160528000Y-100330000D02*
X161290000Y-99568000D01*
X158750000Y-100330000D02*
X160528000Y-100330000D01*
X169781100Y-102979100D02*
X166370000Y-99568000D01*
X169781100Y-104003600D02*
X169781100Y-102979100D01*
X153162000Y-98552000D02*
X153670000Y-98044000D01*
X153670000Y-98044000D02*
X164846000Y-98044000D01*
X164846000Y-98044000D02*
X166370000Y-99568000D01*
X153162000Y-100330000D02*
X153162000Y-98552000D01*
X180086000Y-101600000D02*
X171450000Y-101600000D01*
X171450000Y-101600000D02*
X171450000Y-99568000D01*
X180086000Y-99568000D02*
X180086000Y-101600000D01*
X171450000Y-103132500D02*
X172321100Y-104003600D01*
X171450000Y-101600000D02*
X171450000Y-103132500D01*
X154432000Y-96520000D02*
X152654000Y-96520000D01*
X152654000Y-96520000D02*
X152654000Y-89662000D01*
X152654000Y-89662000D02*
X164592000Y-89662000D01*
X164592000Y-89662000D02*
X164701100Y-89552900D01*
X164701100Y-89552900D02*
X164701100Y-88003600D01*
X154432000Y-94742000D02*
X154432000Y-96520000D01*
X173990000Y-89662000D02*
X174244000Y-89916000D01*
X174244000Y-89916000D02*
X174244000Y-94488000D01*
X174244000Y-94488000D02*
X174498000Y-94742000D01*
X174498000Y-94742000D02*
X179832000Y-94742000D01*
X164592000Y-89662000D02*
X173990000Y-89662000D01*
X154432000Y-90424000D02*
X172720000Y-90424000D01*
X154432000Y-90424000D02*
X154432000Y-92202000D01*
X172720000Y-90424000D02*
X172720000Y-92202000D01*
X150622000Y-102362000D02*
X150876000Y-102616000D01*
X150876000Y-102616000D02*
X153924000Y-102616000D01*
X153924000Y-102616000D02*
X156210000Y-100330000D01*
X150622000Y-100330000D02*
X150622000Y-102362000D01*
X164701100Y-102725100D02*
X164338000Y-102362000D01*
X164338000Y-102362000D02*
X158242000Y-102362000D01*
X158242000Y-102362000D02*
X156210000Y-100330000D01*
X164701100Y-104003600D02*
X164701100Y-102725100D01*
X173990000Y-96012000D02*
X172720000Y-94742000D01*
X172720000Y-94742000D02*
X172720000Y-92202000D01*
X162052000Y-97282000D02*
X151892000Y-97282000D01*
X187452000Y-97282000D02*
X162052000Y-97282000D01*
X151892000Y-97282000D02*
X152001100Y-97172900D01*
X152001100Y-97172900D02*
X152001100Y-88003600D01*
X187452000Y-94742000D02*
X187452000Y-97282000D01*
X162052000Y-94742000D02*
X162052000Y-97282000D01*
X182481100Y-102217100D02*
X182590200Y-102108000D01*
X182590200Y-102108000D02*
X193040000Y-102108000D01*
X193040000Y-102108000D02*
X193548000Y-101600000D01*
X193548000Y-101600000D02*
X193548000Y-90424000D01*
X193548000Y-90424000D02*
X187452000Y-90424000D01*
X187452000Y-90424000D02*
X187452000Y-92202000D01*
X182481100Y-104003600D02*
X182481100Y-102217100D01*
G36*
X161310905Y-88900000D02*
X160296835Y-88900000D01*
X160304230Y-88866335D01*
X159621100Y-88183205D01*
X158937970Y-88866335D01*
X158945364Y-88900000D01*
X157931213Y-88900000D01*
X158127471Y-88704085D01*
X158315885Y-88250334D01*
X158316314Y-87759021D01*
X158231187Y-87553000D01*
X158470055Y-87553000D01*
X158373293Y-87834636D01*
X158403618Y-88325013D01*
X158532936Y-88637217D01*
X158758365Y-88686730D01*
X159441495Y-88003600D01*
X159427352Y-87989457D01*
X159606957Y-87809852D01*
X159621100Y-87823995D01*
X159635242Y-87809852D01*
X159814847Y-87989457D01*
X159800705Y-88003600D01*
X160483835Y-88686730D01*
X160709264Y-88637217D01*
X160868907Y-88172564D01*
X160838582Y-87682187D01*
X160785071Y-87553000D01*
X161010967Y-87553000D01*
X160926315Y-87756866D01*
X160925886Y-88248179D01*
X161113508Y-88702257D01*
X161310905Y-88900000D01*
X161310905Y-88900000D01*
G37*
X161310905Y-88900000D02*
X160296835Y-88900000D01*
X160304230Y-88866335D01*
X159621100Y-88183205D01*
X158937970Y-88866335D01*
X158945364Y-88900000D01*
X157931213Y-88900000D01*
X158127471Y-88704085D01*
X158315885Y-88250334D01*
X158316314Y-87759021D01*
X158231187Y-87553000D01*
X158470055Y-87553000D01*
X158373293Y-87834636D01*
X158403618Y-88325013D01*
X158532936Y-88637217D01*
X158758365Y-88686730D01*
X159441495Y-88003600D01*
X159427352Y-87989457D01*
X159606957Y-87809852D01*
X159621100Y-87823995D01*
X159635242Y-87809852D01*
X159814847Y-87989457D01*
X159800705Y-88003600D01*
X160483835Y-88686730D01*
X160709264Y-88637217D01*
X160868907Y-88172564D01*
X160838582Y-87682187D01*
X160785071Y-87553000D01*
X161010967Y-87553000D01*
X160926315Y-87756866D01*
X160925886Y-88248179D01*
X161113508Y-88702257D01*
X161310905Y-88900000D01*
G36*
X166479100Y-103019240D02*
X166194729Y-103303115D01*
X166006315Y-103756866D01*
X166005886Y-104248179D01*
X166097954Y-104471000D01*
X165846371Y-104471000D01*
X165948907Y-104172564D01*
X165918582Y-103682187D01*
X165789264Y-103369983D01*
X165563835Y-103320470D01*
X165384230Y-103500075D01*
X165384230Y-103140865D01*
X165334717Y-102915436D01*
X164870064Y-102755793D01*
X164379687Y-102786118D01*
X164067483Y-102915436D01*
X164017970Y-103140865D01*
X164701100Y-103823995D01*
X165384230Y-103140865D01*
X165384230Y-103500075D01*
X164880705Y-104003600D01*
X164894847Y-104017742D01*
X164715242Y-104197347D01*
X164701100Y-104183205D01*
X164686957Y-104197347D01*
X164507352Y-104017742D01*
X164521495Y-104003600D01*
X163838365Y-103320470D01*
X163612936Y-103369983D01*
X163453293Y-103834636D01*
X163483618Y-104325013D01*
X163544087Y-104471000D01*
X163304256Y-104471000D01*
X163395885Y-104250334D01*
X163396314Y-103759021D01*
X163208692Y-103304943D01*
X162861585Y-102957229D01*
X162407834Y-102768815D01*
X161916521Y-102768386D01*
X161462443Y-102956008D01*
X161114729Y-103303115D01*
X160926315Y-103756866D01*
X160925886Y-104248179D01*
X161017954Y-104471000D01*
X160764256Y-104471000D01*
X160855885Y-104250334D01*
X160856314Y-103759021D01*
X160668692Y-103304943D01*
X160321585Y-102957229D01*
X159867834Y-102768815D01*
X159376521Y-102768386D01*
X158922443Y-102956008D01*
X158574729Y-103303115D01*
X158386315Y-103756866D01*
X158385886Y-104248179D01*
X158477954Y-104471000D01*
X158224256Y-104471000D01*
X158315885Y-104250334D01*
X158316314Y-103759021D01*
X158128692Y-103304943D01*
X157781585Y-102957229D01*
X157327834Y-102768815D01*
X156964583Y-102768497D01*
X156964583Y-101264188D01*
X156210000Y-100509605D01*
X156030395Y-100689210D01*
X156030395Y-100330000D01*
X155275812Y-99575417D01*
X155040200Y-99637071D01*
X154864073Y-100137480D01*
X154892852Y-100667199D01*
X155040200Y-101022929D01*
X155275812Y-101084583D01*
X156030395Y-100330000D01*
X156030395Y-100689210D01*
X155455417Y-101264188D01*
X155517071Y-101499800D01*
X156017480Y-101675927D01*
X156547199Y-101647148D01*
X156902929Y-101499800D01*
X156964583Y-101264188D01*
X156964583Y-102768497D01*
X156836521Y-102768386D01*
X156382443Y-102956008D01*
X156034729Y-103303115D01*
X155846315Y-103756866D01*
X155845886Y-104248179D01*
X155937954Y-104471000D01*
X155684256Y-104471000D01*
X155775885Y-104250334D01*
X155776314Y-103759021D01*
X155588692Y-103304943D01*
X155241585Y-102957229D01*
X154787834Y-102768815D01*
X154296521Y-102768386D01*
X153842443Y-102956008D01*
X153494729Y-103303115D01*
X153306315Y-103756866D01*
X153305886Y-104248179D01*
X153397954Y-104471000D01*
X153144256Y-104471000D01*
X153235885Y-104250334D01*
X153236314Y-103759021D01*
X153048692Y-103304943D01*
X152701585Y-102957229D01*
X152247834Y-102768815D01*
X151756521Y-102768386D01*
X151376583Y-102925373D01*
X151376583Y-101264188D01*
X150622000Y-100509605D01*
X150442395Y-100689210D01*
X150442395Y-100330000D01*
X149687812Y-99575417D01*
X149452200Y-99637071D01*
X149276073Y-100137480D01*
X149304852Y-100667199D01*
X149452200Y-101022929D01*
X149687812Y-101084583D01*
X150442395Y-100330000D01*
X150442395Y-100689210D01*
X149867417Y-101264188D01*
X149929071Y-101499800D01*
X150429480Y-101675927D01*
X150959199Y-101647148D01*
X151314929Y-101499800D01*
X151376583Y-101264188D01*
X151376583Y-102925373D01*
X151302443Y-102956008D01*
X150954729Y-103303115D01*
X150766315Y-103756866D01*
X150765886Y-104248179D01*
X150857954Y-104471000D01*
X149021000Y-104471000D01*
X149021000Y-87553000D01*
X150850967Y-87553000D01*
X150766315Y-87756866D01*
X150765886Y-88248179D01*
X150953508Y-88702257D01*
X151239100Y-88988348D01*
X151239100Y-96913924D01*
X151188004Y-96990395D01*
X151130000Y-97282000D01*
X151188004Y-97573605D01*
X151353185Y-97820815D01*
X151600395Y-97985996D01*
X151600396Y-97985996D01*
X151892000Y-98044000D01*
X152602595Y-98044000D01*
X152458004Y-98260395D01*
X152400000Y-98552000D01*
X152400000Y-99206460D01*
X152032173Y-99573647D01*
X151898686Y-99895118D01*
X151791800Y-99637071D01*
X151556188Y-99575417D01*
X151376583Y-99755022D01*
X151376583Y-99395812D01*
X151314929Y-99160200D01*
X150814520Y-98984073D01*
X150284801Y-99012852D01*
X149929071Y-99160200D01*
X149867417Y-99395812D01*
X150622000Y-100150395D01*
X151376583Y-99395812D01*
X151376583Y-99755022D01*
X150801605Y-100330000D01*
X151556188Y-101084583D01*
X151791800Y-101022929D01*
X151890083Y-100743688D01*
X152030854Y-101084380D01*
X152405647Y-101459827D01*
X152895587Y-101663268D01*
X153426086Y-101663731D01*
X153916380Y-101461146D01*
X154291827Y-101086353D01*
X154495268Y-100596413D01*
X154495731Y-100065914D01*
X154293146Y-99575620D01*
X153924000Y-99205829D01*
X153924000Y-98867630D01*
X153985630Y-98806000D01*
X159804360Y-98806000D01*
X159804360Y-99498700D01*
X159506353Y-99200173D01*
X159016413Y-98996732D01*
X158485914Y-98996269D01*
X157995620Y-99198854D01*
X157620173Y-99573647D01*
X157486686Y-99895118D01*
X157379800Y-99637071D01*
X157144188Y-99575417D01*
X156964583Y-99755022D01*
X156964583Y-99395812D01*
X156902929Y-99160200D01*
X156402520Y-98984073D01*
X155872801Y-99012852D01*
X155517071Y-99160200D01*
X155455417Y-99395812D01*
X156210000Y-100150395D01*
X156964583Y-99395812D01*
X156964583Y-99755022D01*
X156389605Y-100330000D01*
X157144188Y-101084583D01*
X157379800Y-101022929D01*
X157478083Y-100743688D01*
X157618854Y-101084380D01*
X157993647Y-101459827D01*
X158483587Y-101663268D01*
X159014086Y-101663731D01*
X159504380Y-101461146D01*
X159874170Y-101092000D01*
X160528000Y-101092000D01*
X160528000Y-101091999D01*
X160720845Y-101053640D01*
X160720848Y-101053640D01*
X161698010Y-101053640D01*
X162783185Y-102138815D01*
X163030395Y-102303996D01*
X163030396Y-102303996D01*
X163322000Y-102362000D01*
X166479100Y-102362000D01*
X166479100Y-103019240D01*
X166479100Y-103019240D01*
G37*
X166479100Y-103019240D02*
X166194729Y-103303115D01*
X166006315Y-103756866D01*
X166005886Y-104248179D01*
X166097954Y-104471000D01*
X165846371Y-104471000D01*
X165948907Y-104172564D01*
X165918582Y-103682187D01*
X165789264Y-103369983D01*
X165563835Y-103320470D01*
X165384230Y-103500075D01*
X165384230Y-103140865D01*
X165334717Y-102915436D01*
X164870064Y-102755793D01*
X164379687Y-102786118D01*
X164067483Y-102915436D01*
X164017970Y-103140865D01*
X164701100Y-103823995D01*
X165384230Y-103140865D01*
X165384230Y-103500075D01*
X164880705Y-104003600D01*
X164894847Y-104017742D01*
X164715242Y-104197347D01*
X164701100Y-104183205D01*
X164686957Y-104197347D01*
X164507352Y-104017742D01*
X164521495Y-104003600D01*
X163838365Y-103320470D01*
X163612936Y-103369983D01*
X163453293Y-103834636D01*
X163483618Y-104325013D01*
X163544087Y-104471000D01*
X163304256Y-104471000D01*
X163395885Y-104250334D01*
X163396314Y-103759021D01*
X163208692Y-103304943D01*
X162861585Y-102957229D01*
X162407834Y-102768815D01*
X161916521Y-102768386D01*
X161462443Y-102956008D01*
X161114729Y-103303115D01*
X160926315Y-103756866D01*
X160925886Y-104248179D01*
X161017954Y-104471000D01*
X160764256Y-104471000D01*
X160855885Y-104250334D01*
X160856314Y-103759021D01*
X160668692Y-103304943D01*
X160321585Y-102957229D01*
X159867834Y-102768815D01*
X159376521Y-102768386D01*
X158922443Y-102956008D01*
X158574729Y-103303115D01*
X158386315Y-103756866D01*
X158385886Y-104248179D01*
X158477954Y-104471000D01*
X158224256Y-104471000D01*
X158315885Y-104250334D01*
X158316314Y-103759021D01*
X158128692Y-103304943D01*
X157781585Y-102957229D01*
X157327834Y-102768815D01*
X156964583Y-102768497D01*
X156964583Y-101264188D01*
X156210000Y-100509605D01*
X156030395Y-100689210D01*
X156030395Y-100330000D01*
X155275812Y-99575417D01*
X155040200Y-99637071D01*
X154864073Y-100137480D01*
X154892852Y-100667199D01*
X155040200Y-101022929D01*
X155275812Y-101084583D01*
X156030395Y-100330000D01*
X156030395Y-100689210D01*
X155455417Y-101264188D01*
X155517071Y-101499800D01*
X156017480Y-101675927D01*
X156547199Y-101647148D01*
X156902929Y-101499800D01*
X156964583Y-101264188D01*
X156964583Y-102768497D01*
X156836521Y-102768386D01*
X156382443Y-102956008D01*
X156034729Y-103303115D01*
X155846315Y-103756866D01*
X155845886Y-104248179D01*
X155937954Y-104471000D01*
X155684256Y-104471000D01*
X155775885Y-104250334D01*
X155776314Y-103759021D01*
X155588692Y-103304943D01*
X155241585Y-102957229D01*
X154787834Y-102768815D01*
X154296521Y-102768386D01*
X153842443Y-102956008D01*
X153494729Y-103303115D01*
X153306315Y-103756866D01*
X153305886Y-104248179D01*
X153397954Y-104471000D01*
X153144256Y-104471000D01*
X153235885Y-104250334D01*
X153236314Y-103759021D01*
X153048692Y-103304943D01*
X152701585Y-102957229D01*
X152247834Y-102768815D01*
X151756521Y-102768386D01*
X151376583Y-102925373D01*
X151376583Y-101264188D01*
X150622000Y-100509605D01*
X150442395Y-100689210D01*
X150442395Y-100330000D01*
X149687812Y-99575417D01*
X149452200Y-99637071D01*
X149276073Y-100137480D01*
X149304852Y-100667199D01*
X149452200Y-101022929D01*
X149687812Y-101084583D01*
X150442395Y-100330000D01*
X150442395Y-100689210D01*
X149867417Y-101264188D01*
X149929071Y-101499800D01*
X150429480Y-101675927D01*
X150959199Y-101647148D01*
X151314929Y-101499800D01*
X151376583Y-101264188D01*
X151376583Y-102925373D01*
X151302443Y-102956008D01*
X150954729Y-103303115D01*
X150766315Y-103756866D01*
X150765886Y-104248179D01*
X150857954Y-104471000D01*
X149021000Y-104471000D01*
X149021000Y-87553000D01*
X150850967Y-87553000D01*
X150766315Y-87756866D01*
X150765886Y-88248179D01*
X150953508Y-88702257D01*
X151239100Y-88988348D01*
X151239100Y-96913924D01*
X151188004Y-96990395D01*
X151130000Y-97282000D01*
X151188004Y-97573605D01*
X151353185Y-97820815D01*
X151600395Y-97985996D01*
X151600396Y-97985996D01*
X151892000Y-98044000D01*
X152602595Y-98044000D01*
X152458004Y-98260395D01*
X152400000Y-98552000D01*
X152400000Y-99206460D01*
X152032173Y-99573647D01*
X151898686Y-99895118D01*
X151791800Y-99637071D01*
X151556188Y-99575417D01*
X151376583Y-99755022D01*
X151376583Y-99395812D01*
X151314929Y-99160200D01*
X150814520Y-98984073D01*
X150284801Y-99012852D01*
X149929071Y-99160200D01*
X149867417Y-99395812D01*
X150622000Y-100150395D01*
X151376583Y-99395812D01*
X151376583Y-99755022D01*
X150801605Y-100330000D01*
X151556188Y-101084583D01*
X151791800Y-101022929D01*
X151890083Y-100743688D01*
X152030854Y-101084380D01*
X152405647Y-101459827D01*
X152895587Y-101663268D01*
X153426086Y-101663731D01*
X153916380Y-101461146D01*
X154291827Y-101086353D01*
X154495268Y-100596413D01*
X154495731Y-100065914D01*
X154293146Y-99575620D01*
X153924000Y-99205829D01*
X153924000Y-98867630D01*
X153985630Y-98806000D01*
X159804360Y-98806000D01*
X159804360Y-99498700D01*
X159506353Y-99200173D01*
X159016413Y-98996732D01*
X158485914Y-98996269D01*
X157995620Y-99198854D01*
X157620173Y-99573647D01*
X157486686Y-99895118D01*
X157379800Y-99637071D01*
X157144188Y-99575417D01*
X156964583Y-99755022D01*
X156964583Y-99395812D01*
X156902929Y-99160200D01*
X156402520Y-98984073D01*
X155872801Y-99012852D01*
X155517071Y-99160200D01*
X155455417Y-99395812D01*
X156210000Y-100150395D01*
X156964583Y-99395812D01*
X156964583Y-99755022D01*
X156389605Y-100330000D01*
X157144188Y-101084583D01*
X157379800Y-101022929D01*
X157478083Y-100743688D01*
X157618854Y-101084380D01*
X157993647Y-101459827D01*
X158483587Y-101663268D01*
X159014086Y-101663731D01*
X159504380Y-101461146D01*
X159874170Y-101092000D01*
X160528000Y-101092000D01*
X160528000Y-101091999D01*
X160720845Y-101053640D01*
X160720848Y-101053640D01*
X161698010Y-101053640D01*
X162783185Y-102138815D01*
X163030395Y-102303996D01*
X163030396Y-102303996D01*
X163322000Y-102362000D01*
X166479100Y-102362000D01*
X166479100Y-103019240D01*
G36*
X186690000Y-96520000D02*
X162814000Y-96520000D01*
X162814000Y-96021153D01*
X162885411Y-95991647D01*
X163300190Y-95577591D01*
X163321775Y-95525608D01*
X163342353Y-95575411D01*
X163756409Y-95990190D01*
X164297677Y-96214944D01*
X164883752Y-96215455D01*
X165425411Y-95991647D01*
X165840190Y-95577591D01*
X166064944Y-95036323D01*
X166065455Y-94450248D01*
X165841647Y-93908589D01*
X165427591Y-93493810D01*
X165375608Y-93472224D01*
X165425411Y-93451647D01*
X165840190Y-93037591D01*
X166064944Y-92496323D01*
X166065455Y-91910248D01*
X165841647Y-91368589D01*
X165427591Y-90953810D01*
X164886323Y-90729056D01*
X164300248Y-90728545D01*
X163758589Y-90952353D01*
X163343810Y-91366409D01*
X163322224Y-91418391D01*
X163301647Y-91368589D01*
X162887591Y-90953810D01*
X162346323Y-90729056D01*
X161760248Y-90728545D01*
X161218589Y-90952353D01*
X160803810Y-91366409D01*
X160782224Y-91418391D01*
X160761647Y-91368589D01*
X160347591Y-90953810D01*
X159806323Y-90729056D01*
X159220248Y-90728545D01*
X158678589Y-90952353D01*
X158263810Y-91366409D01*
X158242224Y-91418391D01*
X158221647Y-91368589D01*
X157807591Y-90953810D01*
X157266323Y-90729056D01*
X156680248Y-90728545D01*
X156138589Y-90952353D01*
X155723810Y-91366409D01*
X155701558Y-91419995D01*
X155467413Y-91346192D01*
X155287808Y-91525797D01*
X154611605Y-92202000D01*
X155467413Y-93057808D01*
X155701163Y-92984129D01*
X155722353Y-93035411D01*
X156136409Y-93450190D01*
X156188391Y-93471775D01*
X156138589Y-93492353D01*
X155723810Y-93906409D01*
X155702224Y-93958391D01*
X155681647Y-93908589D01*
X155267591Y-93493810D01*
X155214004Y-93471558D01*
X155287808Y-93237413D01*
X154432000Y-92381605D01*
X154417857Y-92395747D01*
X154238252Y-92216142D01*
X154252395Y-92202000D01*
X154238252Y-92187857D01*
X154417857Y-92008252D01*
X154432000Y-92022395D01*
X155287808Y-91166587D01*
X155208983Y-90916510D01*
X154657903Y-90717023D01*
X154072431Y-90743611D01*
X153655017Y-90916510D01*
X153576192Y-91166584D01*
X153461445Y-91051837D01*
X153416000Y-91097282D01*
X153416000Y-90424000D01*
X164592000Y-90424000D01*
X173482000Y-90424000D01*
X173482000Y-94488000D01*
X173540004Y-94779605D01*
X173705185Y-95026815D01*
X173959184Y-95280815D01*
X173959185Y-95280815D01*
X174206395Y-95445996D01*
X174498000Y-95504000D01*
X178552846Y-95504000D01*
X178582353Y-95575411D01*
X178996409Y-95990190D01*
X179537677Y-96214944D01*
X180123752Y-96215455D01*
X180665411Y-95991647D01*
X181080190Y-95577591D01*
X181101775Y-95525608D01*
X181122353Y-95575411D01*
X181536409Y-95990190D01*
X182077677Y-96214944D01*
X182663752Y-96215455D01*
X183205411Y-95991647D01*
X183620190Y-95577591D01*
X183641775Y-95525608D01*
X183662353Y-95575411D01*
X184076409Y-95990190D01*
X184617677Y-96214944D01*
X185203752Y-96215455D01*
X185745411Y-95991647D01*
X186160190Y-95577591D01*
X186181775Y-95525608D01*
X186202353Y-95575411D01*
X186616409Y-95990190D01*
X186690000Y-96020747D01*
X186690000Y-96520000D01*
X186690000Y-96520000D01*
G37*
X186690000Y-96520000D02*
X162814000Y-96520000D01*
X162814000Y-96021153D01*
X162885411Y-95991647D01*
X163300190Y-95577591D01*
X163321775Y-95525608D01*
X163342353Y-95575411D01*
X163756409Y-95990190D01*
X164297677Y-96214944D01*
X164883752Y-96215455D01*
X165425411Y-95991647D01*
X165840190Y-95577591D01*
X166064944Y-95036323D01*
X166065455Y-94450248D01*
X165841647Y-93908589D01*
X165427591Y-93493810D01*
X165375608Y-93472224D01*
X165425411Y-93451647D01*
X165840190Y-93037591D01*
X166064944Y-92496323D01*
X166065455Y-91910248D01*
X165841647Y-91368589D01*
X165427591Y-90953810D01*
X164886323Y-90729056D01*
X164300248Y-90728545D01*
X163758589Y-90952353D01*
X163343810Y-91366409D01*
X163322224Y-91418391D01*
X163301647Y-91368589D01*
X162887591Y-90953810D01*
X162346323Y-90729056D01*
X161760248Y-90728545D01*
X161218589Y-90952353D01*
X160803810Y-91366409D01*
X160782224Y-91418391D01*
X160761647Y-91368589D01*
X160347591Y-90953810D01*
X159806323Y-90729056D01*
X159220248Y-90728545D01*
X158678589Y-90952353D01*
X158263810Y-91366409D01*
X158242224Y-91418391D01*
X158221647Y-91368589D01*
X157807591Y-90953810D01*
X157266323Y-90729056D01*
X156680248Y-90728545D01*
X156138589Y-90952353D01*
X155723810Y-91366409D01*
X155701558Y-91419995D01*
X155467413Y-91346192D01*
X155287808Y-91525797D01*
X154611605Y-92202000D01*
X155467413Y-93057808D01*
X155701163Y-92984129D01*
X155722353Y-93035411D01*
X156136409Y-93450190D01*
X156188391Y-93471775D01*
X156138589Y-93492353D01*
X155723810Y-93906409D01*
X155702224Y-93958391D01*
X155681647Y-93908589D01*
X155267591Y-93493810D01*
X155214004Y-93471558D01*
X155287808Y-93237413D01*
X154432000Y-92381605D01*
X154417857Y-92395747D01*
X154238252Y-92216142D01*
X154252395Y-92202000D01*
X154238252Y-92187857D01*
X154417857Y-92008252D01*
X154432000Y-92022395D01*
X155287808Y-91166587D01*
X155208983Y-90916510D01*
X154657903Y-90717023D01*
X154072431Y-90743611D01*
X153655017Y-90916510D01*
X153576192Y-91166584D01*
X153461445Y-91051837D01*
X153416000Y-91097282D01*
X153416000Y-90424000D01*
X164592000Y-90424000D01*
X173482000Y-90424000D01*
X173482000Y-94488000D01*
X173540004Y-94779605D01*
X173705185Y-95026815D01*
X173959184Y-95280815D01*
X173959185Y-95280815D01*
X174206395Y-95445996D01*
X174498000Y-95504000D01*
X178552846Y-95504000D01*
X178582353Y-95575411D01*
X178996409Y-95990190D01*
X179537677Y-96214944D01*
X180123752Y-96215455D01*
X180665411Y-95991647D01*
X181080190Y-95577591D01*
X181101775Y-95525608D01*
X181122353Y-95575411D01*
X181536409Y-95990190D01*
X182077677Y-96214944D01*
X182663752Y-96215455D01*
X183205411Y-95991647D01*
X183620190Y-95577591D01*
X183641775Y-95525608D01*
X183662353Y-95575411D01*
X184076409Y-95990190D01*
X184617677Y-96214944D01*
X185203752Y-96215455D01*
X185745411Y-95991647D01*
X186160190Y-95577591D01*
X186181775Y-95525608D01*
X186202353Y-95575411D01*
X186616409Y-95990190D01*
X186690000Y-96020747D01*
X186690000Y-96520000D01*
G36*
X192786000Y-101284369D02*
X192724369Y-101346000D01*
X182590200Y-101346000D01*
X182298595Y-101404004D01*
X182199576Y-101470165D01*
X182051385Y-101569184D01*
X181942285Y-101678285D01*
X181777104Y-101925495D01*
X181719100Y-102217100D01*
X181719100Y-103019240D01*
X181434729Y-103303115D01*
X181246315Y-103756866D01*
X181245886Y-104248179D01*
X181337954Y-104471000D01*
X181084256Y-104471000D01*
X181175885Y-104250334D01*
X181176314Y-103759021D01*
X180988692Y-103304943D01*
X180641585Y-102957229D01*
X180187834Y-102768815D01*
X179696521Y-102768386D01*
X179242443Y-102956008D01*
X178894729Y-103303115D01*
X178706315Y-103756866D01*
X178705886Y-104248179D01*
X178797954Y-104471000D01*
X178544256Y-104471000D01*
X178635885Y-104250334D01*
X178636314Y-103759021D01*
X178448692Y-103304943D01*
X178101585Y-102957229D01*
X177647834Y-102768815D01*
X177156521Y-102768386D01*
X176702443Y-102956008D01*
X176354729Y-103303115D01*
X176166315Y-103756866D01*
X176165886Y-104248179D01*
X176257954Y-104471000D01*
X176004256Y-104471000D01*
X176095885Y-104250334D01*
X176096314Y-103759021D01*
X175908692Y-103304943D01*
X175561585Y-102957229D01*
X175107834Y-102768815D01*
X174616521Y-102768386D01*
X174162443Y-102956008D01*
X173814729Y-103303115D01*
X173626315Y-103756866D01*
X173625886Y-104248179D01*
X173717954Y-104471000D01*
X173464256Y-104471000D01*
X173555885Y-104250334D01*
X173556314Y-103759021D01*
X173368692Y-103304943D01*
X173021585Y-102957229D01*
X172567834Y-102768815D01*
X172212000Y-102768504D01*
X172212000Y-102362000D01*
X180086000Y-102362000D01*
X180377605Y-102303996D01*
X180624815Y-102138815D01*
X180789996Y-101891605D01*
X180848000Y-101600000D01*
X180848000Y-100691539D01*
X181215827Y-100324353D01*
X181419268Y-99834413D01*
X181419731Y-99303914D01*
X181217146Y-98813620D01*
X180842353Y-98438173D01*
X180352413Y-98234732D01*
X179821914Y-98234269D01*
X179331620Y-98436854D01*
X178956173Y-98811647D01*
X178822686Y-99133118D01*
X178715800Y-98875071D01*
X178480188Y-98813417D01*
X178300583Y-98993022D01*
X178300583Y-98633812D01*
X178238929Y-98398200D01*
X177738520Y-98222073D01*
X177208801Y-98250852D01*
X176853071Y-98398200D01*
X176791417Y-98633812D01*
X177546000Y-99388395D01*
X178300583Y-98633812D01*
X178300583Y-98993022D01*
X177725605Y-99568000D01*
X178480188Y-100322583D01*
X178715800Y-100260929D01*
X178814083Y-99981688D01*
X178954854Y-100322380D01*
X179324000Y-100692170D01*
X179324000Y-100838000D01*
X177997024Y-100838000D01*
X178238929Y-100737800D01*
X178300583Y-100502188D01*
X177546000Y-99747605D01*
X177366395Y-99927210D01*
X177366395Y-99568000D01*
X176611812Y-98813417D01*
X176376200Y-98875071D01*
X176200073Y-99375480D01*
X176228852Y-99905199D01*
X176376200Y-100260929D01*
X176611812Y-100322583D01*
X177366395Y-99568000D01*
X177366395Y-99927210D01*
X176791417Y-100502188D01*
X176853071Y-100737800D01*
X177137757Y-100838000D01*
X174774152Y-100838000D01*
X174823411Y-100817647D01*
X175238190Y-100403591D01*
X175462944Y-99862323D01*
X175463455Y-99276248D01*
X175239647Y-98734589D01*
X174825591Y-98319810D01*
X174284323Y-98095056D01*
X173698248Y-98094545D01*
X173156589Y-98318353D01*
X172741810Y-98732409D01*
X172720224Y-98784391D01*
X172699647Y-98734589D01*
X172285591Y-98319810D01*
X171744323Y-98095056D01*
X171158248Y-98094545D01*
X170616589Y-98318353D01*
X170201810Y-98732409D01*
X170180224Y-98784391D01*
X170159647Y-98734589D01*
X169745591Y-98319810D01*
X169204323Y-98095056D01*
X168618248Y-98094545D01*
X168076589Y-98318353D01*
X167661810Y-98732409D01*
X167640224Y-98784391D01*
X167619647Y-98734589D01*
X167205591Y-98319810D01*
X166664323Y-98095056D01*
X166078248Y-98094545D01*
X166004604Y-98124973D01*
X165923630Y-98044000D01*
X187452000Y-98044000D01*
X187743605Y-97985996D01*
X187990815Y-97820815D01*
X188155996Y-97573605D01*
X188214000Y-97282000D01*
X188214000Y-96021153D01*
X188285411Y-95991647D01*
X188700190Y-95577591D01*
X188721775Y-95525608D01*
X188742353Y-95575411D01*
X189156409Y-95990190D01*
X189697677Y-96214944D01*
X190283752Y-96215455D01*
X190825411Y-95991647D01*
X191240190Y-95577591D01*
X191464944Y-95036323D01*
X191465455Y-94450248D01*
X191241647Y-93908589D01*
X190827591Y-93493810D01*
X190775608Y-93472224D01*
X190825411Y-93451647D01*
X191240190Y-93037591D01*
X191464944Y-92496323D01*
X191465455Y-91910248D01*
X191241647Y-91368589D01*
X191059376Y-91186000D01*
X192786000Y-91186000D01*
X192786000Y-101284369D01*
X192786000Y-101284369D01*
G37*
X192786000Y-101284369D02*
X192724369Y-101346000D01*
X182590200Y-101346000D01*
X182298595Y-101404004D01*
X182199576Y-101470165D01*
X182051385Y-101569184D01*
X181942285Y-101678285D01*
X181777104Y-101925495D01*
X181719100Y-102217100D01*
X181719100Y-103019240D01*
X181434729Y-103303115D01*
X181246315Y-103756866D01*
X181245886Y-104248179D01*
X181337954Y-104471000D01*
X181084256Y-104471000D01*
X181175885Y-104250334D01*
X181176314Y-103759021D01*
X180988692Y-103304943D01*
X180641585Y-102957229D01*
X180187834Y-102768815D01*
X179696521Y-102768386D01*
X179242443Y-102956008D01*
X178894729Y-103303115D01*
X178706315Y-103756866D01*
X178705886Y-104248179D01*
X178797954Y-104471000D01*
X178544256Y-104471000D01*
X178635885Y-104250334D01*
X178636314Y-103759021D01*
X178448692Y-103304943D01*
X178101585Y-102957229D01*
X177647834Y-102768815D01*
X177156521Y-102768386D01*
X176702443Y-102956008D01*
X176354729Y-103303115D01*
X176166315Y-103756866D01*
X176165886Y-104248179D01*
X176257954Y-104471000D01*
X176004256Y-104471000D01*
X176095885Y-104250334D01*
X176096314Y-103759021D01*
X175908692Y-103304943D01*
X175561585Y-102957229D01*
X175107834Y-102768815D01*
X174616521Y-102768386D01*
X174162443Y-102956008D01*
X173814729Y-103303115D01*
X173626315Y-103756866D01*
X173625886Y-104248179D01*
X173717954Y-104471000D01*
X173464256Y-104471000D01*
X173555885Y-104250334D01*
X173556314Y-103759021D01*
X173368692Y-103304943D01*
X173021585Y-102957229D01*
X172567834Y-102768815D01*
X172212000Y-102768504D01*
X172212000Y-102362000D01*
X180086000Y-102362000D01*
X180377605Y-102303996D01*
X180624815Y-102138815D01*
X180789996Y-101891605D01*
X180848000Y-101600000D01*
X180848000Y-100691539D01*
X181215827Y-100324353D01*
X181419268Y-99834413D01*
X181419731Y-99303914D01*
X181217146Y-98813620D01*
X180842353Y-98438173D01*
X180352413Y-98234732D01*
X179821914Y-98234269D01*
X179331620Y-98436854D01*
X178956173Y-98811647D01*
X178822686Y-99133118D01*
X178715800Y-98875071D01*
X178480188Y-98813417D01*
X178300583Y-98993022D01*
X178300583Y-98633812D01*
X178238929Y-98398200D01*
X177738520Y-98222073D01*
X177208801Y-98250852D01*
X176853071Y-98398200D01*
X176791417Y-98633812D01*
X177546000Y-99388395D01*
X178300583Y-98633812D01*
X178300583Y-98993022D01*
X177725605Y-99568000D01*
X178480188Y-100322583D01*
X178715800Y-100260929D01*
X178814083Y-99981688D01*
X178954854Y-100322380D01*
X179324000Y-100692170D01*
X179324000Y-100838000D01*
X177997024Y-100838000D01*
X178238929Y-100737800D01*
X178300583Y-100502188D01*
X177546000Y-99747605D01*
X177366395Y-99927210D01*
X177366395Y-99568000D01*
X176611812Y-98813417D01*
X176376200Y-98875071D01*
X176200073Y-99375480D01*
X176228852Y-99905199D01*
X176376200Y-100260929D01*
X176611812Y-100322583D01*
X177366395Y-99568000D01*
X177366395Y-99927210D01*
X176791417Y-100502188D01*
X176853071Y-100737800D01*
X177137757Y-100838000D01*
X174774152Y-100838000D01*
X174823411Y-100817647D01*
X175238190Y-100403591D01*
X175462944Y-99862323D01*
X175463455Y-99276248D01*
X175239647Y-98734589D01*
X174825591Y-98319810D01*
X174284323Y-98095056D01*
X173698248Y-98094545D01*
X173156589Y-98318353D01*
X172741810Y-98732409D01*
X172720224Y-98784391D01*
X172699647Y-98734589D01*
X172285591Y-98319810D01*
X171744323Y-98095056D01*
X171158248Y-98094545D01*
X170616589Y-98318353D01*
X170201810Y-98732409D01*
X170180224Y-98784391D01*
X170159647Y-98734589D01*
X169745591Y-98319810D01*
X169204323Y-98095056D01*
X168618248Y-98094545D01*
X168076589Y-98318353D01*
X167661810Y-98732409D01*
X167640224Y-98784391D01*
X167619647Y-98734589D01*
X167205591Y-98319810D01*
X166664323Y-98095056D01*
X166078248Y-98094545D01*
X166004604Y-98124973D01*
X165923630Y-98044000D01*
X187452000Y-98044000D01*
X187743605Y-97985996D01*
X187990815Y-97820815D01*
X188155996Y-97573605D01*
X188214000Y-97282000D01*
X188214000Y-96021153D01*
X188285411Y-95991647D01*
X188700190Y-95577591D01*
X188721775Y-95525608D01*
X188742353Y-95575411D01*
X189156409Y-95990190D01*
X189697677Y-96214944D01*
X190283752Y-96215455D01*
X190825411Y-95991647D01*
X191240190Y-95577591D01*
X191464944Y-95036323D01*
X191465455Y-94450248D01*
X191241647Y-93908589D01*
X190827591Y-93493810D01*
X190775608Y-93472224D01*
X190825411Y-93451647D01*
X191240190Y-93037591D01*
X191464944Y-92496323D01*
X191465455Y-91910248D01*
X191241647Y-91368589D01*
X191059376Y-91186000D01*
X192786000Y-91186000D01*
X192786000Y-101284369D01*
G36*
X195911000Y-104471000D02*
X193784256Y-104471000D01*
X193875885Y-104250334D01*
X193876314Y-103759021D01*
X193688692Y-103304943D01*
X193341585Y-102957229D01*
X193101874Y-102857692D01*
X193331604Y-102811996D01*
X193331605Y-102811996D01*
X193578815Y-102646815D01*
X194086815Y-102138816D01*
X194086815Y-102138815D01*
X194251996Y-101891605D01*
X194309999Y-101600000D01*
X194310000Y-101600000D01*
X194310000Y-90424000D01*
X194251996Y-90132395D01*
X194086815Y-89885185D01*
X193839605Y-89720004D01*
X193548000Y-89662000D01*
X187452000Y-89662000D01*
X187160395Y-89720004D01*
X186913185Y-89885185D01*
X186748004Y-90132395D01*
X186690000Y-90424000D01*
X186690000Y-90922846D01*
X186618589Y-90952353D01*
X186203810Y-91366409D01*
X186182224Y-91418391D01*
X186161647Y-91368589D01*
X185747591Y-90953810D01*
X185206323Y-90729056D01*
X184620248Y-90728545D01*
X184078589Y-90952353D01*
X183663810Y-91366409D01*
X183642224Y-91418391D01*
X183621647Y-91368589D01*
X183207591Y-90953810D01*
X182666323Y-90729056D01*
X182080248Y-90728545D01*
X181538589Y-90952353D01*
X181123810Y-91366409D01*
X181101558Y-91419995D01*
X180867413Y-91346192D01*
X180687808Y-91525797D01*
X180687808Y-91166587D01*
X180608983Y-90916510D01*
X180057903Y-90717023D01*
X179472431Y-90743611D01*
X179055017Y-90916510D01*
X178976192Y-91166587D01*
X179832000Y-92022395D01*
X180687808Y-91166587D01*
X180687808Y-91525797D01*
X180011605Y-92202000D01*
X180867413Y-93057808D01*
X181101163Y-92984129D01*
X181122353Y-93035411D01*
X181536409Y-93450190D01*
X181588391Y-93471775D01*
X181538589Y-93492353D01*
X181123810Y-93906409D01*
X181102224Y-93958391D01*
X181081647Y-93908589D01*
X180667591Y-93493810D01*
X180614004Y-93471558D01*
X180687808Y-93237413D01*
X179832000Y-92381605D01*
X179652395Y-92561210D01*
X179652395Y-92202000D01*
X178796587Y-91346192D01*
X178546510Y-91425017D01*
X178347023Y-91976097D01*
X178373611Y-92561569D01*
X178546510Y-92978983D01*
X178796587Y-93057808D01*
X179652395Y-92202000D01*
X179652395Y-92561210D01*
X178976192Y-93237413D01*
X179049870Y-93471163D01*
X178998589Y-93492353D01*
X178583810Y-93906409D01*
X178553252Y-93980000D01*
X175006000Y-93980000D01*
X175006000Y-89916000D01*
X174947996Y-89624395D01*
X174782815Y-89377185D01*
X174782815Y-89377184D01*
X174644041Y-89238410D01*
X175105679Y-89238814D01*
X175559757Y-89051192D01*
X175907471Y-88704085D01*
X176095885Y-88250334D01*
X176096314Y-87759021D01*
X176011187Y-87553000D01*
X176250967Y-87553000D01*
X176166315Y-87756866D01*
X176165886Y-88248179D01*
X176353508Y-88702257D01*
X176700615Y-89049971D01*
X177154366Y-89238385D01*
X177645679Y-89238814D01*
X178099757Y-89051192D01*
X178447471Y-88704085D01*
X178635885Y-88250334D01*
X178636314Y-87759021D01*
X178551187Y-87553000D01*
X178790967Y-87553000D01*
X178706315Y-87756866D01*
X178705886Y-88248179D01*
X178893508Y-88702257D01*
X179240615Y-89049971D01*
X179694366Y-89238385D01*
X180185679Y-89238814D01*
X180639757Y-89051192D01*
X180987471Y-88704085D01*
X181175885Y-88250334D01*
X181176314Y-87759021D01*
X181091187Y-87553000D01*
X181330967Y-87553000D01*
X181246315Y-87756866D01*
X181245886Y-88248179D01*
X181433508Y-88702257D01*
X181780615Y-89049971D01*
X182234366Y-89238385D01*
X182725679Y-89238814D01*
X183179757Y-89051192D01*
X183527471Y-88704085D01*
X183715885Y-88250334D01*
X183716314Y-87759021D01*
X183631187Y-87553000D01*
X183870967Y-87553000D01*
X183786315Y-87756866D01*
X183785886Y-88248179D01*
X183973508Y-88702257D01*
X184320615Y-89049971D01*
X184774366Y-89238385D01*
X185265679Y-89238814D01*
X185719757Y-89051192D01*
X186067471Y-88704085D01*
X186255885Y-88250334D01*
X186256314Y-87759021D01*
X186171187Y-87553000D01*
X186410967Y-87553000D01*
X186326315Y-87756866D01*
X186325886Y-88248179D01*
X186513508Y-88702257D01*
X186860615Y-89049971D01*
X187314366Y-89238385D01*
X187805679Y-89238814D01*
X188259757Y-89051192D01*
X188607471Y-88704085D01*
X188795885Y-88250334D01*
X188796314Y-87759021D01*
X188711187Y-87553000D01*
X188950967Y-87553000D01*
X188866315Y-87756866D01*
X188865886Y-88248179D01*
X189053508Y-88702257D01*
X189400615Y-89049971D01*
X189854366Y-89238385D01*
X190345679Y-89238814D01*
X190799757Y-89051192D01*
X191147471Y-88704085D01*
X191335885Y-88250334D01*
X191336314Y-87759021D01*
X191251187Y-87553000D01*
X191490967Y-87553000D01*
X191406315Y-87756866D01*
X191405886Y-88248179D01*
X191593508Y-88702257D01*
X191940615Y-89049971D01*
X192394366Y-89238385D01*
X192885679Y-89238814D01*
X193339757Y-89051192D01*
X193687471Y-88704085D01*
X193875885Y-88250334D01*
X193876314Y-87759021D01*
X193791187Y-87553000D01*
X195911000Y-87553000D01*
X195911000Y-104471000D01*
X195911000Y-104471000D01*
G37*
X195911000Y-104471000D02*
X193784256Y-104471000D01*
X193875885Y-104250334D01*
X193876314Y-103759021D01*
X193688692Y-103304943D01*
X193341585Y-102957229D01*
X193101874Y-102857692D01*
X193331604Y-102811996D01*
X193331605Y-102811996D01*
X193578815Y-102646815D01*
X194086815Y-102138816D01*
X194086815Y-102138815D01*
X194251996Y-101891605D01*
X194309999Y-101600000D01*
X194310000Y-101600000D01*
X194310000Y-90424000D01*
X194251996Y-90132395D01*
X194086815Y-89885185D01*
X193839605Y-89720004D01*
X193548000Y-89662000D01*
X187452000Y-89662000D01*
X187160395Y-89720004D01*
X186913185Y-89885185D01*
X186748004Y-90132395D01*
X186690000Y-90424000D01*
X186690000Y-90922846D01*
X186618589Y-90952353D01*
X186203810Y-91366409D01*
X186182224Y-91418391D01*
X186161647Y-91368589D01*
X185747591Y-90953810D01*
X185206323Y-90729056D01*
X184620248Y-90728545D01*
X184078589Y-90952353D01*
X183663810Y-91366409D01*
X183642224Y-91418391D01*
X183621647Y-91368589D01*
X183207591Y-90953810D01*
X182666323Y-90729056D01*
X182080248Y-90728545D01*
X181538589Y-90952353D01*
X181123810Y-91366409D01*
X181101558Y-91419995D01*
X180867413Y-91346192D01*
X180687808Y-91525797D01*
X180687808Y-91166587D01*
X180608983Y-90916510D01*
X180057903Y-90717023D01*
X179472431Y-90743611D01*
X179055017Y-90916510D01*
X178976192Y-91166587D01*
X179832000Y-92022395D01*
X180687808Y-91166587D01*
X180687808Y-91525797D01*
X180011605Y-92202000D01*
X180867413Y-93057808D01*
X181101163Y-92984129D01*
X181122353Y-93035411D01*
X181536409Y-93450190D01*
X181588391Y-93471775D01*
X181538589Y-93492353D01*
X181123810Y-93906409D01*
X181102224Y-93958391D01*
X181081647Y-93908589D01*
X180667591Y-93493810D01*
X180614004Y-93471558D01*
X180687808Y-93237413D01*
X179832000Y-92381605D01*
X179652395Y-92561210D01*
X179652395Y-92202000D01*
X178796587Y-91346192D01*
X178546510Y-91425017D01*
X178347023Y-91976097D01*
X178373611Y-92561569D01*
X178546510Y-92978983D01*
X178796587Y-93057808D01*
X179652395Y-92202000D01*
X179652395Y-92561210D01*
X178976192Y-93237413D01*
X179049870Y-93471163D01*
X178998589Y-93492353D01*
X178583810Y-93906409D01*
X178553252Y-93980000D01*
X175006000Y-93980000D01*
X175006000Y-89916000D01*
X174947996Y-89624395D01*
X174782815Y-89377185D01*
X174782815Y-89377184D01*
X174644041Y-89238410D01*
X175105679Y-89238814D01*
X175559757Y-89051192D01*
X175907471Y-88704085D01*
X176095885Y-88250334D01*
X176096314Y-87759021D01*
X176011187Y-87553000D01*
X176250967Y-87553000D01*
X176166315Y-87756866D01*
X176165886Y-88248179D01*
X176353508Y-88702257D01*
X176700615Y-89049971D01*
X177154366Y-89238385D01*
X177645679Y-89238814D01*
X178099757Y-89051192D01*
X178447471Y-88704085D01*
X178635885Y-88250334D01*
X178636314Y-87759021D01*
X178551187Y-87553000D01*
X178790967Y-87553000D01*
X178706315Y-87756866D01*
X178705886Y-88248179D01*
X178893508Y-88702257D01*
X179240615Y-89049971D01*
X179694366Y-89238385D01*
X180185679Y-89238814D01*
X180639757Y-89051192D01*
X180987471Y-88704085D01*
X181175885Y-88250334D01*
X181176314Y-87759021D01*
X181091187Y-87553000D01*
X181330967Y-87553000D01*
X181246315Y-87756866D01*
X181245886Y-88248179D01*
X181433508Y-88702257D01*
X181780615Y-89049971D01*
X182234366Y-89238385D01*
X182725679Y-89238814D01*
X183179757Y-89051192D01*
X183527471Y-88704085D01*
X183715885Y-88250334D01*
X183716314Y-87759021D01*
X183631187Y-87553000D01*
X183870967Y-87553000D01*
X183786315Y-87756866D01*
X183785886Y-88248179D01*
X183973508Y-88702257D01*
X184320615Y-89049971D01*
X184774366Y-89238385D01*
X185265679Y-89238814D01*
X185719757Y-89051192D01*
X186067471Y-88704085D01*
X186255885Y-88250334D01*
X186256314Y-87759021D01*
X186171187Y-87553000D01*
X186410967Y-87553000D01*
X186326315Y-87756866D01*
X186325886Y-88248179D01*
X186513508Y-88702257D01*
X186860615Y-89049971D01*
X187314366Y-89238385D01*
X187805679Y-89238814D01*
X188259757Y-89051192D01*
X188607471Y-88704085D01*
X188795885Y-88250334D01*
X188796314Y-87759021D01*
X188711187Y-87553000D01*
X188950967Y-87553000D01*
X188866315Y-87756866D01*
X188865886Y-88248179D01*
X189053508Y-88702257D01*
X189400615Y-89049971D01*
X189854366Y-89238385D01*
X190345679Y-89238814D01*
X190799757Y-89051192D01*
X191147471Y-88704085D01*
X191335885Y-88250334D01*
X191336314Y-87759021D01*
X191251187Y-87553000D01*
X191490967Y-87553000D01*
X191406315Y-87756866D01*
X191405886Y-88248179D01*
X191593508Y-88702257D01*
X191940615Y-89049971D01*
X192394366Y-89238385D01*
X192885679Y-89238814D01*
X193339757Y-89051192D01*
X193687471Y-88704085D01*
X193875885Y-88250334D01*
X193876314Y-87759021D01*
X193791187Y-87553000D01*
X195911000Y-87553000D01*
X195911000Y-104471000D01*
M02*
