G04 #@! TF.FileFunction,Soldermask,Bot*
%FSLAX46Y46*%
G04 Gerber Fmt 4.6, Leading zero omitted, Abs format (unit mm)*
G04 Created by KiCad (PCBNEW 0.201412191901+5326~19~ubuntu14.04.1-product) date Mon 22 Dec 2014 04:55:03 PM PST*
%MOMM*%
G01*
G04 APERTURE LIST*
%ADD10C,0.100000*%
%ADD11R,1.676400X1.676400*%
%ADD12C,1.676400*%
%ADD13C,1.397000*%
%ADD14C,1.200000*%
G04 APERTURE END LIST*
D10*
D11*
X161290000Y-99568000D03*
D12*
X163830000Y-99568000D03*
X166370000Y-99568000D03*
X168910000Y-99568000D03*
X171450000Y-99568000D03*
X173990000Y-99568000D03*
X154432000Y-94742000D03*
X154432000Y-92202000D03*
X156972000Y-94742000D03*
X156972000Y-92202000D03*
X159512000Y-94742000D03*
X159512000Y-92202000D03*
X162052000Y-94742000D03*
X162052000Y-92202000D03*
X164592000Y-94742000D03*
X164592000Y-92202000D03*
X179832000Y-94742000D03*
X179832000Y-92202000D03*
X182372000Y-94742000D03*
X182372000Y-92202000D03*
X184912000Y-94742000D03*
X184912000Y-92202000D03*
X187452000Y-94742000D03*
X187452000Y-92202000D03*
X189992000Y-94742000D03*
X189992000Y-92202000D03*
D13*
X153162000Y-100330000D03*
X150622000Y-100330000D03*
X156210000Y-100330000D03*
X158750000Y-100330000D03*
X180086000Y-99568000D03*
X177546000Y-99568000D03*
D14*
X152001100Y-88003600D03*
X154541100Y-88003600D03*
X157081100Y-88003600D03*
X159621100Y-88003600D03*
X162161100Y-88003600D03*
X164701100Y-88003600D03*
X167241100Y-88003600D03*
X169781100Y-88003600D03*
X172321100Y-88003600D03*
X174861100Y-88003600D03*
X177401100Y-88003600D03*
X179941100Y-88003600D03*
X182481100Y-88003600D03*
X185021100Y-88003600D03*
X187561100Y-88003600D03*
X190101100Y-88003600D03*
X192641100Y-88003600D03*
X152001100Y-104003600D03*
X154541100Y-104003600D03*
X157081100Y-104003600D03*
X159621100Y-104003600D03*
X162161100Y-104003600D03*
X164701100Y-104003600D03*
X167241100Y-104003600D03*
X169781100Y-104003600D03*
X172321100Y-104003600D03*
X174861100Y-104003600D03*
X177401100Y-104003600D03*
X179941100Y-104003600D03*
X182481100Y-104003600D03*
X185021100Y-104003600D03*
X187561100Y-104003600D03*
X190101100Y-104003600D03*
X192641100Y-104003600D03*
M02*
