<?xml version="1.0" standalone="no"?>
 <!DOCTYPE svg PUBLIC "-//W3C//DTD SVG 1.1//EN" 
 "http://www.w3.org/Graphics/SVG/1.1/DTD/svg11.dtd"> 
<svg xmlns="http://www.w3.org/2000/svg" version="1.1" 
    width="5.68706cm" height="2.49682cm" viewBox="0 0 22390 9830 ">
<title>SVG Picture created as moros-brd.svg date 2014/12/21 21:34:52 </title>
  <desc>Picture generated by PCBNEW </desc>
<g style="fill:#000000; fill-opacity:1;stroke:#000000; stroke-opacity:1;
stroke-linecap:round; stroke-linejoin:round; "
 transform="translate(0 0) scale(1 1)">
</g>
<g style="fill:#840000; fill-opacity:0.0; 
stroke:#840000; stroke-width:39.3701; stroke-opacity:1; 
stroke-linecap:round; stroke-linejoin:round;">
</g>
<g style="fill:#840000; fill-opacity:1.0; 
stroke:#840000; stroke-width:39.3701; stroke-opacity:1; 
stroke-linecap:round; stroke-linejoin:round;">
<polyline style="fill-rule:evenodd;"
points="8088,6957
8088,6336
8708,6336
8708,6957
8088,6957
" /> 
<circle cx="9398.5" cy="6647.01" r="310.315" /> 
<circle cx="10398.5" cy="6647.01" r="310.315" /> 
<circle cx="11398.5" cy="6647.01" r="310.315" /> 
<circle cx="12398.5" cy="6647.01" r="310.315" /> 
<circle cx="13398.5" cy="6647.01" r="310.315" /> 
<circle cx="5698.5" cy="4747.01" r="310.315" /> 
<circle cx="5698.5" cy="3747.01" r="310.315" /> 
<circle cx="6698.5" cy="4747.01" r="310.315" /> 
<circle cx="6698.5" cy="3747.01" r="310.315" /> 
<circle cx="7698.5" cy="4747.01" r="310.315" /> 
<circle cx="7698.5" cy="3747.01" r="310.315" /> 
<circle cx="8698.5" cy="4747.01" r="310.315" /> 
<circle cx="8698.5" cy="3747.01" r="310.315" /> 
<circle cx="9698.5" cy="4747.01" r="310.315" /> 
<circle cx="9698.5" cy="3747.01" r="310.315" /> 
<circle cx="15698.5" cy="4747.01" r="310.315" /> 
<circle cx="15698.5" cy="3747.01" r="310.315" /> 
<circle cx="16698.5" cy="4747.01" r="310.315" /> 
<circle cx="16698.5" cy="3747.01" r="310.315" /> 
<circle cx="17698.5" cy="4747.01" r="310.315" /> 
<circle cx="17698.5" cy="3747.01" r="310.315" /> 
<circle cx="18698.5" cy="4747.01" r="310.315" /> 
<circle cx="18698.5" cy="3747.01" r="310.315" /> 
<circle cx="19698.5" cy="4747.01" r="310.315" /> 
<circle cx="19698.5" cy="3747.01" r="310.315" /> 
<circle cx="5198.5" cy="6947.01" r="255.315" /> 
<circle cx="4198.5" cy="6947.01" r="255.315" /> 
<circle cx="6398.5" cy="6947.01" r="255.315" /> 
<circle cx="7398.5" cy="6947.01" r="255.315" /> 
<circle cx="15798.5" cy="6647.01" r="255.315" /> 
<circle cx="14798.5" cy="6647.01" r="255.315" /> 
<circle cx="4741.45" cy="2094.09" r="216.535" /> 
<circle cx="5741.45" cy="2094.09" r="216.535" /> 
<circle cx="6741.45" cy="2094.09" r="216.535" /> 
<circle cx="7741.45" cy="2094.09" r="216.535" /> 
<circle cx="8741.45" cy="2094.09" r="216.535" /> 
<circle cx="9741.45" cy="2094.09" r="216.535" /> 
<circle cx="10741.5" cy="2094.09" r="216.535" /> 
<circle cx="11741.5" cy="2094.09" r="216.535" /> 
<circle cx="12741.5" cy="2094.09" r="216.535" /> 
<circle cx="13741.5" cy="2094.09" r="216.535" /> 
<circle cx="14741.5" cy="2094.09" r="216.535" /> 
<circle cx="15741.5" cy="2094.09" r="216.535" /> 
<circle cx="16741.5" cy="2094.09" r="216.535" /> 
<circle cx="17741.5" cy="2094.09" r="216.535" /> 
<circle cx="18741.5" cy="2094.09" r="216.535" /> 
<circle cx="19741.5" cy="2094.09" r="216.535" /> 
<circle cx="20741.5" cy="2094.09" r="216.535" /> 
<circle cx="4741.45" cy="8393.31" r="216.535" /> 
<circle cx="5741.45" cy="8393.31" r="216.535" /> 
<circle cx="6741.45" cy="8393.31" r="216.535" /> 
<circle cx="7741.45" cy="8393.31" r="216.535" /> 
<circle cx="8741.45" cy="8393.31" r="216.535" /> 
<circle cx="9741.45" cy="8393.31" r="216.535" /> 
<circle cx="10741.5" cy="8393.31" r="216.535" /> 
<circle cx="11741.5" cy="8393.31" r="216.535" /> 
<circle cx="12741.5" cy="8393.31" r="216.535" /> 
<circle cx="13741.5" cy="8393.31" r="216.535" /> 
<circle cx="14741.5" cy="8393.31" r="216.535" /> 
<circle cx="15741.5" cy="8393.31" r="216.535" /> 
<circle cx="16741.5" cy="8393.31" r="216.535" /> 
<circle cx="17741.5" cy="8393.31" r="216.535" /> 
<circle cx="18741.5" cy="8393.31" r="216.535" /> 
<circle cx="19741.5" cy="8393.31" r="216.535" /> 
<circle cx="20741.5" cy="8393.31" r="216.535" /> 
</g>
<g style="fill:#C2C2C2; fill-opacity:1.0; 
stroke:#C2C2C2; stroke-width:39.3701; stroke-opacity:1; 
stroke-linecap:round; stroke-linejoin:round;">
<circle cx="13398.5" cy="5247.01" r="155.315" /> 
<circle cx="12898.5" cy="3747.01" r="155.315" /> 
</g>
<g style="fill:#008400; fill-opacity:1.0; 
stroke:#008400; stroke-width:100; stroke-opacity:1; 
stroke-linecap:round; stroke-linejoin:round;">
</g>
<g style="fill:#008400; fill-opacity:0.0; 
stroke:#008400; stroke-width:100; stroke-opacity:1; 
stroke-linecap:round; stroke-linejoin:round;">
<path d="M5698 5747
L11398 5747
" />
<path d="M11398 5747
L11398 6647
" />
<path d="M5698 4747
L5698 5747
" />
<path d="M11398 7447
L9398 7447
" />
<path d="M9398 7447
L9398 6647
" />
<path d="M11398 6647
L11398 7447
" />
<path d="M13398 7447
L13398 6647
" />
<path d="M11398 7447
L13398 7447
" />
<path d="M14798 6647
L13398 5247
" />
<path d="M13798 3747
L15698 3747
" />
<path d="M12898 3747
L13798 3747
" />
<path d="M4241 2704
L4198 2747
" />
<path d="M4198 2747
L4198 6947
" />
<path d="M7741 2094
L7741 2704
" />
<path d="M7741 2704
L4241 2704
" />
<path d="M17698 3043
L7698 3043
" />
<path d="M17698 3747
L17698 3043
" />
<path d="M7698 3547
L7698 3043
" />
<path d="M4741 3104
L4798 3047
" />
<path d="M4798 3047
L7698 3043
" />
<path d="M4741 8393
L4741 3104
" />
<path d="M9198 3747
L9198 5447
" />
<path d="M9198 5447
L13098 5447
" />
<path d="M13098 5447
L13998 6347
" />
<path d="M13998 6347
L13998 8136
" />
<path d="M13998 8136
L13741 8393
" />
<path d="M8698 3747
L9198 3747
" />
<path d="M14741 7489
L14784 7447
" />
<path d="M14784 7447
L17498 7447
" />
<path d="M17498 7447
L17498 5847
" />
<path d="M17498 5847
L14498 5847
" />
<path d="M14498 5847
L13398 4747
" />
<path d="M13398 4747
L9698 4747
" />
<path d="M14741 8393
L14741 7489
" />
<path d="M15698 8350
L15741 8393
" />
<path d="M10398 4147
L13339 4147
" />
<path d="M13339 4147
L13298 4147
" />
<path d="M9998 3747
L10398 4147
" />
<path d="M9698 3747
L9998 3747
" />
<path d="M13798 4147
L15098 5447
" />
<path d="M15698 7847
L15698 8350
" />
<path d="M15098 5447
L18098 5447
" />
<path d="M18098 5447
L18098 6247
" />
<path d="M18098 6247
L18098 7847
" />
<path d="M18098 7847
L15698 7847
" />
<path d="M13339 4147
L13798 4147
" />
<path d="M17952 8393
L17741 8393
" />
<path d="M19698 6647
L17952 8393
" />
<path d="M19698 4747
L19698 6647
" />
<path d="M20598 3747
L20698 3847
" />
<path d="M20698 3847
L20698 6436
" />
<path d="M20698 6436
L18741 8393
" />
<path d="M19698 3747
L20598 3747
" />
</g>
<g style="fill:#008400; fill-opacity:1.0; 
stroke:#008400; stroke-width:100; stroke-opacity:1; 
stroke-linecap:round; stroke-linejoin:round;">
<polyline style="fill-rule:evenodd;"
points="13698,7907
13645,7907
13466,7980
13329,8117
13255,8296
13255,8489
13291,8577
13191,8577
13227,8490
13227,8297
13153,8118
13017,7981
12838,7907
12645,7907
12466,7980
12329,8117
12255,8296
12255,8489
12291,8577
12191,8577
12227,8490
12227,8297
12153,8118
12017,7981
11838,7907
11645,7907
11466,7980
11329,8117
11255,8296
11255,8489
11291,8577
11191,8577
11227,8490
11227,8297
11153,8118
11017,7981
10838,7907
10645,7907
10466,7980
10329,8117
10255,8296
10255,8489
10291,8577
10192,8577
10232,8459
10220,8266
10169,8143
10081,8124
10010,8195
10010,8053
9990,7964
9807,7902
9614,7913
9491,7964
9472,8053
9741,8322
10010,8053
10010,8195
9812,8393
9817,8398
9747,8469
9741,8464
9735,8469
9665,8398
9670,8393
9401,8124
9313,8143
9250,8326
9262,8519
9285,8577
9191,8577
9227,8490
9227,8297
9153,8118
9017,7981
8838,7907
8645,7907
8466,7980
8329,8117
8255,8296
8255,8489
8291,8577
8191,8577
8227,8490
8227,8297
8153,8118
8017,7981
7838,7907
7645,7907
7466,7980
7329,8117
7255,8296
7255,8489
7291,8577
7191,8577
7227,8490
7227,8297
7153,8118
7017,7981
6838,7907
6695,7907
6695,7314
6398,7017
6327,7088
6327,6947
6030,6649
5937,6674
5868,6871
5879,7079
5937,7219
6030,7244
6327,6947
6327,7088
6101,7314
6125,7407
6322,7476
6531,7465
6671,7407
6695,7314
6695,7907
6645,7907
6466,7980
6329,8117
6255,8296
6255,8489
6291,8577
6191,8577
6227,8490
6227,8297
6153,8118
6017,7981
5838,7907
5645,7907
5466,7980
5329,8117
5255,8296
5255,8489
5291,8577
5191,8577
5227,8490
5227,8297
5153,8118
5041,8005
5041,7450
5093,7471
5302,7472
5495,7392
5643,7244
5723,7051
5723,6843
5643,6650
5496,6502
5303,6422
5094,6421
5041,6443
5041,3346
5264,3346
5245,3364
5290,3410
5192,3441
5113,3658
5124,3888
5192,4052
5290,4083
5627,3747
5622,3741
5692,3670
5698,3676
5704,3670
5774,3741
5769,3747
6106,4083
6198,4054
6206,4075
6369,4238
6389,4246
6370,4255
6207,4418
6198,4438
6190,4418
6027,4255
6006,4246
6035,4154
5698,3817
5627,3888
5361,4154
5390,4246
5370,4255
5207,4418
5118,4631
5118,4861
5206,5075
5369,5238
5398,5250
5398,5747
5421,5861
5486,5959
5583,6024
5698,6047
11098,6047
11098,6143
11070,6155
10907,6318
10898,6338
10890,6318
10727,6155
10514,6067
10283,6066
10070,6155
9907,6318
9898,6338
9890,6318
9727,6155
9514,6067
9283,6066
9070,6155
8971,6254
8964,6221
8909,6137
8826,6081
8728,6062
8068,6062
7973,6080
7889,6135
7833,6218
7813,6317
7813,6619
7696,6502
7503,6422
7294,6421
7101,6501
6953,6649
6901,6775
6859,6674
6766,6649
6695,6720
6695,6579
6671,6486
6474,6417
6265,6428
6125,6486
6101,6579
6398,6876
6695,6579
6695,6720
6469,6947
6766,7244
6859,7219
6897,7109
6953,7244
7100,7391
7293,7471
7502,7472
7695,7392
7843,7244
7882,7149
7887,7156
7970,7212
8068,7231
8728,7231
8823,7213
8907,7158
8963,7075
8970,7039
9069,7138
9098,7150
9098,7447
9121,7561
9186,7659
9283,7724
9398,7747
11398,7747
13398,7747
13513,7724
13610,7659
13675,7561
13698,7447
13698,7907
" /> 
<polyline style="fill-rule:evenodd;"
points="15633,6147
15501,6201
15353,6349
15301,6475
15259,6374
15166,6349
14869,6647
15166,6944
15259,6919
15297,6809
15353,6944
15500,7091
15633,7147
14976,7147
15071,7107
15095,7014
14798,6717
14501,7014
14525,7107
14690,7165
14669,7169
14630,7195
14572,7234
14529,7277
14464,7375
14441,7489
14441,8005
14329,8117
14277,8243
14298,8136
14298,8136
14298,6824
14337,6919
14430,6944
14727,6647
14430,6349
14337,6374
14298,6486
14298,6347
14275,6232
14210,6134
14210,6134
13310,5234
13213,5169
13098,5147
10118,5147
10189,5075
10201,5047
13274,5047
14286,6059
14344,6098
14383,6124
14383,6124
14498,6147
14620,6147
14525,6186
14501,6279
14798,6576
15095,6279
15071,6186
14959,6147
15633,6147
" /> 
<polyline style="fill-rule:evenodd;"
points="16389,4246
16370,4255
16207,4418
16198,4438
16190,4418
16027,4255
16006,4246
16035,4154
15698,3817
15627,3888
15361,4154
15390,4246
15370,4255
15207,4418
15118,4631
15118,4861
15206,5075
15278,5147
15222,5147
14010,3934
13913,3869
13798,3847
13339,3847
13298,3847
10522,3847
10257,3582
10190,3418
10114,3343
15267,3343
15245,3364
15290,3410
15192,3441
15113,3658
15124,3888
15192,4052
15290,4083
15627,3747
15622,3741
15692,3670
15698,3676
15704,3670
15774,3741
15769,3747
16106,4083
16198,4054
16206,4075
16369,4238
16389,4246
" /> 
<polyline style="fill-rule:evenodd;"
points="22028,8577
21191,8577
21227,8490
21227,8297
21153,8118
21017,7981
20838,7907
20645,7907
20466,7980
20329,8117
20255,8296
20255,8489
20291,8577
20191,8577
20227,8490
20227,8297
20153,8118
20017,7981
19838,7907
19652,7907
20910,6648
20910,6648
20975,6551
20998,6436
20998,6436
20998,3847
20975,3732
20910,3634
20910,3634
20810,3534
20713,3469
20598,3447
20202,3447
20190,3418
20027,3255
19814,3167
19583,3166
19370,3255
19207,3418
19198,3438
19190,3418
19027,3255
18814,3167
18583,3166
18370,3255
18207,3418
18198,3438
18190,3418
18027,3255
17998,3243
17998,3043
17998,3042
17986,2985
17975,2928
17975,2928
17975,2928
17942,2879
17910,2830
17910,2830
17910,2830
17862,2798
17813,2765
17813,2765
17813,2765
17756,2754
17698,2743
17698,2743
8010,2743
8010,2433
7741,2164
7472,2433
7491,2522
7674,2585
7867,2573
7990,2522
8010,2433
8010,2743
7698,2743
7698,2743
7698,2743
7698,2743
7697,2743
4798,2747
4741,2758
4683,2769
4683,2769
4683,2770
4635,2802
4586,2834
4529,2891
4464,2989
4441,3104
4441,6475
4274,6417
4065,6428
3925,6486
3901,6579
4198,6876
4204,6870
4274,6941
4269,6947
4274,6952
4204,7023
4198,7017
4127,7088
4127,6947
3830,6649
3737,6674
3668,6871
3679,7079
3737,7219
3830,7244
4127,6947
4127,7088
3901,7314
3925,7407
4122,7476
4331,7465
4441,7419
4441,8005
4329,8117
4255,8296
4255,8489
4291,8577
3568,8577
3568,1916
4288,1916
4255,1996
4255,2190
4329,2369
4465,2506
4644,2580
4837,2580
5016,2506
5153,2369
5227,2191
5227,1997
5194,1916
5288,1916
5255,1996
5255,2190
5329,2369
5465,2506
5644,2580
5837,2580
6016,2506
6153,2369
6227,2191
6227,1997
6194,1916
6288,1916
6255,1996
6255,2190
6329,2369
6465,2506
6644,2580
6837,2580
7016,2506
7153,2369
7227,2191
7227,1997
7194,1916
7288,1916
7250,2027
7262,2220
7313,2343
7401,2363
7670,2094
7665,2088
7735,2017
7741,2023
7747,2017
7817,2088
7812,2094
8081,2363
8169,2343
8232,2160
8220,1967
8199,1916
8288,1916
8255,1996
8255,2190
8329,2369
8465,2506
8644,2580
8837,2580
9016,2506
9153,2369
9227,2191
9227,1997
9194,1916
9288,1916
9255,1996
9255,2190
9329,2369
9465,2506
9644,2580
9837,2580
10016,2506
10153,2369
10227,2191
10227,1997
10194,1916
10288,1916
10255,1996
10255,2190
10329,2369
10465,2506
10644,2580
10837,2580
11016,2506
11153,2369
11227,2191
11227,1997
11194,1916
11288,1916
11255,1996
11255,2190
11329,2369
11465,2506
11644,2580
11837,2580
12016,2506
12153,2369
12227,2191
12227,1997
12194,1916
12288,1916
12255,1996
12255,2190
12329,2369
12465,2506
12644,2580
12837,2580
13016,2506
13153,2369
13227,2191
13227,1997
13194,1916
13288,1916
13255,1996
13255,2190
13329,2369
13465,2506
13644,2580
13837,2580
14016,2506
14153,2369
14227,2191
14227,1997
14194,1916
14288,1916
14255,1996
14255,2190
14329,2369
14465,2506
14644,2580
14837,2580
15016,2506
15153,2369
15227,2191
15227,1997
15194,1916
15288,1916
15255,1996
15255,2190
15329,2369
15465,2506
15644,2580
15837,2580
16016,2506
16153,2369
16227,2191
16227,1997
16194,1916
16288,1916
16255,1996
16255,2190
16329,2369
16465,2506
16644,2580
16837,2580
17016,2506
17153,2369
17227,2191
17227,1997
17194,1916
17288,1916
17255,1996
17255,2190
17329,2369
17465,2506
17644,2580
17837,2580
18016,2506
18153,2369
18227,2191
18227,1997
18194,1916
18288,1916
18255,1996
18255,2190
18329,2369
18465,2506
18644,2580
18837,2580
19016,2506
19153,2369
19227,2191
19227,1997
19194,1916
19288,1916
19255,1996
19255,2190
19329,2369
19465,2506
19644,2580
19837,2580
20016,2506
20153,2369
20227,2191
20227,1997
20194,1916
20288,1916
20255,1996
20255,2190
20329,2369
20465,2506
20644,2580
20837,2580
21016,2506
21153,2369
21227,2191
21227,1997
21194,1916
22028,1916
22028,8577
" /> 
</g>
<g style="fill:#FFFFFF; fill-opacity:1.0; 
stroke:#FFFFFF; stroke-width:39.3701; stroke-opacity:1; 
stroke-linecap:round; stroke-linejoin:round;">
<circle cx="13398.5" cy="5247.01" r="105.315" /> 
<circle cx="12898.5" cy="3747.01" r="105.315" /> 
<circle cx="8398.5" cy="6647.01" r="180.315" /> 
<circle cx="9398.5" cy="6647.01" r="180.315" /> 
<circle cx="10398.5" cy="6647.01" r="180.315" /> 
<circle cx="11398.5" cy="6647.01" r="180.315" /> 
<circle cx="12398.5" cy="6647.01" r="180.315" /> 
<circle cx="13398.5" cy="6647.01" r="180.315" /> 
<circle cx="5698.5" cy="4747.01" r="180.315" /> 
<circle cx="5698.5" cy="3747.01" r="180.315" /> 
<circle cx="6698.5" cy="4747.01" r="180.315" /> 
<circle cx="6698.5" cy="3747.01" r="180.315" /> 
<circle cx="7698.5" cy="4747.01" r="180.315" /> 
<circle cx="7698.5" cy="3747.01" r="180.315" /> 
<circle cx="8698.5" cy="4747.01" r="180.315" /> 
<circle cx="8698.5" cy="3747.01" r="180.315" /> 
<circle cx="9698.5" cy="4747.01" r="180.315" /> 
<circle cx="9698.5" cy="3747.01" r="180.315" /> 
<circle cx="15698.5" cy="4747.01" r="180.315" /> 
<circle cx="15698.5" cy="3747.01" r="180.315" /> 
<circle cx="16698.5" cy="4747.01" r="180.315" /> 
<circle cx="16698.5" cy="3747.01" r="180.315" /> 
<circle cx="17698.5" cy="4747.01" r="180.315" /> 
<circle cx="17698.5" cy="3747.01" r="180.315" /> 
<circle cx="18698.5" cy="4747.01" r="180.315" /> 
<circle cx="18698.5" cy="3747.01" r="180.315" /> 
<circle cx="19698.5" cy="4747.01" r="180.315" /> 
<circle cx="19698.5" cy="3747.01" r="180.315" /> 
<circle cx="5198.5" cy="6947.01" r="140.315" /> 
<circle cx="4198.5" cy="6947.01" r="140.315" /> 
<circle cx="6398.5" cy="6947.01" r="140.315" /> 
<circle cx="7398.5" cy="6947.01" r="140.315" /> 
<circle cx="15798.5" cy="6647.01" r="140.315" /> 
<circle cx="14798.5" cy="6647.01" r="140.315" /> 
<circle cx="4741.45" cy="2094.09" r="137.795" /> 
<circle cx="5741.45" cy="2094.09" r="137.795" /> 
<circle cx="6741.45" cy="2094.09" r="137.795" /> 
<circle cx="7741.45" cy="2094.09" r="137.795" /> 
<circle cx="8741.45" cy="2094.09" r="137.795" /> 
<circle cx="9741.45" cy="2094.09" r="137.795" /> 
<circle cx="10741.5" cy="2094.09" r="137.795" /> 
<circle cx="11741.5" cy="2094.09" r="137.795" /> 
<circle cx="12741.5" cy="2094.09" r="137.795" /> 
<circle cx="13741.5" cy="2094.09" r="137.795" /> 
<circle cx="14741.5" cy="2094.09" r="137.795" /> 
<circle cx="15741.5" cy="2094.09" r="137.795" /> 
<circle cx="16741.5" cy="2094.09" r="137.795" /> 
<circle cx="17741.5" cy="2094.09" r="137.795" /> 
<circle cx="18741.5" cy="2094.09" r="137.795" /> 
<circle cx="19741.5" cy="2094.09" r="137.795" /> 
<circle cx="20741.5" cy="2094.09" r="137.795" /> 
<circle cx="4741.45" cy="8393.31" r="137.795" /> 
<circle cx="5741.45" cy="8393.31" r="137.795" /> 
<circle cx="6741.45" cy="8393.31" r="137.795" /> 
<circle cx="7741.45" cy="8393.31" r="137.795" /> 
<circle cx="8741.45" cy="8393.31" r="137.795" /> 
<circle cx="9741.45" cy="8393.31" r="137.795" /> 
<circle cx="10741.5" cy="8393.31" r="137.795" /> 
<circle cx="11741.5" cy="8393.31" r="137.795" /> 
<circle cx="12741.5" cy="8393.31" r="137.795" /> 
<circle cx="13741.5" cy="8393.31" r="137.795" /> 
<circle cx="14741.5" cy="8393.31" r="137.795" /> 
<circle cx="15741.5" cy="8393.31" r="137.795" /> 
<circle cx="16741.5" cy="8393.31" r="137.795" /> 
<circle cx="17741.5" cy="8393.31" r="137.795" /> 
<circle cx="18741.5" cy="8393.31" r="137.795" /> 
<circle cx="19741.5" cy="8393.31" r="137.795" /> 
<circle cx="20741.5" cy="8393.31" r="137.795" /> 
</g>
<g style="fill:#840000; fill-opacity:1.0; 
stroke:#840000; stroke-width:39.3701; stroke-opacity:1; 
stroke-linecap:round; stroke-linejoin:round;">
<polyline style="fill-rule:evenodd;"
points="8088,6957
8088,6336
8708,6336
8708,6957
8088,6957
" /> 
<circle cx="9398.5" cy="6647.01" r="310.315" /> 
<circle cx="10398.5" cy="6647.01" r="310.315" /> 
<circle cx="11398.5" cy="6647.01" r="310.315" /> 
<circle cx="12398.5" cy="6647.01" r="310.315" /> 
<circle cx="13398.5" cy="6647.01" r="310.315" /> 
<circle cx="5698.5" cy="4747.01" r="310.315" /> 
<circle cx="5698.5" cy="3747.01" r="310.315" /> 
<circle cx="6698.5" cy="4747.01" r="310.315" /> 
<circle cx="6698.5" cy="3747.01" r="310.315" /> 
<circle cx="7698.5" cy="4747.01" r="310.315" /> 
<circle cx="7698.5" cy="3747.01" r="310.315" /> 
<circle cx="8698.5" cy="4747.01" r="310.315" /> 
<circle cx="8698.5" cy="3747.01" r="310.315" /> 
<circle cx="9698.5" cy="4747.01" r="310.315" /> 
<circle cx="9698.5" cy="3747.01" r="310.315" /> 
<circle cx="15698.5" cy="4747.01" r="310.315" /> 
<circle cx="15698.5" cy="3747.01" r="310.315" /> 
<circle cx="16698.5" cy="4747.01" r="310.315" /> 
<circle cx="16698.5" cy="3747.01" r="310.315" /> 
<circle cx="17698.5" cy="4747.01" r="310.315" /> 
<circle cx="17698.5" cy="3747.01" r="310.315" /> 
<circle cx="18698.5" cy="4747.01" r="310.315" /> 
<circle cx="18698.5" cy="3747.01" r="310.315" /> 
<circle cx="19698.5" cy="4747.01" r="310.315" /> 
<circle cx="19698.5" cy="3747.01" r="310.315" /> 
<circle cx="5198.5" cy="6947.01" r="255.315" /> 
<circle cx="4198.5" cy="6947.01" r="255.315" /> 
<circle cx="6398.5" cy="6947.01" r="255.315" /> 
<circle cx="7398.5" cy="6947.01" r="255.315" /> 
<circle cx="15798.5" cy="6647.01" r="255.315" /> 
<circle cx="14798.5" cy="6647.01" r="255.315" /> 
<circle cx="4741.45" cy="2094.09" r="216.535" /> 
<circle cx="5741.45" cy="2094.09" r="216.535" /> 
<circle cx="6741.45" cy="2094.09" r="216.535" /> 
<circle cx="7741.45" cy="2094.09" r="216.535" /> 
<circle cx="8741.45" cy="2094.09" r="216.535" /> 
<circle cx="9741.45" cy="2094.09" r="216.535" /> 
<circle cx="10741.5" cy="2094.09" r="216.535" /> 
<circle cx="11741.5" cy="2094.09" r="216.535" /> 
<circle cx="12741.5" cy="2094.09" r="216.535" /> 
<circle cx="13741.5" cy="2094.09" r="216.535" /> 
<circle cx="14741.5" cy="2094.09" r="216.535" /> 
<circle cx="15741.5" cy="2094.09" r="216.535" /> 
<circle cx="16741.5" cy="2094.09" r="216.535" /> 
<circle cx="17741.5" cy="2094.09" r="216.535" /> 
<circle cx="18741.5" cy="2094.09" r="216.535" /> 
<circle cx="19741.5" cy="2094.09" r="216.535" /> 
<circle cx="20741.5" cy="2094.09" r="216.535" /> 
<circle cx="4741.45" cy="8393.31" r="216.535" /> 
<circle cx="5741.45" cy="8393.31" r="216.535" /> 
<circle cx="6741.45" cy="8393.31" r="216.535" /> 
<circle cx="7741.45" cy="8393.31" r="216.535" /> 
<circle cx="8741.45" cy="8393.31" r="216.535" /> 
<circle cx="9741.45" cy="8393.31" r="216.535" /> 
<circle cx="10741.5" cy="8393.31" r="216.535" /> 
<circle cx="11741.5" cy="8393.31" r="216.535" /> 
<circle cx="12741.5" cy="8393.31" r="216.535" /> 
<circle cx="13741.5" cy="8393.31" r="216.535" /> 
<circle cx="14741.5" cy="8393.31" r="216.535" /> 
<circle cx="15741.5" cy="8393.31" r="216.535" /> 
<circle cx="16741.5" cy="8393.31" r="216.535" /> 
<circle cx="17741.5" cy="8393.31" r="216.535" /> 
<circle cx="18741.5" cy="8393.31" r="216.535" /> 
<circle cx="19741.5" cy="8393.31" r="216.535" /> 
<circle cx="20741.5" cy="8393.31" r="216.535" /> 
</g>
<g style="fill:#C2C2C2; fill-opacity:1.0; 
stroke:#C2C2C2; stroke-width:39.3701; stroke-opacity:1; 
stroke-linecap:round; stroke-linejoin:round;">
<circle cx="13398.5" cy="5247.01" r="155.315" /> 
<circle cx="12898.5" cy="3747.01" r="155.315" /> 
</g>
<g style="fill:#840000; fill-opacity:1.0; 
stroke:#840000; stroke-width:100; stroke-opacity:1; 
stroke-linecap:round; stroke-linejoin:round;">
</g>
<g style="fill:#840000; fill-opacity:0.0; 
stroke:#840000; stroke-width:100; stroke-opacity:1; 
stroke-linecap:round; stroke-linejoin:round;">
<path d="M10741 7489
L10698 7447
" />
<path d="M10698 7447
L9198 7447
" />
<path d="M9198 7447
L8398 6647
" />
<path d="M10741 8393
L10741 7489
" />
<path d="M8098 6947
L8398 6647
" />
<path d="M7398 6947
L8098 6947
" />
<path d="M11741 7989
L10398 6647
" />
<path d="M11741 8393
L11741 7989
" />
<path d="M5198 6247
L5398 6047
" />
<path d="M5398 6047
L9798 6047
" />
<path d="M9798 6047
L10398 6647
" />
<path d="M5198 6947
L5198 6247
" />
<path d="M15798 7447
L12398 7447
" />
<path d="M12398 7447
L12398 6647
" />
<path d="M15798 6647
L15798 7447
" />
<path d="M12398 8050
L12741 8393
" />
<path d="M12398 7447
L12398 8050
" />
<path d="M5698 5447
L4998 5447
" />
<path d="M4998 5447
L4998 2747
" />
<path d="M4998 2747
L9698 2747
" />
<path d="M9698 2747
L9741 2704
" />
<path d="M9741 2704
L9741 2094
" />
<path d="M5698 4747
L5698 5447
" />
<path d="M13398 2747
L13498 2847
" />
<path d="M13498 2847
L13498 4647
" />
<path d="M13498 4647
L13598 4747
" />
<path d="M13598 4747
L15698 4747
" />
<path d="M9698 2747
L13398 2747
" />
<path d="M5698 3047
L12898 3047
" />
<path d="M5698 3047
L5698 3747
" />
<path d="M12898 3047
L12898 3747
" />
<path d="M4198 7747
L4298 7847
" />
<path d="M4298 7847
L5498 7847
" />
<path d="M5498 7847
L6398 6947
" />
<path d="M4198 6947
L4198 7747
" />
<path d="M9741 7889
L9598 7747
" />
<path d="M9598 7747
L7198 7747
" />
<path d="M7198 7747
L6398 6947
" />
<path d="M9741 8393
L9741 7889
" />
<path d="M13398 5247
L12898 4747
" />
<path d="M12898 4747
L12898 3747
" />
<path d="M8698 5747
L4698 5747
" />
<path d="M18698 5747
L8698 5747
" />
<path d="M4698 5747
L4741 5704
" />
<path d="M4741 5704
L4741 2094
" />
<path d="M18698 4747
L18698 5747
" />
<path d="M8698 4747
L8698 5747
" />
<path d="M16741 7689
L16784 7647
" />
<path d="M16784 7647
L20898 7647
" />
<path d="M20898 7647
L21098 7447
" />
<path d="M21098 7447
L21098 3047
" />
<path d="M21098 3047
L18698 3047
" />
<path d="M18698 3047
L18698 3747
" />
<path d="M16741 8393
L16741 7689
" />
</g>
<g style="fill:#840000; fill-opacity:1.0; 
stroke:#840000; stroke-width:100; stroke-opacity:1; 
stroke-linecap:round; stroke-linejoin:round;">
<polyline style="fill-rule:evenodd;"
points="8406,2447
8007,2447
8010,2433
7741,2164
7472,2433
7475,2447
7076,2447
7153,2369
7227,2191
7227,1997
7194,1916
7288,1916
7250,2027
7262,2220
7313,2343
7401,2363
7670,2094
7665,2088
7735,2017
7741,2023
7747,2017
7817,2088
7812,2094
8081,2363
8169,2343
8232,2160
8220,1967
8199,1916
8288,1916
8255,1996
8255,2190
8329,2369
8406,2447
" /> 
<polyline style="fill-rule:evenodd;"
points="10441,8005
10329,8117
10255,8296
10255,8489
10291,8577
10192,8577
10232,8459
10220,8266
10169,8143
10081,8124
10010,8195
10010,8053
9990,7964
9807,7902
9614,7913
9491,7964
9472,8053
9741,8322
10010,8053
10010,8195
9812,8393
9817,8398
9747,8469
9741,8464
9735,8469
9665,8398
9670,8393
9401,8124
9313,8143
9250,8326
9262,8519
9285,8577
9191,8577
9227,8490
9227,8297
9153,8118
9017,7981
8838,7907
8645,7907
8466,7980
8329,8117
8255,8296
8255,8489
8291,8577
8191,8577
8227,8490
8227,8297
8153,8118
8017,7981
7838,7907
7645,7907
7466,7980
7329,8117
7255,8296
7255,8489
7291,8577
7191,8577
7227,8490
7227,8297
7153,8118
7017,7981
6838,7907
6695,7907
6695,7314
6398,7017
6327,7088
6327,6947
6030,6649
5937,6674
5868,6871
5879,7079
5937,7219
6030,7244
6327,6947
6327,7088
6101,7314
6125,7407
6322,7476
6531,7465
6671,7407
6695,7314
6695,7907
6645,7907
6466,7980
6329,8117
6255,8296
6255,8489
6291,8577
6191,8577
6227,8490
6227,8297
6153,8118
6017,7981
5838,7907
5645,7907
5466,7980
5329,8117
5255,8296
5255,8489
5291,8577
5191,8577
5227,8490
5227,8297
5153,8118
5017,7981
4838,7907
4645,7907
4495,7968
4495,7314
4198,7017
4127,7088
4127,6947
3830,6649
3737,6674
3668,6871
3679,7079
3737,7219
3830,7244
4127,6947
4127,7088
3901,7314
3925,7407
4122,7476
4331,7465
4471,7407
4495,7314
4495,7968
4466,7980
4329,8117
4255,8296
4255,8489
4291,8577
3568,8577
3568,1916
4288,1916
4255,1996
4255,2190
4329,2369
4441,2481
4441,5602
4421,5632
4398,5747
4421,5861
4486,5959
4583,6024
4583,6024
4698,6047
4978,6047
4921,6132
4898,6247
4898,6504
4753,6649
4701,6775
4659,6674
4566,6649
4495,6720
4495,6579
4471,6486
4274,6417
4065,6428
3925,6486
3901,6579
4198,6876
4495,6579
4495,6720
4269,6947
4566,7244
4659,7219
4697,7109
4753,7244
4900,7391
5093,7471
5302,7472
5495,7392
5643,7244
5723,7051
5723,6843
5643,6650
5498,6504
5498,6371
5522,6347
7813,6347
7813,6619
7696,6502
7503,6422
7294,6421
7101,6501
6953,6649
6901,6775
6859,6674
6766,6649
6695,6720
6695,6579
6671,6486
6474,6417
6265,6428
6125,6486
6101,6579
6398,6876
6695,6579
6695,6720
6469,6947
6766,7244
6859,7219
6897,7109
6953,7244
7100,7391
7293,7471
7502,7472
7695,7392
7841,7247
8098,7247
8098,7247
8174,7231
8174,7231
8559,7231
8986,7659
9083,7724
9083,7724
9198,7747
10441,7747
10441,8005
" /> 
<polyline style="fill-rule:evenodd;"
points="18398,5447
8998,5447
8998,5250
9026,5238
9189,5075
9198,5055
9206,5075
9369,5238
9582,5326
9813,5327
10026,5238
10189,5075
10278,4862
10278,4632
10190,4418
10027,4255
10007,4247
10026,4238
10189,4075
10278,3862
10278,3632
10190,3418
10027,3255
9814,3167
9583,3166
9370,3255
9207,3418
9198,3438
9190,3418
9027,3255
8814,3167
8583,3166
8370,3255
8207,3418
8198,3438
8190,3418
8027,3255
7814,3167
7583,3166
7370,3255
7207,3418
7198,3438
7190,3418
7027,3255
6814,3167
6583,3166
6370,3255
6207,3418
6198,3439
6106,3410
6035,3480
5769,3747
6106,4083
6198,4054
6206,4075
6369,4238
6389,4246
6370,4255
6207,4418
6198,4438
6190,4418
6027,4255
6006,4246
6035,4154
5698,3817
5692,3823
5622,3752
5627,3747
5622,3741
5692,3670
5698,3676
6035,3339
6004,3240
5787,3162
5556,3172
5392,3240
5361,3339
5316,3294
5298,3312
5298,3047
9698,3047
13198,3047
13198,4647
13221,4761
13286,4859
13386,4959
13386,4959
13483,5024
13598,5047
15194,5047
15206,5075
15369,5238
15582,5326
15813,5327
16026,5238
16189,5075
16198,5055
16206,5075
16369,5238
16582,5326
16813,5327
17026,5238
17189,5075
17198,5055
17206,5075
17369,5238
17582,5326
17813,5327
18026,5238
18189,5075
18198,5055
18206,5075
18369,5238
18398,5250
18398,5447
" /> 
<polyline style="fill-rule:evenodd;"
points="20798,7322
20774,7347
16784,7347
16669,7369
16630,7395
16572,7434
16529,7477
16464,7575
16441,7689
16441,8005
16329,8117
16255,8296
16255,8489
16291,8577
16191,8577
16227,8490
16227,8297
16153,8118
16017,7981
15838,7907
15645,7907
15466,7980
15329,8117
15255,8296
15255,8489
15291,8577
15191,8577
15227,8490
15227,8297
15153,8118
15017,7981
14838,7907
14645,7907
14466,7980
14329,8117
14255,8296
14255,8489
14291,8577
14191,8577
14227,8490
14227,8297
14153,8118
14017,7981
13838,7907
13645,7907
13466,7980
13329,8117
13255,8296
13255,8489
13291,8577
13191,8577
13227,8490
13227,8297
13153,8118
13017,7981
12838,7907
12698,7907
12698,7747
15798,7747
15913,7724
16010,7659
16075,7561
16098,7447
16098,7089
16243,6944
16323,6751
16323,6543
16243,6350
16096,6202
15903,6122
15694,6121
15501,6201
15353,6349
15301,6475
15259,6374
15166,6349
15095,6420
15095,6279
15071,6186
14874,6117
14665,6128
14525,6186
14501,6279
14798,6576
15095,6279
15095,6420
14869,6647
15166,6944
15259,6919
15297,6809
15353,6944
15498,7089
15498,7147
14976,7147
15071,7107
15095,7014
14798,6717
14727,6788
14727,6647
14430,6349
14337,6374
14268,6571
14279,6779
14337,6919
14430,6944
14727,6647
14727,6788
14501,7014
14525,7107
14637,7147
13707,7147
13726,7138
13889,6975
13978,6762
13978,6532
13890,6318
13727,6155
13514,6067
13283,6066
13070,6155
12907,6318
12898,6338
12890,6318
12727,6155
12514,6067
12283,6066
12070,6155
11907,6318
11898,6338
11890,6318
11727,6155
11514,6067
11283,6066
11070,6155
10907,6318
10898,6338
10890,6318
10727,6155
10514,6067
10283,6066
10254,6078
10222,6047
18698,6047
18813,6024
18910,5959
18975,5861
18998,5747
18998,5250
19026,5238
19189,5075
19198,5055
19206,5075
19369,5238
19582,5326
19813,5327
20026,5238
20189,5075
20278,4862
20278,4632
20190,4418
20027,4255
20007,4247
20026,4238
20189,4075
20278,3862
20278,3632
20190,3418
20118,3347
20798,3347
20798,7322
" /> 
<polyline style="fill-rule:evenodd;"
points="22028,8577
21191,8577
21227,8490
21227,8297
21153,8118
21017,7981
20922,7942
21013,7924
21013,7924
21110,7859
21310,7659
21310,7659
21375,7561
21398,7447
21398,7447
21398,3047
21375,2932
21310,2834
21213,2769
21098,2747
18698,2747
18583,2769
18486,2834
18421,2932
18398,3047
18398,3243
18370,3255
18207,3418
18198,3438
18190,3418
18027,3255
17814,3167
17583,3166
17370,3255
17207,3418
17198,3438
17190,3418
17027,3255
16814,3167
16583,3166
16370,3255
16207,3418
16198,3439
16106,3410
16035,3480
16035,3339
16004,3240
15787,3162
15556,3172
15392,3240
15361,3339
15698,3676
16035,3339
16035,3480
15769,3747
16106,4083
16198,4054
16206,4075
16369,4238
16389,4246
16370,4255
16207,4418
16198,4438
16190,4418
16027,4255
16006,4246
16035,4154
15698,3817
15627,3888
15627,3747
15290,3410
15192,3441
15113,3658
15124,3888
15192,4052
15290,4083
15627,3747
15627,3888
15361,4154
15390,4246
15370,4255
15207,4418
15195,4447
13798,4447
13798,2847
13775,2732
13710,2634
13710,2634
13655,2580
13837,2580
14016,2506
14153,2369
14227,2191
14227,1997
14194,1916
14288,1916
14255,1996
14255,2190
14329,2369
14465,2506
14644,2580
14837,2580
15016,2506
15153,2369
15227,2191
15227,1997
15194,1916
15288,1916
15255,1996
15255,2190
15329,2369
15465,2506
15644,2580
15837,2580
16016,2506
16153,2369
16227,2191
16227,1997
16194,1916
16288,1916
16255,1996
16255,2190
16329,2369
16465,2506
16644,2580
16837,2580
17016,2506
17153,2369
17227,2191
17227,1997
17194,1916
17288,1916
17255,1996
17255,2190
17329,2369
17465,2506
17644,2580
17837,2580
18016,2506
18153,2369
18227,2191
18227,1997
18194,1916
18288,1916
18255,1996
18255,2190
18329,2369
18465,2506
18644,2580
18837,2580
19016,2506
19153,2369
19227,2191
19227,1997
19194,1916
19288,1916
19255,1996
19255,2190
19329,2369
19465,2506
19644,2580
19837,2580
20016,2506
20153,2369
20227,2191
20227,1997
20194,1916
20288,1916
20255,1996
20255,2190
20329,2369
20465,2506
20644,2580
20837,2580
21016,2506
21153,2369
21227,2191
21227,1997
21194,1916
22028,1916
22028,8577
" /> 
</g>
<g style="fill:#FFFFFF; fill-opacity:1.0; 
stroke:#FFFFFF; stroke-width:39.3701; stroke-opacity:1; 
stroke-linecap:round; stroke-linejoin:round;">
<circle cx="13398.5" cy="5247.01" r="105.315" /> 
<circle cx="12898.5" cy="3747.01" r="105.315" /> 
<circle cx="8398.5" cy="6647.01" r="180.315" /> 
<circle cx="9398.5" cy="6647.01" r="180.315" /> 
<circle cx="10398.5" cy="6647.01" r="180.315" /> 
<circle cx="11398.5" cy="6647.01" r="180.315" /> 
<circle cx="12398.5" cy="6647.01" r="180.315" /> 
<circle cx="13398.5" cy="6647.01" r="180.315" /> 
<circle cx="5698.5" cy="4747.01" r="180.315" /> 
<circle cx="5698.5" cy="3747.01" r="180.315" /> 
<circle cx="6698.5" cy="4747.01" r="180.315" /> 
<circle cx="6698.5" cy="3747.01" r="180.315" /> 
<circle cx="7698.5" cy="4747.01" r="180.315" /> 
<circle cx="7698.5" cy="3747.01" r="180.315" /> 
<circle cx="8698.5" cy="4747.01" r="180.315" /> 
<circle cx="8698.5" cy="3747.01" r="180.315" /> 
<circle cx="9698.5" cy="4747.01" r="180.315" /> 
<circle cx="9698.5" cy="3747.01" r="180.315" /> 
<circle cx="15698.5" cy="4747.01" r="180.315" /> 
<circle cx="15698.5" cy="3747.01" r="180.315" /> 
<circle cx="16698.5" cy="4747.01" r="180.315" /> 
<circle cx="16698.5" cy="3747.01" r="180.315" /> 
<circle cx="17698.5" cy="4747.01" r="180.315" /> 
<circle cx="17698.5" cy="3747.01" r="180.315" /> 
<circle cx="18698.5" cy="4747.01" r="180.315" /> 
<circle cx="18698.5" cy="3747.01" r="180.315" /> 
<circle cx="19698.5" cy="4747.01" r="180.315" /> 
<circle cx="19698.5" cy="3747.01" r="180.315" /> 
<circle cx="5198.5" cy="6947.01" r="140.315" /> 
<circle cx="4198.5" cy="6947.01" r="140.315" /> 
<circle cx="6398.5" cy="6947.01" r="140.315" /> 
<circle cx="7398.5" cy="6947.01" r="140.315" /> 
<circle cx="15798.5" cy="6647.01" r="140.315" /> 
<circle cx="14798.5" cy="6647.01" r="140.315" /> 
<circle cx="4741.45" cy="2094.09" r="137.795" /> 
<circle cx="5741.45" cy="2094.09" r="137.795" /> 
<circle cx="6741.45" cy="2094.09" r="137.795" /> 
<circle cx="7741.45" cy="2094.09" r="137.795" /> 
<circle cx="8741.45" cy="2094.09" r="137.795" /> 
<circle cx="9741.45" cy="2094.09" r="137.795" /> 
<circle cx="10741.5" cy="2094.09" r="137.795" /> 
<circle cx="11741.5" cy="2094.09" r="137.795" /> 
<circle cx="12741.5" cy="2094.09" r="137.795" /> 
<circle cx="13741.5" cy="2094.09" r="137.795" /> 
<circle cx="14741.5" cy="2094.09" r="137.795" /> 
<circle cx="15741.5" cy="2094.09" r="137.795" /> 
<circle cx="16741.5" cy="2094.09" r="137.795" /> 
<circle cx="17741.5" cy="2094.09" r="137.795" /> 
<circle cx="18741.5" cy="2094.09" r="137.795" /> 
<circle cx="19741.5" cy="2094.09" r="137.795" /> 
<circle cx="20741.5" cy="2094.09" r="137.795" /> 
<circle cx="4741.45" cy="8393.31" r="137.795" /> 
<circle cx="5741.45" cy="8393.31" r="137.795" /> 
<circle cx="6741.45" cy="8393.31" r="137.795" /> 
<circle cx="7741.45" cy="8393.31" r="137.795" /> 
<circle cx="8741.45" cy="8393.31" r="137.795" /> 
<circle cx="9741.45" cy="8393.31" r="137.795" /> 
<circle cx="10741.5" cy="8393.31" r="137.795" /> 
<circle cx="11741.5" cy="8393.31" r="137.795" /> 
<circle cx="12741.5" cy="8393.31" r="137.795" /> 
<circle cx="13741.5" cy="8393.31" r="137.795" /> 
<circle cx="14741.5" cy="8393.31" r="137.795" /> 
<circle cx="15741.5" cy="8393.31" r="137.795" /> 
<circle cx="16741.5" cy="8393.31" r="137.795" /> 
<circle cx="17741.5" cy="8393.31" r="137.795" /> 
<circle cx="18741.5" cy="8393.31" r="137.795" /> 
<circle cx="19741.5" cy="8393.31" r="137.795" /> 
<circle cx="20741.5" cy="8393.31" r="137.795" /> 
</g>
<g style="fill:#008484; fill-opacity:1.0; 
stroke:#008484; stroke-width:50; stroke-opacity:1; 
stroke-linecap:round; stroke-linejoin:round;">
</g>
<g style="fill:#008484; fill-opacity:0.0; 
stroke:#008484; stroke-width:50; stroke-opacity:1; 
stroke-linecap:round; stroke-linejoin:round;">
<path d="M8798 7147
L7998 7147
" />
<path d="M7998 6147
L8798 6147
" />
<path d="M7898 7047
L7898 6247
" />
<path d="M8198 6847
L8048 6997
" />
<path d="M8598 6847
L8748 6997
" />
<path d="M8598 6447
L8748 6297
" />
<path d="M8198 6447
L8048 6297
" />
<path d="M8048 6297
L8748 6297
" />
<path d="M8748 6297
L8748 6997
" />
<path d="M8748 6997
L8048 6997
" />
<path d="M8048 6997
L8048 6297
" />
<path d="M8598 6447
L8598 6847
" />
<path d="M8598 6847
L8198 6847
" />
<path d="M8198 6847
L8198 6447
" />
<path d="M8198 6447
L8598 6447
" />
<path d="M8798 6147
L8898 6247
" />
<path d="M8898 7047
L8798 7147
" />
<path d="M7998 7147
L7898 7047
" />
<path d="M7898 6247
L7998 6147
" />
<path d="M13898 7047
L13898 6247
" />
<path d="M13798 7147
L12998 7147
" />
<path d="M12998 6147
L13798 6147
" />
<path d="M13198 6847
L13048 6997
" />
<path d="M13598 6847
L13748 6997
" />
<path d="M13598 6447
L13748 6297
" />
<path d="M13198 6447
L13048 6297
" />
<path d="M13048 6297
L13748 6297
" />
<path d="M13748 6297
L13748 6997
" />
<path d="M13748 6997
L13048 6997
" />
<path d="M13048 6997
L13048 6297
" />
<path d="M13598 6447
L13598 6847
" />
<path d="M13598 6847
L13198 6847
" />
<path d="M13198 6847
L13198 6447
" />
<path d="M13198 6447
L13598 6447
" />
<path d="M13798 6147
L13898 6247
" />
<path d="M13898 7047
L13798 7147
" />
<path d="M12998 7147
L12898 7047
" />
<path d="M12898 6247
L12998 6147
" />
<path d="M9798 7147
L8998 7147
" />
<path d="M8998 6147
L9798 6147
" />
<path d="M9198 6847
L9048 6997
" />
<path d="M9598 6847
L9748 6997
" />
<path d="M9598 6447
L9748 6297
" />
<path d="M9198 6447
L9048 6297
" />
<path d="M9048 6297
L9748 6297
" />
<path d="M9748 6297
L9748 6997
" />
<path d="M9748 6997
L9048 6997
" />
<path d="M9048 6997
L9048 6297
" />
<path d="M9598 6447
L9598 6847
" />
<path d="M9598 6847
L9198 6847
" />
<path d="M9198 6847
L9198 6447
" />
<path d="M9198 6447
L9598 6447
" />
<path d="M9798 6147
L9898 6247
" />
<path d="M9898 7047
L9798 7147
" />
<path d="M8998 7147
L8898 7047
" />
<path d="M8898 6247
L8998 6147
" />
<path d="M12798 7147
L11998 7147
" />
<path d="M11998 6147
L12798 6147
" />
<path d="M12198 6847
L12048 6997
" />
<path d="M12598 6847
L12748 6997
" />
<path d="M12598 6447
L12748 6297
" />
<path d="M12198 6447
L12048 6297
" />
<path d="M12048 6297
L12748 6297
" />
<path d="M12748 6297
L12748 6997
" />
<path d="M12748 6997
L12048 6997
" />
<path d="M12048 6997
L12048 6297
" />
<path d="M12598 6447
L12598 6847
" />
<path d="M12598 6847
L12198 6847
" />
<path d="M12198 6847
L12198 6447
" />
<path d="M12198 6447
L12598 6447
" />
<path d="M12798 6147
L12898 6247
" />
<path d="M12898 7047
L12798 7147
" />
<path d="M11998 7147
L11898 7047
" />
<path d="M11898 6247
L11998 6147
" />
<path d="M11798 7147
L10998 7147
" />
<path d="M10998 6147
L11798 6147
" />
<path d="M11198 6847
L11048 6997
" />
<path d="M11598 6847
L11748 6997
" />
<path d="M11598 6447
L11748 6297
" />
<path d="M11198 6447
L11048 6297
" />
<path d="M11048 6297
L11748 6297
" />
<path d="M11748 6297
L11748 6997
" />
<path d="M11748 6997
L11048 6997
" />
<path d="M11048 6997
L11048 6297
" />
<path d="M11598 6447
L11598 6847
" />
<path d="M11598 6847
L11198 6847
" />
<path d="M11198 6847
L11198 6447
" />
<path d="M11198 6447
L11598 6447
" />
<path d="M11798 6147
L11898 6247
" />
<path d="M11898 7047
L11798 7147
" />
<path d="M10998 7147
L10898 7047
" />
<path d="M10898 6247
L10998 6147
" />
<path d="M10798 7147
L9998 7147
" />
<path d="M9998 6147
L10798 6147
" />
<path d="M10198 6847
L10048 6997
" />
<path d="M10598 6847
L10748 6997
" />
<path d="M10598 6447
L10748 6297
" />
<path d="M10198 6447
L10048 6297
" />
<path d="M10048 6297
L10748 6297
" />
<path d="M10748 6297
L10748 6997
" />
<path d="M10748 6997
L10048 6997
" />
<path d="M10048 6997
L10048 6297
" />
<path d="M10598 6447
L10598 6847
" />
<path d="M10598 6847
L10198 6847
" />
<path d="M10198 6847
L10198 6447
" />
<path d="M10198 6447
L10598 6447
" />
<path d="M10798 6147
L10898 6247
" />
<path d="M10898 7047
L10798 7147
" />
<path d="M9998 7147
L9898 7047
" />
<path d="M9898 6247
L9998 6147
" />
<path d="M8498 5547
L8498 5897
" />
<path d="M6898 5547
L6898 5897
" />
<path d="M5748 5347
L5698 5397
" />
<path d="M5648 5347
L5698 5397
" />
<path d="M5598 5347
L5698 5447
" />
<path d="M5698 5447
L5798 5347
" />
<path d="M5798 5347
L5598 5347
" />
<path d="M11248 2947
L4148 2947
" />
<path d="M4148 2947
L4148 5547
" />
<path d="M4148 5547
L11248 5547
" />
<path d="M11248 5547
L11248 2947
" />
<path d="M11698 2597
L3698 2597
" />
<path d="M3698 2597
L3698 5897
" />
<path d="M3698 5897
L11698 5897
" />
<path d="M11698 5897
L11698 2597
" />
<path d="M9198 3497
L9448 3247
" />
<path d="M9448 3247
L9948 3247
" />
<path d="M9948 3247
L10198 3497
" />
<path d="M10198 3497
L10198 4997
" />
<path d="M10198 4997
L9948 5247
" />
<path d="M9948 5247
L9448 5247
" />
<path d="M9448 5247
L9198 4997
" />
<path d="M8198 3497
L8448 3247
" />
<path d="M8448 3247
L8948 3247
" />
<path d="M8948 3247
L9198 3497
" />
<path d="M9198 3497
L9198 4997
" />
<path d="M9198 4997
L8948 5247
" />
<path d="M8948 5247
L8448 5247
" />
<path d="M8448 5247
L8198 4997
" />
<path d="M7198 3497
L7448 3247
" />
<path d="M7448 3247
L7948 3247
" />
<path d="M7948 3247
L8198 3497
" />
<path d="M8198 3497
L8198 4997
" />
<path d="M8198 4997
L7948 5247
" />
<path d="M7948 5247
L7448 5247
" />
<path d="M7448 5247
L7198 4997
" />
<path d="M6198 3497
L6448 3247
" />
<path d="M6448 3247
L6948 3247
" />
<path d="M6948 3247
L7198 3497
" />
<path d="M7198 3497
L7198 4997
" />
<path d="M7198 4997
L6948 5247
" />
<path d="M6948 5247
L6448 5247
" />
<path d="M6448 5247
L6198 4997
" />
<path d="M5448 5247
L5198 4997
" />
<path d="M5198 4997
L5198 3497
" />
<path d="M5198 3497
L5448 3247
" />
<path d="M5448 3247
L5948 3247
" />
<path d="M5948 3247
L6198 3497
" />
<path d="M6198 3497
L6198 4997
" />
<path d="M6198 4997
L5948 5247
" />
<path d="M5948 5247
L5448 5247
" />
<path d="M18498 5547
L18498 5897
" />
<path d="M16898 5547
L16898 5897
" />
<path d="M15748 5347
L15698 5397
" />
<path d="M15648 5347
L15698 5397
" />
<path d="M15598 5347
L15698 5447
" />
<path d="M15698 5447
L15798 5347
" />
<path d="M15798 5347
L15598 5347
" />
<path d="M21248 2947
L14148 2947
" />
<path d="M14148 2947
L14148 5547
" />
<path d="M14148 5547
L21248 5547
" />
<path d="M21248 5547
L21248 2947
" />
<path d="M21698 2597
L13698 2597
" />
<path d="M13698 2597
L13698 5897
" />
<path d="M13698 5897
L21698 5897
" />
<path d="M21698 5897
L21698 2597
" />
<path d="M19198 3497
L19448 3247
" />
<path d="M19448 3247
L19948 3247
" />
<path d="M19948 3247
L20198 3497
" />
<path d="M20198 3497
L20198 4997
" />
<path d="M20198 4997
L19948 5247
" />
<path d="M19948 5247
L19448 5247
" />
<path d="M19448 5247
L19198 4997
" />
<path d="M18198 3497
L18448 3247
" />
<path d="M18448 3247
L18948 3247
" />
<path d="M18948 3247
L19198 3497
" />
<path d="M19198 3497
L19198 4997
" />
<path d="M19198 4997
L18948 5247
" />
<path d="M18948 5247
L18448 5247
" />
<path d="M18448 5247
L18198 4997
" />
<path d="M17198 3497
L17448 3247
" />
<path d="M17448 3247
L17948 3247
" />
<path d="M17948 3247
L18198 3497
" />
<path d="M18198 3497
L18198 4997
" />
<path d="M18198 4997
L17948 5247
" />
<path d="M17948 5247
L17448 5247
" />
<path d="M17448 5247
L17198 4997
" />
<path d="M16198 3497
L16448 3247
" />
<path d="M16448 3247
L16948 3247
" />
<path d="M16948 3247
L17198 3497
" />
<path d="M17198 3497
L17198 4997
" />
<path d="M17198 4997
L16948 5247
" />
<path d="M16948 5247
L16448 5247
" />
<path d="M16448 5247
L16198 4997
" />
<path d="M15448 5247
L15198 4997
" />
<path d="M15198 4997
L15198 3497
" />
<path d="M15198 3497
L15448 3247
" />
<path d="M15448 3247
L15948 3247
" />
<path d="M15948 3247
L16198 3497
" />
<path d="M16198 3497
L16198 4997
" />
<path d="M16198 4997
L15948 5247
" />
<path d="M15948 5247
L15448 5247
" />
</g>
<g style="fill:#008484; fill-opacity:0.0; 
stroke:#008484; stroke-width:59.0551; stroke-opacity:1; 
stroke-linecap:round; stroke-linejoin:round;">
<path d="M5198 6947
L4198 6947
" />
<circle cx="5198.5" cy="6947.01" r="559.017" /> 
<path d="M6398 6947
L7398 6947
" />
<circle cx="6398.5" cy="6947.01" r="559.017" /> 
<path d="M15798 6647
L14798 6647
" />
<circle cx="15798.5" cy="6647.01" r="559.017" /> 
<circle cx="3757.2" cy="8393.31" r="196.85" /> 
<circle cx="3757.2" cy="2094.09" r="196.85" /> 
<circle cx="21867.4" cy="8393.31" r="196.85" /> 
<circle cx="21867.4" cy="2094.09" r="196.85" /> 
<path d="M3363 1700
L22261 1700
" />
<path d="M22261 1700
L22261 8787
" />
<path d="M22261 8787
L3363 8787
" />
<path d="M3363 8787
L3363 1700
" />
</g>
<g style="fill:#008484; fill-opacity:0.0; 
stroke:#008484; stroke-width:30; stroke-opacity:1; 
stroke-linecap:round; stroke-linejoin:round;">
<path d="M8521 7791
L8521 7471
" />
<path d="M8521 7624
L8704 7624
" />
<path d="M8704 7791
L8704 7471
" />
<path d="M8856 7791
L8856 7471
L8932 7471
L8978 7487
L9008 7517
L9024 7547
L9039 7608
L9039 7654
L9024 7715
L9008 7746
L8978 7776
L8932 7791
L8856 7791
" />
<path d="M9359 7791
L9252 7639
" />
<path d="M9176 7791
L9176 7471
L9298 7471
L9328 7487
L9344 7502
L9359 7532
L9359 7578
L9344 7608
L9328 7624
L9298 7639
L9176 7639
" />
<path d="M9420 7822
L9664 7822
" />
<path d="M9847 7624
L9892 7639
L9908 7654
L9923 7685
L9923 7730
L9908 7761
L9892 7776
L9862 7791
L9740 7791
L9740 7471
L9847 7471
L9877 7487
L9892 7502
L9908 7532
L9908 7563
L9892 7593
L9877 7608
L9847 7624
L9740 7624
" />
<path d="M10060 7471
L10060 7730
L10075 7761
L10090 7776
L10121 7791
L10182 7791
L10212 7776
L10228 7761
L10243 7730
L10243 7471
" />
<path d="M10349 7471
L10532 7471
" />
<path d="M10441 7791
L10441 7471
" />
<path d="M10593 7471
L10776 7471
" />
<path d="M10685 7791
L10685 7471
" />
<path d="M10944 7471
L11005 7471
L11035 7487
L11066 7517
L11081 7578
L11081 7685
L11066 7746
L11035 7776
L11005 7791
L10944 7791
L10913 7776
L10883 7746
L10868 7685
L10868 7578
L10883 7517
L10913 7487
L10944 7471
" />
<path d="M11218 7791
L11218 7471
L11401 7791
L11401 7471
" />
<path d="M11538 7776
L11584 7791
L11660 7791
L11690 7776
L11706 7761
L11721 7730
L11721 7700
L11706 7669
L11690 7654
L11660 7639
L11599 7624
L11568 7608
L11553 7593
L11538 7563
L11538 7532
L11553 7502
L11568 7487
L11599 7471
L11675 7471
L11721 7487
" />
<path d="M11782 7822
L12026 7822
" />
<path d="M12102 7791
L12102 7471
L12208 7700
L12315 7471
L12315 7791
" />
<path d="M12650 7761
L12635 7776
L12589 7791
L12559 7791
L12513 7776
L12483 7746
L12468 7715
L12452 7654
L12452 7608
L12468 7547
L12483 7517
L12513 7487
L12559 7471
L12589 7471
L12635 7487
L12650 7502
" />
<path d="M12788 7471
L12788 7730
L12803 7761
L12818 7776
L12848 7791
L12909 7791
L12940 7776
L12955 7761
L12970 7730
L12970 7471
" />
<path d="M13290 7791
L13108 7791
" />
<path d="M13199 7791
L13199 7471
L13168 7517
L13138 7547
L13108 7563
" />
<path d="M8963 5791
L8963 5471
L9069 5700
L9176 5471
L9176 5791
" />
<path d="M9389 5471
L9450 5471
L9481 5487
L9511 5517
L9527 5578
L9527 5685
L9511 5746
L9481 5776
L9450 5791
L9389 5791
L9359 5776
L9328 5746
L9313 5685
L9313 5578
L9328 5517
L9359 5487
L9389 5471
" />
<path d="M9847 5791
L9740 5639
" />
<path d="M9664 5791
L9664 5471
L9786 5471
L9816 5487
L9831 5502
L9847 5532
L9847 5578
L9831 5608
L9816 5624
L9786 5639
L9664 5639
" />
<path d="M10045 5471
L10106 5471
L10136 5487
L10167 5517
L10182 5578
L10182 5685
L10167 5746
L10136 5776
L10106 5791
L10045 5791
L10014 5776
L9984 5746
L9968 5685
L9968 5578
L9984 5517
L10014 5487
L10045 5471
" />
<path d="M10304 5776
L10349 5791
L10426 5791
L10456 5776
L10471 5761
L10487 5730
L10487 5700
L10471 5669
L10456 5654
L10426 5639
L10365 5624
L10334 5608
L10319 5593
L10304 5563
L10304 5532
L10319 5502
L10334 5487
L10365 5471
L10441 5471
L10487 5487
" />
<path d="M10548 5822
L10791 5822
" />
<path d="M10974 5624
L11020 5639
L11035 5654
L11050 5685
L11050 5730
L11035 5761
L11020 5776
L10989 5791
L10868 5791
L10868 5471
L10974 5471
L11005 5487
L11020 5502
L11035 5532
L11035 5563
L11020 5593
L11005 5608
L10974 5624
L10868 5624
" />
<path d="M11188 5471
L11188 5730
L11203 5761
L11218 5776
L11248 5791
L11309 5791
L11340 5776
L11355 5761
L11370 5730
L11370 5471
" />
<path d="M11477 5471
L11660 5471
" />
<path d="M11568 5791
L11568 5471
" />
<path d="M11721 5471
L11904 5471
" />
<path d="M11812 5791
L11812 5471
" />
<path d="M12071 5471
L12132 5471
L12163 5487
L12193 5517
L12208 5578
L12208 5685
L12193 5746
L12163 5776
L12132 5791
L12071 5791
L12041 5776
L12010 5746
L11995 5685
L11995 5578
L12010 5517
L12041 5487
L12071 5471
" />
<path d="M12346 5791
L12346 5471
L12528 5791
L12528 5471
" />
<path d="M12666 5776
L12711 5791
L12788 5791
L12818 5776
L12833 5761
L12848 5730
L12848 5700
L12833 5669
L12818 5654
L12788 5639
L12727 5624
L12696 5608
L12681 5593
L12666 5563
L12666 5532
L12681 5502
L12696 5487
L12727 5471
L12803 5471
L12848 5487
" />
<path d="M6410 6391
L6410 6071
" />
<path d="M6410 6224
L6593 6224
" />
<path d="M6593 6391
L6593 6071
" />
<path d="M6746 6391
L6746 6071
L6822 6071
L6868 6087
L6898 6117
L6913 6147
L6928 6208
L6928 6254
L6913 6315
L6898 6346
L6868 6376
L6822 6391
L6746 6391
" />
<path d="M7248 6391
L7142 6239
" />
<path d="M7066 6391
L7066 6071
L7188 6071
L7218 6087
L7233 6102
L7248 6132
L7248 6178
L7233 6208
L7218 6224
L7188 6239
L7066 6239
" />
<path d="M7309 6422
L7553 6422
" />
<path d="M7690 6071
L7751 6071
L7782 6087
L7812 6117
L7828 6178
L7828 6285
L7812 6346
L7782 6376
L7751 6391
L7690 6391
L7660 6376
L7629 6346
L7614 6285
L7614 6178
L7629 6117
L7660 6087
L7690 6071
" />
<path d="M8117 6391
L7965 6391
L7965 6071
" />
<path d="M8224 6224
L8330 6224
" />
<path d="M8376 6391
L8224 6391
L8224 6071
L8376 6071
" />
<path d="M8513 6391
L8513 6071
L8589 6071
L8635 6087
L8666 6117
L8681 6147
L8696 6208
L8696 6254
L8681 6315
L8666 6346
L8635 6376
L8589 6391
L8513 6391
" />
<path d="M9001 6391
L8818 6391
" />
<path d="M8909 6391
L8909 6071
L8879 6117
L8848 6147
L8818 6163
" />
<path d="M5610 2391
L5610 2071
L5717 2300
L5824 2071
L5824 2391
" />
<path d="M6037 2071
L6098 2071
L6128 2087
L6159 2117
L6174 2178
L6174 2285
L6159 2346
L6128 2376
L6098 2391
L6037 2391
L6007 2376
L5976 2346
L5961 2285
L5961 2178
L5976 2117
L6007 2087
L6037 2071
" />
<path d="M6494 2391
L6388 2239
" />
<path d="M6311 2391
L6311 2071
L6433 2071
L6464 2087
L6479 2102
L6494 2132
L6494 2178
L6479 2208
L6464 2224
L6433 2239
L6311 2239
" />
<path d="M6692 2071
L6753 2071
L6784 2087
L6814 2117
L6829 2178
L6829 2285
L6814 2346
L6784 2376
L6753 2391
L6692 2391
L6662 2376
L6631 2346
L6616 2285
L6616 2178
L6631 2117
L6662 2087
L6692 2071
" />
<path d="M6951 2376
L6997 2391
L7073 2391
L7104 2376
L7119 2361
L7134 2330
L7134 2300
L7119 2269
L7104 2254
L7073 2239
L7012 2224
L6982 2208
L6967 2193
L6951 2163
L6951 2132
L6967 2102
L6982 2087
L7012 2071
L7088 2071
L7134 2087
" />
<path d="M7195 2422
L7439 2422
" />
<path d="M7576 2071
L7637 2071
L7668 2087
L7698 2117
L7713 2178
L7713 2285
L7698 2346
L7668 2376
L7637 2391
L7576 2391
L7546 2376
L7515 2346
L7500 2285
L7500 2178
L7515 2117
L7546 2087
L7576 2071
" />
<path d="M8003 2391
L7850 2391
L7850 2071
" />
<path d="M8109 2224
L8216 2224
" />
<path d="M8262 2391
L8109 2391
L8109 2071
L8262 2071
" />
<path d="M8399 2391
L8399 2071
L8475 2071
L8521 2087
L8551 2117
L8567 2147
L8582 2208
L8582 2254
L8567 2315
L8551 2346
L8521 2376
L8475 2391
L8399 2391
" />
<path d="M8643 2422
L8887 2422
" />
<path d="M8963 2391
L8963 2071
" />
<path d="M8963 2224
L9146 2224
" />
<path d="M9146 2391
L9146 2071
" />
<path d="M9298 2391
L9298 2071
L9374 2071
L9420 2087
L9450 2117
L9466 2147
L9481 2208
L9481 2254
L9466 2315
L9450 2346
L9420 2376
L9374 2391
L9298 2391
" />
<path d="M9801 2391
L9694 2239
" />
<path d="M9618 2391
L9618 2071
L9740 2071
L9770 2087
L9786 2102
L9801 2132
L9801 2178
L9786 2208
L9770 2224
L9740 2239
L9618 2239
" />
<path d="M16410 6391
L16410 6071
" />
<path d="M16410 6224
L16593 6224
" />
<path d="M16593 6391
L16593 6071
" />
<path d="M16746 6391
L16746 6071
L16822 6071
L16868 6087
L16898 6117
L16913 6147
L16928 6208
L16928 6254
L16913 6315
L16898 6346
L16868 6376
L16822 6391
L16746 6391
" />
<path d="M17248 6391
L17142 6239
" />
<path d="M17066 6391
L17066 6071
L17188 6071
L17218 6087
L17233 6102
L17248 6132
L17248 6178
L17233 6208
L17218 6224
L17188 6239
L17066 6239
" />
<path d="M17309 6422
L17553 6422
" />
<path d="M17690 6071
L17751 6071
L17782 6087
L17812 6117
L17828 6178
L17828 6285
L17812 6346
L17782 6376
L17751 6391
L17690 6391
L17660 6376
L17629 6346
L17614 6285
L17614 6178
L17629 6117
L17660 6087
L17690 6071
" />
<path d="M18117 6391
L17965 6391
L17965 6071
" />
<path d="M18224 6224
L18330 6224
" />
<path d="M18376 6391
L18224 6391
L18224 6071
L18376 6071
" />
<path d="M18513 6391
L18513 6071
L18589 6071
L18635 6087
L18666 6117
L18681 6147
L18696 6208
L18696 6254
L18681 6315
L18666 6346
L18635 6376
L18589 6391
L18513 6391
" />
<path d="M18818 6102
L18833 6087
L18864 6071
L18940 6071
L18970 6087
L18986 6102
L19001 6132
L19001 6163
L18986 6208
L18803 6391
L19001 6391
" />
<path d="M15610 2391
L15610 2071
L15717 2300
L15824 2071
L15824 2391
" />
<path d="M16037 2071
L16098 2071
L16128 2087
L16159 2117
L16174 2178
L16174 2285
L16159 2346
L16128 2376
L16098 2391
L16037 2391
L16007 2376
L15976 2346
L15961 2285
L15961 2178
L15976 2117
L16007 2087
L16037 2071
" />
<path d="M16494 2391
L16388 2239
" />
<path d="M16311 2391
L16311 2071
L16433 2071
L16464 2087
L16479 2102
L16494 2132
L16494 2178
L16479 2208
L16464 2224
L16433 2239
L16311 2239
" />
<path d="M16692 2071
L16753 2071
L16784 2087
L16814 2117
L16829 2178
L16829 2285
L16814 2346
L16784 2376
L16753 2391
L16692 2391
L16662 2376
L16631 2346
L16616 2285
L16616 2178
L16631 2117
L16662 2087
L16692 2071
" />
<path d="M16951 2376
L16997 2391
L17073 2391
L17104 2376
L17119 2361
L17134 2330
L17134 2300
L17119 2269
L17104 2254
L17073 2239
L17012 2224
L16982 2208
L16967 2193
L16951 2163
L16951 2132
L16967 2102
L16982 2087
L17012 2071
L17088 2071
L17134 2087
" />
<path d="M17195 2422
L17439 2422
" />
<path d="M17576 2071
L17637 2071
L17668 2087
L17698 2117
L17713 2178
L17713 2285
L17698 2346
L17668 2376
L17637 2391
L17576 2391
L17546 2376
L17515 2346
L17500 2285
L17500 2178
L17515 2117
L17546 2087
L17576 2071
" />
<path d="M18003 2391
L17850 2391
L17850 2071
" />
<path d="M18109 2224
L18216 2224
" />
<path d="M18262 2391
L18109 2391
L18109 2071
L18262 2071
" />
<path d="M18399 2391
L18399 2071
L18475 2071
L18521 2087
L18551 2117
L18567 2147
L18582 2208
L18582 2254
L18567 2315
L18551 2346
L18521 2376
L18475 2391
L18399 2391
" />
<path d="M18643 2422
L18887 2422
" />
<path d="M18963 2391
L18963 2071
" />
<path d="M18963 2224
L19146 2224
" />
<path d="M19146 2391
L19146 2071
" />
<path d="M19298 2391
L19298 2071
L19374 2071
L19420 2087
L19450 2117
L19466 2147
L19481 2208
L19481 2254
L19466 2315
L19450 2346
L19420 2376
L19374 2391
L19298 2391
" />
<path d="M19801 2391
L19694 2239
" />
<path d="M19618 2391
L19618 2071
L19740 2071
L19770 2087
L19786 2102
L19801 2132
L19801 2178
L19786 2208
L19770 2224
L19740 2239
L19618 2239
" />
</g>
<g style="fill:#008484; fill-opacity:0.0; 
stroke:#008484; stroke-width:59.0551; stroke-opacity:1; 
stroke-linecap:round; stroke-linejoin:round;">
<path d="M5032 6125
L4901 5937
" />
<path d="M4807 6125
L4807 5731
L4957 5731
L4995 5750
L5014 5768
L5032 5806
L5032 5862
L5014 5900
L4995 5918
L4957 5937
L4807 5937
" />
<path d="M5407 6125
L5182 6125
" />
<path d="M5295 6125
L5295 5731
L5257 5787
L5220 5825
L5182 5843
" />
<path d="M6432 8125
L6301 7937
" />
<path d="M6207 8125
L6207 7731
L6357 7731
L6395 7750
L6414 7768
L6432 7806
L6432 7862
L6414 7900
L6395 7918
L6357 7937
L6207 7937
" />
<path d="M6582 7768
L6601 7750
L6639 7731
L6732 7731
L6770 7750
L6789 7768
L6807 7806
L6807 7843
L6789 7900
L6564 8125
L6807 8125
" />
<path d="M15632 5825
L15501 5637
" />
<path d="M15407 5825
L15407 5431
L15557 5431
L15595 5450
L15614 5468
L15632 5506
L15632 5562
L15614 5600
L15595 5618
L15557 5637
L15407 5637
" />
<path d="M15764 5431
L16007 5431
L15876 5581
L15932 5581
L15970 5600
L15989 5618
L16007 5656
L16007 5750
L15989 5787
L15970 5806
L15932 5825
L15820 5825
L15782 5806
L15764 5787
" />
<path d="M6546 260
L6546 643
L6569 688
L6591 710
L6636 733
L6726 733
L6771 710
L6794 688
L6816 643
L6816 260
" />
<path d="M7289 733
L7019 733
" />
<path d="M7154 733
L7154 260
L7109 328
L7064 373
L7019 395
" />
<path d="M219 9456
L444 9456
" />
<path d="M174 9591
L332 9118
L489 9591
" />
<path d="M916 9591
L759 9366
" />
<path d="M646 9591
L646 9118
L826 9118
L871 9141
L894 9163
L916 9208
L916 9276
L894 9321
L871 9343
L826 9366
L646 9366
" />
<path d="M1119 9591
L1119 9118
L1231 9118
L1299 9141
L1344 9186
L1366 9231
L1389 9321
L1389 9388
L1366 9478
L1344 9523
L1299 9568
L1231 9591
L1119 9591
" />
<path d="M1591 9118
L1591 9501
L1614 9546
L1636 9568
L1681 9591
L1771 9591
L1816 9568
L1839 9546
L1861 9501
L1861 9118
" />
<path d="M2086 9591
L2086 9118
" />
<path d="M2311 9591
L2311 9118
L2581 9591
L2581 9118
" />
<path d="M2896 9118
L2986 9118
L3031 9141
L3076 9186
L3099 9276
L3099 9433
L3076 9523
L3031 9568
L2986 9591
L2896 9591
L2851 9568
L2806 9523
L2784 9433
L2784 9276
L2806 9186
L2851 9141
L2896 9118
" />
<path d="M3189 9636
L3549 9636
" />
<path d="M3661 9591
L3661 9118
L3819 9456
L3976 9118
L3976 9591
" />
<path d="M4201 9591
L4201 9118
" />
<path d="M4696 9546
L4673 9568
L4606 9591
L4561 9591
L4493 9568
L4448 9523
L4426 9478
L4403 9388
L4403 9321
L4426 9231
L4448 9186
L4493 9141
L4561 9118
L4606 9118
L4673 9141
L4696 9163
" />
<path d="M5168 9591
L5011 9366
" />
<path d="M4898 9591
L4898 9118
L5078 9118
L5123 9141
L5146 9163
L5168 9208
L5168 9276
L5146 9321
L5123 9343
L5078 9366
L4898 9366
" />
<path d="M5461 9118
L5551 9118
L5596 9141
L5641 9186
L5663 9276
L5663 9433
L5641 9523
L5596 9568
L5551 9591
L5461 9591
L5416 9568
L5371 9523
L5348 9433
L5348 9276
L5371 9186
L5416 9141
L5461 9118
" />
<path d="M5753 9636
L6113 9636
" />
<path d="M6203 9568
L6271 9591
L6383 9591
L6428 9568
L6451 9546
L6473 9501
L6473 9456
L6451 9411
L6428 9388
L6383 9366
L6293 9343
L6248 9321
L6226 9298
L6203 9253
L6203 9208
L6226 9163
L6248 9141
L6293 9118
L6406 9118
L6473 9141
" />
<path d="M6676 9591
L6676 9118
" />
<path d="M6676 9343
L6946 9343
" />
<path d="M6946 9591
L6946 9118
" />
<path d="M7171 9591
L7171 9118
" />
<path d="M7396 9343
L7553 9343
" />
<path d="M7621 9591
L7396 9591
L7396 9118
L7621 9118
" />
<path d="M8048 9591
L7823 9591
L7823 9118
" />
<path d="M8206 9591
L8206 9118
L8318 9118
L8385 9141
L8430 9186
L8453 9231
L8475 9321
L8475 9388
L8453 9478
L8430 9523
L8385 9568
L8318 9591
L8206 9591
" />
</g>
<g style="fill:#C2C200; fill-opacity:0.0; 
stroke:#C2C200; stroke-width:39.3701; stroke-opacity:1; 
stroke-linecap:round; stroke-linejoin:round;">
<path d="M3298 8847
L3298 1647
" />
<path d="M22298 8847
L3298 8847
" />
<path d="M22298 1647
L22298 8847
" />
<path d="M3298 1647
L22298 1647
" />
</g> 
</svg>
