solid OpenSCAD_Model
  facet normal -1 0 0
    outer loop
      vertex 180 1 0
      vertex 180 1 14.1421
      vertex 180 69 0
    endloop
  endfacet
  facet normal -1 0 0
    outer loop
      vertex 180 69 0
      vertex 180 1 14.1421
      vertex 180 35.8579 49
    endloop
  endfacet
  facet normal -1 0 0
    outer loop
      vertex 180 69 0
      vertex 180 35.8579 49
      vertex 180 69 49
    endloop
  endfacet
  facet normal 0 -1 0
    outer loop
      vertex 188.247 1 5.43634
      vertex 180 1 0
      vertex 320 1 0
    endloop
  endfacet
  facet normal 0 -1 0
    outer loop
      vertex 181 1 13
      vertex 181 1 14.1421
      vertex 180 1 14.1421
    endloop
  endfacet
  facet normal 0 -1 0
    outer loop
      vertex 320 1 14.1421
      vertex 319 1 14.1421
      vertex 320 1 0
    endloop
  endfacet
  facet normal 0 -1 0
    outer loop
      vertex 319 1 14.1421
      vertex 319 1 13
      vertex 320 1 0
    endloop
  endfacet
  facet normal 0 -1 0
    outer loop
      vertex 180 1 14.1421
      vertex 180 1 0
      vertex 181 1 13
    endloop
  endfacet
  facet normal 0 -1 0
    outer loop
      vertex 181 1 13
      vertex 180 1 0
      vertex 185.198 1 6.13223
    endloop
  endfacet
  facet normal 0 -1 0
    outer loop
      vertex 189 1 7
      vertex 188.247 1 5.43634
      vertex 320 1 0
    endloop
  endfacet
  facet normal 0 -1 0
    outer loop
      vertex 181 1 13
      vertex 185.198 1 6.13223
      vertex 185.198 1 7.86777
    endloop
  endfacet
  facet normal 0 -1 0
    outer loop
      vertex 181 1 13
      vertex 186.555 1 8.94986
      vertex 320 1 0
    endloop
  endfacet
  facet normal 0 -1 0
    outer loop
      vertex 181 1 13
      vertex 185.198 1 7.86777
      vertex 186.555 1 8.94986
    endloop
  endfacet
  facet normal 0 -1 0
    outer loop
      vertex 186.555 1 8.94986
      vertex 188.247 1 8.56366
      vertex 320 1 0
    endloop
  endfacet
  facet normal 0 -1 0
    outer loop
      vertex 186.555 1 5.05014
      vertex 180 1 0
      vertex 188.247 1 5.43634
    endloop
  endfacet
  facet normal 0 -1 0
    outer loop
      vertex 185.198 1 6.13223
      vertex 180 1 0
      vertex 186.555 1 5.05014
    endloop
  endfacet
  facet normal 0 -1 0
    outer loop
      vertex 314.247 1 5.43634
      vertex 312.555 1 5.05014
      vertex 320 1 0
    endloop
  endfacet
  facet normal 0 -1 0
    outer loop
      vertex 319 1 13
      vertex 314.247 1 8.56366
      vertex 320 1 0
    endloop
  endfacet
  facet normal 0 -1 0
    outer loop
      vertex 314.247 1 8.56366
      vertex 315 1 7
      vertex 320 1 0
    endloop
  endfacet
  facet normal 0 -1 0
    outer loop
      vertex 315 1 7
      vertex 314.247 1 5.43634
      vertex 320 1 0
    endloop
  endfacet
  facet normal 0 -1 0
    outer loop
      vertex 312.555 1 8.94986
      vertex 314.247 1 8.56366
      vertex 319 1 13
    endloop
  endfacet
  facet normal 0 -1 0
    outer loop
      vertex 188.247 1 8.56366
      vertex 189 1 7
      vertex 320 1 0
    endloop
  endfacet
  facet normal 0 -1 0
    outer loop
      vertex 312.555 1 5.05014
      vertex 181 1 13
      vertex 320 1 0
    endloop
  endfacet
  facet normal 0 -1 0
    outer loop
      vertex 311.198 1 6.13223
      vertex 181 1 13
      vertex 312.555 1 5.05014
    endloop
  endfacet
  facet normal 0 -1 0
    outer loop
      vertex 311.198 1 7.86777
      vertex 181 1 13
      vertex 311.198 1 6.13223
    endloop
  endfacet
  facet normal 0 -1 0
    outer loop
      vertex 312.555 1 8.94986
      vertex 181 1 13
      vertex 311.198 1 7.86777
    endloop
  endfacet
  facet normal 0 -1 0
    outer loop
      vertex 319 1 13
      vertex 181 1 13
      vertex 312.555 1 8.94986
    endloop
  endfacet
  facet normal 0 0 -1
    outer loop
      vertex 180 1 0
      vertex 180 69 0
      vertex 320 1 0
    endloop
  endfacet
  facet normal 0 0 -1
    outer loop
      vertex 320 1 0
      vertex 180 69 0
      vertex 320 69 0
    endloop
  endfacet
  facet normal 0 1 0
    outer loop
      vertex 312.555 69 5.05014
      vertex 320 69 0
      vertex 181 69 13
    endloop
  endfacet
  facet normal 0 1 0
    outer loop
      vertex 311.198 69 6.13223
      vertex 312.555 69 5.05014
      vertex 181 69 13
    endloop
  endfacet
  facet normal 0 1 0
    outer loop
      vertex 180 69 0
      vertex 180 69 49
      vertex 181 69 13
    endloop
  endfacet
  facet normal 0 1 0
    outer loop
      vertex 188.247 69 8.56366
      vertex 181 69 13
      vertex 320 69 0
    endloop
  endfacet
  facet normal 0 1 0
    outer loop
      vertex 189 69 7
      vertex 320 69 0
      vertex 188.247 69 5.43634
    endloop
  endfacet
  facet normal 0 1 0
    outer loop
      vertex 320 69 0
      vertex 319 69 13
      vertex 319 69 49
    endloop
  endfacet
  facet normal 0 1 0
    outer loop
      vertex 320 69 0
      vertex 319 69 49
      vertex 320 69 49
    endloop
  endfacet
  facet normal 0 1 0
    outer loop
      vertex 180 69 0
      vertex 181 69 13
      vertex 185.198 69 7.86777
    endloop
  endfacet
  facet normal 0 1 0
    outer loop
      vertex 180 69 0
      vertex 185.198 69 7.86777
      vertex 185.198 69 6.13223
    endloop
  endfacet
  facet normal 0 1 0
    outer loop
      vertex 180 69 0
      vertex 185.198 69 6.13223
      vertex 186.555 69 5.05014
    endloop
  endfacet
  facet normal 0 1 0
    outer loop
      vertex 180 69 0
      vertex 186.555 69 5.05014
      vertex 320 69 0
    endloop
  endfacet
  facet normal 0 1 0
    outer loop
      vertex 186.555 69 5.05014
      vertex 188.247 69 5.43634
      vertex 320 69 0
    endloop
  endfacet
  facet normal 0 1 0
    outer loop
      vertex 188.247 69 8.56366
      vertex 320 69 0
      vertex 189 69 7
    endloop
  endfacet
  facet normal 0 1 0
    outer loop
      vertex 186.555 69 8.94986
      vertex 181 69 13
      vertex 188.247 69 8.56366
    endloop
  endfacet
  facet normal 0 1 0
    outer loop
      vertex 314.247 69 5.43634
      vertex 320 69 0
      vertex 312.555 69 5.05014
    endloop
  endfacet
  facet normal 0 1 0
    outer loop
      vertex 185.198 69 7.86777
      vertex 181 69 13
      vertex 186.555 69 8.94986
    endloop
  endfacet
  facet normal 0 1 0
    outer loop
      vertex 312.555 69 8.94986
      vertex 319 69 13
      vertex 314.247 69 8.56366
    endloop
  endfacet
  facet normal 0 1 0
    outer loop
      vertex 320 69 0
      vertex 314.247 69 5.43634
      vertex 319 69 13
    endloop
  endfacet
  facet normal 0 1 0
    outer loop
      vertex 314.247 69 5.43634
      vertex 315 69 7
      vertex 319 69 13
    endloop
  endfacet
  facet normal 0 1 0
    outer loop
      vertex 315 69 7
      vertex 314.247 69 8.56366
      vertex 319 69 13
    endloop
  endfacet
  facet normal 0 1 0
    outer loop
      vertex 181 69 13
      vertex 180 69 49
      vertex 181 69 49
    endloop
  endfacet
  facet normal 0 1 0
    outer loop
      vertex 311.198 69 7.86777
      vertex 311.198 69 6.13223
      vertex 181 69 13
    endloop
  endfacet
  facet normal 0 1 0
    outer loop
      vertex 312.555 69 8.94986
      vertex 311.198 69 7.86777
      vertex 181 69 13
    endloop
  endfacet
  facet normal 0 1 0
    outer loop
      vertex 319 69 13
      vertex 312.555 69 8.94986
      vertex 181 69 13
    endloop
  endfacet
  facet normal 0 0 1
    outer loop
      vertex 180 69 49
      vertex 180 35.8579 49
      vertex 181 35.8579 49
    endloop
  endfacet
  facet normal 0 0 1
    outer loop
      vertex 181 69 49
      vertex 180 69 49
      vertex 181 35.8579 49
    endloop
  endfacet
  facet normal 0 -0.707107 0.707107
    outer loop
      vertex 181 1 14.1421
      vertex 181 35.8579 49
      vertex 180 35.8579 49
    endloop
  endfacet
  facet normal 0 -0.707107 0.707107
    outer loop
      vertex 180 1 14.1421
      vertex 181 1 14.1421
      vertex 180 35.8579 49
    endloop
  endfacet
  facet normal 1 0 0
    outer loop
      vertex 181 2 13
      vertex 181 2 1
      vertex 181 68 1
    endloop
  endfacet
  facet normal 1 0 0
    outer loop
      vertex 181 69 49
      vertex 181 2 13
      vertex 181 68 13
    endloop
  endfacet
  facet normal 1 0 0
    outer loop
      vertex 181 68 13
      vertex 181 2 13
      vertex 181 68 1
    endloop
  endfacet
  facet normal 1 0 0
    outer loop
      vertex 181 69 49
      vertex 181 68 13
      vertex 181 69 13
    endloop
  endfacet
  facet normal 1 0 0
    outer loop
      vertex 181 35.8579 49
      vertex 181 2 13
      vertex 181 69 49
    endloop
  endfacet
  facet normal 1 0 0
    outer loop
      vertex 181 1 14.1421
      vertex 181 2 13
      vertex 181 35.8579 49
    endloop
  endfacet
  facet normal 1 0 0
    outer loop
      vertex 181 1 13
      vertex 181 2 13
      vertex 181 1 14.1421
    endloop
  endfacet
  facet normal 0 0 1
    outer loop
      vertex 319 1 13
      vertex 319 2 13
      vertex 181 2 13
    endloop
  endfacet
  facet normal 0 0 1
    outer loop
      vertex 181 1 13
      vertex 319 1 13
      vertex 181 2 13
    endloop
  endfacet
  facet normal -1 0 0
    outer loop
      vertex 319 35.8579 49
      vertex 319 69 49
      vertex 319 1 14.1421
    endloop
  endfacet
  facet normal -1 0 0
    outer loop
      vertex 319 1 14.1421
      vertex 319 69 49
      vertex 319 69 13
    endloop
  endfacet
  facet normal -1 0 0
    outer loop
      vertex 319 1 14.1421
      vertex 319 69 13
      vertex 319 68 13
    endloop
  endfacet
  facet normal -1 0 0
    outer loop
      vertex 319 1 14.1421
      vertex 319 68 13
      vertex 319 68 1
    endloop
  endfacet
  facet normal -1 0 0
    outer loop
      vertex 319 2 13
      vertex 319 68 1
      vertex 319 2 1
    endloop
  endfacet
  facet normal -1 0 0
    outer loop
      vertex 319 1 14.1421
      vertex 319 68 1
      vertex 319 2 13
    endloop
  endfacet
  facet normal -1 0 0
    outer loop
      vertex 319 1 13
      vertex 319 1 14.1421
      vertex 319 2 13
    endloop
  endfacet
  facet normal 0 -0.707107 0.707107
    outer loop
      vertex 320 1 14.1421
      vertex 320 35.8579 49
      vertex 319 35.8579 49
    endloop
  endfacet
  facet normal 0 -0.707107 0.707107
    outer loop
      vertex 319 1 14.1421
      vertex 320 1 14.1421
      vertex 319 35.8579 49
    endloop
  endfacet
  facet normal 1 0 0
    outer loop
      vertex 320 1 14.1421
      vertex 320 1 0
      vertex 320 69 0
    endloop
  endfacet
  facet normal 1 0 0
    outer loop
      vertex 320 35.8579 49
      vertex 320 1 14.1421
      vertex 320 69 49
    endloop
  endfacet
  facet normal 1 0 0
    outer loop
      vertex 320 69 49
      vertex 320 1 14.1421
      vertex 320 69 0
    endloop
  endfacet
  facet normal 1 0 0
    outer loop
      vertex 185.198 2 6.13223
      vertex 185.198 2 7.86777
      vertex 185.198 1 7.86777
    endloop
  endfacet
  facet normal 1 0 0
    outer loop
      vertex 185.198 1 6.13223
      vertex 185.198 2 6.13223
      vertex 185.198 1 7.86777
    endloop
  endfacet
  facet normal 0.62349 1.73601e-16 0.781831
    outer loop
      vertex 186.555 1 5.05014
      vertex 186.555 2 5.05014
      vertex 185.198 2 6.13223
    endloop
  endfacet
  facet normal 0.62349 1.73601e-16 0.781831
    outer loop
      vertex 185.198 1 6.13223
      vertex 186.555 1 5.05014
      vertex 185.198 2 6.13223
    endloop
  endfacet
  facet normal -0.222521 2.16477e-16 0.974928
    outer loop
      vertex 188.247 1 5.43634
      vertex 188.247 2 5.43634
      vertex 186.555 2 5.05014
    endloop
  endfacet
  facet normal -0.222521 2.16477e-16 0.974928
    outer loop
      vertex 186.555 1 5.05014
      vertex 188.247 1 5.43634
      vertex 186.555 2 5.05014
    endloop
  endfacet
  facet normal -0.900969 9.63415e-17 0.433884
    outer loop
      vertex 189 2 7
      vertex 188.247 2 5.43634
      vertex 189 1 7
    endloop
  endfacet
  facet normal -0.900969 9.63415e-17 0.433884
    outer loop
      vertex 189 1 7
      vertex 188.247 2 5.43634
      vertex 188.247 1 5.43634
    endloop
  endfacet
  facet normal -0.900969 -9.63415e-17 -0.433884
    outer loop
      vertex 189 2 7
      vertex 189 1 7
      vertex 188.247 2 8.56366
    endloop
  endfacet
  facet normal -0.900969 -9.63415e-17 -0.433884
    outer loop
      vertex 188.247 2 8.56366
      vertex 189 1 7
      vertex 188.247 1 8.56366
    endloop
  endfacet
  facet normal -0.222521 -2.16477e-16 -0.974928
    outer loop
      vertex 188.247 2 8.56366
      vertex 188.247 1 8.56366
      vertex 186.555 2 8.94986
    endloop
  endfacet
  facet normal -0.222521 -2.16477e-16 -0.974928
    outer loop
      vertex 186.555 2 8.94986
      vertex 188.247 1 8.56366
      vertex 186.555 1 8.94986
    endloop
  endfacet
  facet normal 0.62349 -1.73601e-16 -0.781831
    outer loop
      vertex 186.555 2 8.94986
      vertex 186.555 1 8.94986
      vertex 185.198 2 7.86777
    endloop
  endfacet
  facet normal 0.62349 -1.73601e-16 -0.781831
    outer loop
      vertex 185.198 2 7.86777
      vertex 186.555 1 8.94986
      vertex 185.198 1 7.86777
    endloop
  endfacet
  facet normal 0.62349 1.73601e-16 0.781831
    outer loop
      vertex 312.555 1 5.05014
      vertex 312.555 2 5.05014
      vertex 311.198 2 6.13223
    endloop
  endfacet
  facet normal 0.62349 1.73601e-16 0.781831
    outer loop
      vertex 311.198 1 6.13223
      vertex 312.555 1 5.05014
      vertex 311.198 2 6.13223
    endloop
  endfacet
  facet normal 1 0 0
    outer loop
      vertex 311.198 2 6.13223
      vertex 311.198 2 7.86777
      vertex 311.198 1 7.86777
    endloop
  endfacet
  facet normal 1 0 0
    outer loop
      vertex 311.198 1 6.13223
      vertex 311.198 2 6.13223
      vertex 311.198 1 7.86777
    endloop
  endfacet
  facet normal -0.222521 2.16477e-16 0.974928
    outer loop
      vertex 314.247 1 5.43634
      vertex 314.247 2 5.43634
      vertex 312.555 2 5.05014
    endloop
  endfacet
  facet normal -0.222521 2.16477e-16 0.974928
    outer loop
      vertex 312.555 1 5.05014
      vertex 314.247 1 5.43634
      vertex 312.555 2 5.05014
    endloop
  endfacet
  facet normal -0.900969 9.63415e-17 0.433884
    outer loop
      vertex 315 2 7
      vertex 314.247 2 5.43634
      vertex 315 1 7
    endloop
  endfacet
  facet normal -0.900969 9.63415e-17 0.433884
    outer loop
      vertex 315 1 7
      vertex 314.247 2 5.43634
      vertex 314.247 1 5.43634
    endloop
  endfacet
  facet normal -0.900969 -9.63415e-17 -0.433884
    outer loop
      vertex 315 2 7
      vertex 315 1 7
      vertex 314.247 2 8.56366
    endloop
  endfacet
  facet normal -0.900969 -9.63415e-17 -0.433884
    outer loop
      vertex 314.247 2 8.56366
      vertex 315 1 7
      vertex 314.247 1 8.56366
    endloop
  endfacet
  facet normal -0.222521 -2.16477e-16 -0.974928
    outer loop
      vertex 314.247 2 8.56366
      vertex 314.247 1 8.56366
      vertex 312.555 2 8.94986
    endloop
  endfacet
  facet normal -0.222521 -2.16477e-16 -0.974928
    outer loop
      vertex 312.555 2 8.94986
      vertex 314.247 1 8.56366
      vertex 312.555 1 8.94986
    endloop
  endfacet
  facet normal 0.62349 -1.73601e-16 -0.781831
    outer loop
      vertex 312.555 2 8.94986
      vertex 312.555 1 8.94986
      vertex 311.198 2 7.86777
    endloop
  endfacet
  facet normal 0.62349 -1.73601e-16 -0.781831
    outer loop
      vertex 311.198 2 7.86777
      vertex 312.555 1 8.94986
      vertex 311.198 1 7.86777
    endloop
  endfacet
  facet normal 0 0 1
    outer loop
      vertex 319 69 49
      vertex 319 35.8579 49
      vertex 320 35.8579 49
    endloop
  endfacet
  facet normal 0 0 1
    outer loop
      vertex 320 69 49
      vertex 319 69 49
      vertex 320 35.8579 49
    endloop
  endfacet
  facet normal 0 0 1
    outer loop
      vertex 319 68 13
      vertex 319 69 13
      vertex 181 69 13
    endloop
  endfacet
  facet normal 0 0 1
    outer loop
      vertex 181 68 13
      vertex 319 68 13
      vertex 181 69 13
    endloop
  endfacet
  facet normal 1 0 0
    outer loop
      vertex 185.198 69 6.13223
      vertex 185.198 69 7.86777
      vertex 185.198 68 7.86777
    endloop
  endfacet
  facet normal 1 0 0
    outer loop
      vertex 185.198 68 6.13223
      vertex 185.198 69 6.13223
      vertex 185.198 68 7.86777
    endloop
  endfacet
  facet normal 0.62349 -1.73601e-16 -0.781831
    outer loop
      vertex 186.555 69 8.94986
      vertex 186.555 68 8.94986
      vertex 185.198 69 7.86777
    endloop
  endfacet
  facet normal 0.62349 -1.73601e-16 -0.781831
    outer loop
      vertex 185.198 69 7.86777
      vertex 186.555 68 8.94986
      vertex 185.198 68 7.86777
    endloop
  endfacet
  facet normal -0.222521 -2.16477e-16 -0.974928
    outer loop
      vertex 188.247 69 8.56366
      vertex 188.247 68 8.56366
      vertex 186.555 69 8.94986
    endloop
  endfacet
  facet normal -0.222521 -2.16477e-16 -0.974928
    outer loop
      vertex 186.555 69 8.94986
      vertex 188.247 68 8.56366
      vertex 186.555 68 8.94986
    endloop
  endfacet
  facet normal -0.900969 -9.63415e-17 -0.433884
    outer loop
      vertex 189 69 7
      vertex 189 68 7
      vertex 188.247 69 8.56366
    endloop
  endfacet
  facet normal -0.900969 -9.63415e-17 -0.433884
    outer loop
      vertex 188.247 69 8.56366
      vertex 189 68 7
      vertex 188.247 68 8.56366
    endloop
  endfacet
  facet normal -0.900969 9.63415e-17 0.433884
    outer loop
      vertex 189 69 7
      vertex 188.247 69 5.43634
      vertex 189 68 7
    endloop
  endfacet
  facet normal -0.900969 9.63415e-17 0.433884
    outer loop
      vertex 189 68 7
      vertex 188.247 69 5.43634
      vertex 188.247 68 5.43634
    endloop
  endfacet
  facet normal -0.222521 2.16477e-16 0.974928
    outer loop
      vertex 188.247 68 5.43634
      vertex 188.247 69 5.43634
      vertex 186.555 69 5.05014
    endloop
  endfacet
  facet normal -0.222521 2.16477e-16 0.974928
    outer loop
      vertex 186.555 68 5.05014
      vertex 188.247 68 5.43634
      vertex 186.555 69 5.05014
    endloop
  endfacet
  facet normal 0.62349 1.73601e-16 0.781831
    outer loop
      vertex 186.555 68 5.05014
      vertex 186.555 69 5.05014
      vertex 185.198 69 6.13223
    endloop
  endfacet
  facet normal 0.62349 1.73601e-16 0.781831
    outer loop
      vertex 185.198 68 6.13223
      vertex 186.555 68 5.05014
      vertex 185.198 69 6.13223
    endloop
  endfacet
  facet normal 1 0 0
    outer loop
      vertex 311.198 69 6.13223
      vertex 311.198 69 7.86777
      vertex 311.198 68 7.86777
    endloop
  endfacet
  facet normal 1 0 0
    outer loop
      vertex 311.198 68 6.13223
      vertex 311.198 69 6.13223
      vertex 311.198 68 7.86777
    endloop
  endfacet
  facet normal 0.62349 -1.73601e-16 -0.781831
    outer loop
      vertex 312.555 69 8.94986
      vertex 312.555 68 8.94986
      vertex 311.198 69 7.86777
    endloop
  endfacet
  facet normal 0.62349 -1.73601e-16 -0.781831
    outer loop
      vertex 311.198 69 7.86777
      vertex 312.555 68 8.94986
      vertex 311.198 68 7.86777
    endloop
  endfacet
  facet normal -0.222521 -2.16477e-16 -0.974928
    outer loop
      vertex 314.247 69 8.56366
      vertex 314.247 68 8.56366
      vertex 312.555 69 8.94986
    endloop
  endfacet
  facet normal -0.222521 -2.16477e-16 -0.974928
    outer loop
      vertex 312.555 69 8.94986
      vertex 314.247 68 8.56366
      vertex 312.555 68 8.94986
    endloop
  endfacet
  facet normal -0.900969 -9.63415e-17 -0.433884
    outer loop
      vertex 315 69 7
      vertex 315 68 7
      vertex 314.247 69 8.56366
    endloop
  endfacet
  facet normal -0.900969 -9.63415e-17 -0.433884
    outer loop
      vertex 314.247 69 8.56366
      vertex 315 68 7
      vertex 314.247 68 8.56366
    endloop
  endfacet
  facet normal -0.900969 9.63415e-17 0.433884
    outer loop
      vertex 315 69 7
      vertex 314.247 69 5.43634
      vertex 315 68 7
    endloop
  endfacet
  facet normal -0.900969 9.63415e-17 0.433884
    outer loop
      vertex 315 68 7
      vertex 314.247 69 5.43634
      vertex 314.247 68 5.43634
    endloop
  endfacet
  facet normal -0.222521 2.16477e-16 0.974928
    outer loop
      vertex 314.247 68 5.43634
      vertex 314.247 69 5.43634
      vertex 312.555 69 5.05014
    endloop
  endfacet
  facet normal -0.222521 2.16477e-16 0.974928
    outer loop
      vertex 312.555 68 5.05014
      vertex 314.247 68 5.43634
      vertex 312.555 69 5.05014
    endloop
  endfacet
  facet normal 0.62349 1.73601e-16 0.781831
    outer loop
      vertex 312.555 68 5.05014
      vertex 312.555 69 5.05014
      vertex 311.198 69 6.13223
    endloop
  endfacet
  facet normal 0.62349 1.73601e-16 0.781831
    outer loop
      vertex 311.198 68 6.13223
      vertex 312.555 68 5.05014
      vertex 311.198 69 6.13223
    endloop
  endfacet
  facet normal 0 1 0
    outer loop
      vertex 312.555 2 5.05014
      vertex 319 2 1
      vertex 181 2 13
    endloop
  endfacet
  facet normal 0 1 0
    outer loop
      vertex 186.555 2 5.05014
      vertex 319 2 1
      vertex 181 2 1
    endloop
  endfacet
  facet normal 0 1 0
    outer loop
      vertex 185.198 2 7.86777
      vertex 181 2 13
      vertex 186.555 2 8.94986
    endloop
  endfacet
  facet normal 0 1 0
    outer loop
      vertex 181 2 13
      vertex 185.198 2 6.13223
      vertex 181 2 1
    endloop
  endfacet
  facet normal 0 1 0
    outer loop
      vertex 188.247 2 5.43634
      vertex 319 2 1
      vertex 186.555 2 5.05014
    endloop
  endfacet
  facet normal 0 1 0
    outer loop
      vertex 185.198 2 6.13223
      vertex 186.555 2 5.05014
      vertex 181 2 1
    endloop
  endfacet
  facet normal 0 1 0
    outer loop
      vertex 188.247 2 8.56366
      vertex 319 2 1
      vertex 189 2 7
    endloop
  endfacet
  facet normal 0 1 0
    outer loop
      vertex 181 2 13
      vertex 319 2 1
      vertex 188.247 2 8.56366
    endloop
  endfacet
  facet normal 0 1 0
    outer loop
      vertex 181 2 13
      vertex 188.247 2 8.56366
      vertex 186.555 2 8.94986
    endloop
  endfacet
  facet normal 0 1 0
    outer loop
      vertex 314.247 2 5.43634
      vertex 319 2 1
      vertex 312.555 2 5.05014
    endloop
  endfacet
  facet normal 0 1 0
    outer loop
      vertex 181 2 13
      vertex 185.198 2 7.86777
      vertex 185.198 2 6.13223
    endloop
  endfacet
  facet normal 0 1 0
    outer loop
      vertex 312.555 2 8.94986
      vertex 319 2 13
      vertex 314.247 2 8.56366
    endloop
  endfacet
  facet normal 0 1 0
    outer loop
      vertex 311.198 2 7.86777
      vertex 311.198 2 6.13223
      vertex 181 2 13
    endloop
  endfacet
  facet normal 0 1 0
    outer loop
      vertex 311.198 2 6.13223
      vertex 312.555 2 5.05014
      vertex 181 2 13
    endloop
  endfacet
  facet normal 0 1 0
    outer loop
      vertex 319 2 13
      vertex 319 2 1
      vertex 314.247 2 5.43634
    endloop
  endfacet
  facet normal 0 1 0
    outer loop
      vertex 319 2 13
      vertex 314.247 2 5.43634
      vertex 315 2 7
    endloop
  endfacet
  facet normal 0 1 0
    outer loop
      vertex 319 2 13
      vertex 315 2 7
      vertex 314.247 2 8.56366
    endloop
  endfacet
  facet normal 0 1 0
    outer loop
      vertex 319 2 13
      vertex 312.555 2 8.94986
      vertex 181 2 13
    endloop
  endfacet
  facet normal 0 1 0
    outer loop
      vertex 312.555 2 8.94986
      vertex 311.198 2 7.86777
      vertex 181 2 13
    endloop
  endfacet
  facet normal 0 1 0
    outer loop
      vertex 189 2 7
      vertex 319 2 1
      vertex 188.247 2 5.43634
    endloop
  endfacet
  facet normal 0 -1 0
    outer loop
      vertex 312.555 68 8.94986
      vertex 319 68 13
      vertex 181 68 13
    endloop
  endfacet
  facet normal 0 -1 0
    outer loop
      vertex 186.555 68 8.94986
      vertex 319 68 1
      vertex 181 68 13
    endloop
  endfacet
  facet normal 0 -1 0
    outer loop
      vertex 181 68 1
      vertex 185.198 68 7.86777
      vertex 181 68 13
    endloop
  endfacet
  facet normal 0 -1 0
    outer loop
      vertex 185.198 68 7.86777
      vertex 186.555 68 8.94986
      vertex 181 68 13
    endloop
  endfacet
  facet normal 0 -1 0
    outer loop
      vertex 188.247 68 8.56366
      vertex 319 68 1
      vertex 186.555 68 8.94986
    endloop
  endfacet
  facet normal 0 -1 0
    outer loop
      vertex 186.555 68 5.05014
      vertex 185.198 68 6.13223
      vertex 181 68 1
    endloop
  endfacet
  facet normal 0 -1 0
    outer loop
      vertex 188.247 68 5.43634
      vertex 319 68 1
      vertex 189 68 7
    endloop
  endfacet
  facet normal 0 -1 0
    outer loop
      vertex 181 68 1
      vertex 319 68 1
      vertex 188.247 68 5.43634
    endloop
  endfacet
  facet normal 0 -1 0
    outer loop
      vertex 312.555 68 8.94986
      vertex 314.247 68 8.56366
      vertex 319 68 13
    endloop
  endfacet
  facet normal 0 -1 0
    outer loop
      vertex 181 68 1
      vertex 188.247 68 5.43634
      vertex 186.555 68 5.05014
    endloop
  endfacet
  facet normal 0 -1 0
    outer loop
      vertex 181 68 1
      vertex 185.198 68 6.13223
      vertex 185.198 68 7.86777
    endloop
  endfacet
  facet normal 0 -1 0
    outer loop
      vertex 311.198 68 6.13223
      vertex 311.198 68 7.86777
      vertex 181 68 13
    endloop
  endfacet
  facet normal 0 -1 0
    outer loop
      vertex 311.198 68 7.86777
      vertex 312.555 68 8.94986
      vertex 181 68 13
    endloop
  endfacet
  facet normal 0 -1 0
    outer loop
      vertex 314.247 68 5.43634
      vertex 312.555 68 5.05014
      vertex 319 68 1
    endloop
  endfacet
  facet normal 0 -1 0
    outer loop
      vertex 319 68 1
      vertex 319 68 13
      vertex 314.247 68 8.56366
    endloop
  endfacet
  facet normal 0 -1 0
    outer loop
      vertex 319 68 1
      vertex 314.247 68 8.56366
      vertex 315 68 7
    endloop
  endfacet
  facet normal 0 -1 0
    outer loop
      vertex 319 68 1
      vertex 315 68 7
      vertex 314.247 68 5.43634
    endloop
  endfacet
  facet normal 0 -1 0
    outer loop
      vertex 319 68 1
      vertex 312.555 68 5.05014
      vertex 181 68 13
    endloop
  endfacet
  facet normal 0 -1 0
    outer loop
      vertex 312.555 68 5.05014
      vertex 311.198 68 6.13223
      vertex 181 68 13
    endloop
  endfacet
  facet normal 0 -1 0
    outer loop
      vertex 188.247 68 8.56366
      vertex 189 68 7
      vertex 319 68 1
    endloop
  endfacet
  facet normal 0 0 1
    outer loop
      vertex 319 2 1
      vertex 319 68 1
      vertex 181 68 1
    endloop
  endfacet
  facet normal 0 0 1
    outer loop
      vertex 181 2 1
      vertex 319 2 1
      vertex 181 68 1
    endloop
  endfacet
endsolid OpenSCAD_Model
